<?xml version="1.0" encoding="UTF-8"?><svg id="Layer_1" xmlns="http://www.w3.org/2000/svg" viewBox="0 0 552.27 370.58"><path d="M235.35,24.03c-2.53.15-3.59.2-4.11-.92-2.29-.23-4.59-.67-6.88.42-.15.44-.35.82-.64,1.14-.43.46-1.05.78-1.94.95-.83.16-1.48,1.25-2.12,1.83,2.15.16,4.25-.3,5.37.54,2.37,1.79,4.08.6,6-.38.86-.44,1.62-1.29,2.51-1.45,3.5-.63,7.02-1.13,10.55-1.55,1.4-.16,2.84.07,4.27.04,1.27-.02,2.53-.16,3.79-.25-5.67-.45-11.24-.68-16.78-.37Z"/><path d="M130.56,81.95s.01,0,.02-.01c0,0,0,0-.01,0,0,0,0,.01-.01.02h0Z"/><path d="M281.3,61.53s0,.01,0,.02c0,0,.02-.02.02-.02,0,0,0,0-.01,0,0,0,0,0-.01,0Z"/><path d="M306.98,60.87s0,.01-.01.02c0,0,.02-.01.02-.02,0,0,0,0,0,0,0,0,0,0,0,0Z"/><path d="M370.47,329.01c-.36-.02-.72-.04-1.09-.06-.16,2.04-.44,4.09-.45,6.13,0,3.4.06,6.8.12,10.2.5-.02.99-.03,1.48-.05-.02-.63-.04-1.25-.05-1.88-.1-4.78-.02-9.57-.02-14.35Z"/><path d="M513.2,302.93c-.3-2.91-.2-5.87-.13-8.81.09-4.14-.22-8.39.69-12.36.63-2.76.95-5.1-.42-7.52-2.37-4.19-3.62-8.44-1.47-13.15.43-.95.43-2.15.43-3.24,0-8.08.25-16.18-.19-24.24-.39-7.21-1.89-14.36-2.3-21.56-.42-7.28-.3-14.54,1.16-21.84,1.18-5.94,1.52-12.16,1.37-18.23-.22-8.53-1.23-17.05-1.92-25.57-.25-3.09,1.26-4.43,4.22-5.15,7.35-1.77,14.3-.59,21.3,1.76,4.59,1.54,7.3.72,8.59-1.68,1.26-2.36-.18-5.35-3.5-8.46-5.9-5.53-11.54-11.34-17.45-16.86-3.19-2.98-6.39-6.2-10.16-8.22-5.53-2.96-10.21-6.69-14.47-11.2-3.37-3.57-7.29-6.62-10.63-10.21-6.66-7.16-13.13-14.5-21.34-20-.32-.22-.51-.63-.77-.94-3.55-4.25-6.73-8.91-10.75-12.67-5.99-5.6-12.63-10.48-18.87-15.81-3.99-3.41-7.66-7.21-11.66-10.61-8.04-6.85-16.48-13.25-24.24-20.41-5.22-4.82-10.59-6.89-17.6-5.52-17.96,3.51-35.9,7.26-53.98,10.03-15.47,2.38-30.56,7.15-46.38,7.38-1.94.03-3.87.74-5.81,1.1-6.33,1.2-12.67,2.35-18.99,3.61-.71.14-1.33.8-1.98,1.21.74.28,1.52.88,2.21.79,5.74-.74,11.44-1.7,17.19-2.39,5.11-.62,10.26-1.04,15.39-1.45.76-.06,1.57.44,2.36.69-.46.78-.74,1.84-1.41,2.3-3.06,2.05-6.46,2.29-10.09,1.95-3-.28-6.07.08-9.11.2-2.39.1-4.77.29-7.15.4-2.28.11-5.1-.65-6.75.41-4.79,3.08-10.24,3.08-15.42,4.21-1.63.36-3.66.39-5.13-.27-3.29-1.46-6.4-.8-9.65-.22-6.04,1.08-12.09,2.08-18.17,2.9-1.23.17-2.58-.76-3.91-.98-1.35-.23-3.1-.78-4.05-.19-3.24,2.02-6.24,4.44-9.23,6.83-.4.32-.44,1.42-.28,2.07.29,1.21.85,2.36,1.27,3.48h2.57c-.16.57-.17,1.54-.5,1.66-4.65,1.69-2.86,3.2.05,4.77.19.1.36.35.51.56,6.62-10.18,18.23-13.29,29.86-13.29-.09.07-.17.15-.26.22.16-.03.31-.06.47-.08-1.1,1.67-1.62,2.48-2.42,3.7,1.18-.3,1.83-.39,2.43-.63,2.53-1.02,4.99-2.32,7.6-3.04,1.25-.34,2.8.38,4.21.62-.81,1.15-1.42,2.53-2.46,3.41-2.4,2.06-4.96,3.93-7.53,5.77-1.66,1.19-3.32,2.7-5.21,3.21-7.68,2.08-15.2,4.99-23.41,4.52-7.64-.44-15.3-.92-22.95-.78-4.51.08-9.44.38-13.39,2.26-5.14,2.45-9.46,6.6-14.19,9.93-1.48,1.04-3.16,1.79-4.74,2.69-3.9,2.21-7.82,4.38-11.67,6.68-.64.38-1.45,1.81-1.33,1.94,1.81,1.89-.63,2.28-1.09,3.33,0,0,0,0,.01,0,0,0-.01,0-.02.01,1.23-.36,2.47-.68,3.68-1.09,4.83-1.62,9.75-3.04,14.43-5.01,2.53-1.07,4.86-2.88,6.88-4.77,2.41-2.25,4.82-3.97,8.25-4.24,1.44-.11,2.77-1.2,4.22-1.64.8-.25,1.73-.1,2.6-.13-.36.9-.47,2.21-1.14,2.63-1.46.91-3.35,1.14-4.78,2.08-1.65,1.08-3.03,2.59-4.44,4.01-.15.15.46,1.36.49,1.35,1.79-.57,3.99-.75,5.25-1.93,2.96-2.76,6.11-4.81,10.14-5.46.31-.05.81-.81.73-1.07-.99-3,.9-2.55,2.77-2.58,1.58-.03,3.44-.14,4.67-.96,5.27-3.53,11.11-2.48,16.83-2.51,1.81-.01,3.63-.16,5.43-.09.9.04,1.8.43,2.69.66-.39.8-.58,1.9-1.22,2.35-5.18,3.67-10.41,7.29-15.73,10.75-1.43.93-3.19,1.56-4.88,1.86-7.86,1.43-15.74,2.7-23.62,4.02-.43.07-.97.28-1.29.1-5.36-2.93-10.34,1.05-15.53.81-5.08-.23-9.59,2.32-14.49,2.91-1.23.15-2.49.02-4.41.02,1.2-1,1.83-1.54,2.47-2.07,0,0,0,0,0,0,0,0,0-.01.01-.02-.94-.23-2.15-.94-2.78-.6-4.29,2.35-8.48,4.88-12.66,7.42-5.23,3.17-10.53,6.24-15.58,9.69-2.93,2-5.42,4.67-8.11,7.03-1.46,1.27-2.79,2.77-4.43,3.74-4.71,2.78-9.58,5.27-14.31,8.02-2.27,1.32-4.59,2.7-6.45,4.51-1.09,1.07-1.88,3.08-1.74,4.56.1.98,2,2.25,3.28,2.54,3.18.73,6.47,1.17,9.73,1.37,4.26.25,8.55.12,12.82.23,3.93.1,5.14,1.2,4.99,4.84-.43,9.99-.09,19.91,1.89,29.75.37,1.86-.21,3.9-.3,5.86-.21,4.56-1.11,9.24-.38,13.65.85,5.14.19,9.96-.55,14.91-.84,5.6-1.88,11.21-2.2,16.84-.37,6.63.09,13.3-.13,19.94-.09,2.58-.98,5.15-1.65,7.69-.68,2.55-.25,4.84,1.49,6.75,2.35,2.58,2.48,5.52,1.66,8.63-.53,2.01-1.45,3.92-1.95,5.93-.64,2.63-1.42,5.31-1.46,7.98-.08,5.32.28,10.66.51,15.99.08,1.93,1.15,4.67.26,5.59-.27.28-.64.47-1.07.6,7.18,4.53,14.42,8.94,21.77,13.16-.33-.85-.67-1.71-.92-2.58-.19-.65.05-1.52.34-2.18.58-1.27,1.86-2.42,1.92-3.67.21-4.48.2-8.98-.07-13.45-.11-1.89-1.06-3.73-1.56-5.38.56-1.22,1.6-2.56,1.73-3.97.36-4.02.22-8.09.54-12.12.1-1.24,1-2.41,1.53-3.61,1.14.7,2.87,1.16,3.29,2.16.82,1.93,1.21,4.17,1.22,6.29.04,6.32-.14,12.63-.33,18.95-.04,1.52-.48,3.02-.63,4.53-.23,2.38-.44,4.76-.52,7.15-.13,3.67-.69,7.24-1.48,10.76,14.35,7.99,29.13,15.13,44.58,20.76-.64-3.14-1.19-6.3-1.17-9.45.11-17.39.61-34.78,1.1-52.16.09-3.37,1.37-6.77,1.1-10.07-.59-7.4.51-14.67.74-22,.06-1.84.08-3.9-.66-5.49-1.38-2.99-.74-5.21,1.54-7.22.62-.55,1.35-.97,2.04-1.45.53.76,1.41,1.47,1.54,2.29.84,5.37,1.51,10.77,2.24,16.16-.44.03-.87.07-1.31.1,0,5.99,0,11.99,0,17.98,0,.65.07,1.43-.24,1.93-1.51,2.45-.9,4.92-.69,7.56.31,3.94.53,7.71,3.34,10.86.44.49.22,1.56.31,2.36-.56-.36-1.09-.77-1.68-1.08-.52-.27-1.47-.72-1.6-.56-.53.62-1.11,1.45-1.12,2.21-.04,3.28.32,6.57.16,9.84-.51,10.48-1.24,20.94-1.76,31.42-.11,2.25.28,4.53.52,6.78.06.55.21,1.11.35,1.66,17.69,6.03,36.29,10.03,56.18,11,8.14.58,15.44,3.44,21.71,8.04-.1-2.33-.06-4.67.41-6.89.89-4.14.33-7.96-.34-11.99-.72-4.27-.66-8.68-.87-13.03-.12-2.4-.2-4.81-.09-7.2.22-4.58.54-9.15.95-13.72.07-.8.54-1.98,1.15-2.26,3.8-1.74,4-5.32,4.35-8.6.43-4.12.57-8.32.33-12.45-.1-1.68-1.37-3.4-2.39-4.91-3.1-4.59-4.65-9.12-2.34-14.78,1.03-2.52.23-5.81.15-8.74-.17-6.32-.66-12.65-.56-18.96.15-9.27.72-18.54,1.05-27.81.04-1.06-.32-2.14-.54-3.2-.8-3.8-3.15-8.12-2.09-11.28,1.7-5.03-.36-9.68.61-14.38.41-2,1.5-3.85,1.92-5.85.65-3.06,1.59-6.22,1.37-9.27-.52-7.21-1.72-14.36-2.5-21.56-.26-2.38-.28-4.82-.03-7.19.1-.99,1.19-1.88,1.83-2.81.66.88,1.58,1.66,1.94,2.65.71,1.97,1.12,4.05,1.65,6.09.37-.06.75-.11,1.12-.17,0-2.88-.01-5.77,0-8.65,0-.88-.21-2.04.25-2.57,1.29-1.48,2.88-2.69,4.35-4,.69,1.22,1.5,2.39,2.05,3.67.44,1.05.57,2.24,1.5,3.3.22-2.35.03-4.85.77-7.02.71-2.09,2.37-3.86,3.62-5.77.9,1.73,2.13,3.38,2.63,5.22.77,2.81,1.03,5.76,1.51,8.66.36,0,.72,0,1.09,0,0-3.35-.07-6.71.02-10.06.06-2.17.21-4.37.63-6.48.18-.9,1.18-1.63,1.81-2.44.76.84,1.91,1.56,2.19,2.53.56,1.98.82,4.09.9,6.16.41,9.97.83,19.93,1.03,29.9.3,14.79.49,29.59.6,44.38.06,7.66-.12,15.32-.2,22.99-.2,18.74-.4,37.49-.59,56.23-.13,13.12-.35,26.24-.36,39.36-.01,12.81.04,25.63.4,38.43.03,1.03.05,2.04.04,3.04,1.1-.13,2.2-.27,3.3-.4-.06-7.37.1-14.74.09-22.11-.02-13.04-.21-26.09-.17-39.13.05-14.25.33-28.49.4-42.74.06-10.51-.09-21.03-.07-31.54.02-10.85.25-21.69.17-32.54-.09-12.28-.51-24.56-.61-36.84-.11-13.71-.05-27.42,0-41.12.01-5.08,4.44-10.36,9.4-11.4.42-.09.94-.06,1.23-.31,2.28-1.93,4.48-3.94,6.77-5.84.68-.57,1.57-.89,2.37-1.33.35.89.93,1.75,1.02,2.66.42,4.25.7,8.52,1.29,12.81.86-7.12-1.39-14.89,4.74-20.78.15.29.67.88.73,1.52.76,7.63,1.4,15.26,2.16,22.89.61,6.09,1.47,12.16,2.02,18.26.36,4.03.32,8.1.56,12.14.17,2.9.53,5.79.73,8.7.07,1.09.17,2.26-.14,3.27-2.89,9.33.07,18.72-.37,28.07-.22,4.69-.15,9.4-.34,14.09-.4,10.06-.93,20.11-1.3,30.17-.12,3.06.11,6.14.13,9.21,0,2.13-.1,4.18-2.54,5.23-.35.15-.54,1.88-.16,2.3,2.78,3.1,2.89,6.71,2.48,10.53-.26,2.4-.11,4.85-.54,7.21-.21,1.13,1.5,4.1-2.11,3.14-.09-.02-.43.5-.47.8-.46,3.83-.89,7.66-1.33,11.49.29.04.59.08.88.12.55-2.41,1.03-4.84,1.69-7.22.17-.61.9-1.06,1.37-1.59.44.56,1.19,1.08,1.27,1.69.41,3.04.59,6.11.97,9.15.25,2.01.73,3.99,1.09,5.98.08.42.26.88.15,1.25-2.49,8.49-1.85,17.3-2.75,25.95-.31,3.01-.95,5.98-1.4,8.97-.13.85-.42,1.88-.08,2.55,1.66,3.35,1.21,6.79.97,10.31-.11,1.65.59,3.35.93,5.03.15.73.46,1.48.4,2.19-.41,4.65-.85,9.29-1.28,13.93,1.68-.13,3.36-.25,5.04-.36-.06-9.39-.01-18.79-.15-28.18-.26-17.41,2.08-34.83-.34-52.24-.22-1.57.39-3.24.51-4.87,1.07-14,.79-27.97-.37-41.96-.58-6.96-.26-13.99-.25-20.99,0-1.17.34-2.41.78-3.51.97-2.41,3.76-3.67,6.6-3.1,2.7.55,2.5,2.78,2.49,4.69-.02,8.66-.44,17.34,1.68,25.86.62,2.5-.42,4.08-2.79,5.21-3.88,1.86-4.15,2.63-3.4,7.14,1.11-1.03,1.87-1.79,2.69-2.5,3.39-2.93,7.14-3.2,11.22-.84,3.02,1.75,4.4,5.42,3.55,9.5-.87,4.23-3.98,7.17-8.01,7.6-.98.1-1.95.21-2.92.38-1.8.32-2.19,1.04-1.99,3.14.57,5.96.52,11.98.68,17.97.05,2.04,0,4.09,0,6.13.49,0,.98,0,1.47.01.06-6.13.33-12.27.11-18.39-.18-4.98-.51-5.54,4.43-6.12,8.56-1,13.8-14.6,6.87-20.94-2.09-1.92-4.95-3.11-7.62-4.24-1.64-.69-2.53-1.31-2.48-3.23.2-8,.13-16.01.44-24.01.29-7.47,1.08-8.03,8.47-7.5,1.2.08,2.4.22,3.59.42,2.57.44,4.24,1.69,4.09,4.61-.03.58.25,1.18.98,1.81.2-.89.46-1.77.58-2.67.27-2.06,1.06-3.66,3.42-3.65,2.22,0,4.19.66,4.86,3.1.4,1.47.79,3.01.82,4.52.19,9.75.17,19.49.42,29.24.22,8.75.86,17.49,1.03,26.25.33,17.87.47,35.74.68,53.61.14,11.87.25,23.73.37,35.6,1.55-.06,3.11-.11,4.66-.17-.57-5.31-1.07-10.62-1.36-15.94-.52-9.62-.62-19.27-.71-28.91-.05-4.82.52-9.64.47-14.46-.09-7.13-.6-14.25-.72-21.38-.21-12.69-.19-25.38-.41-38.07-.13-7.34-.52-14.68-.8-22.02-.06-1.64-.17-3.28-.25-4.93-.27-5.52,1.48-7.39,6.68-5.8,2.78.85,5.73,1.23,8.63,1.61.89.12,1.88-.41,2.8-.7,6.38-1.98,9.68-.17,10.19,6.4.68,8.73.74,17.5,1.13,26.25.16,3.49.41,6.98.81,10.45.07.58,1.13,1.03,1.74,1.55.37-.57,1.08-1.15,1.07-1.72-.09-5.25-.37-10.5-.48-15.76-.15-7.35-.3-14.7-.18-22.04.03-1.74,1.32-4.99,1.73-4.94,2.67.31,5.28,1.26,7.84,2.19.53.19.77,1.19,1.21,1.92,3.99-6.71,6.67-5.9,10.06,2.46.3-1.71.26-2.9.73-3.82.49-.95,1.45-2.23,2.26-2.27.8-.04,2.22,1.18,2.39,2.05.63,3.1.91,6.28,1.2,9.44.52,5.66,1.19,11.32,1.34,16.99.12,4.69-.67,9.4-.63,14.09.06,6.67.58,13.34.78,20.01.37,12.48.69,24.95.97,37.43.17,7.53.17,15.06.33,22.59.06,2.82-1.22,4.38-3.95,4.67-3.27.34-6.57.41-9.82.85-2.47.34-4.92.95-7.28,1.74-.62.21-.87,1.53-1.29,2.33.73.37,1.43.85,2.2,1.07,1.22.34,2.49.5,3.74.74-1.16.63-2.35,1.21-3.47,1.92-.64.41-1.16,1.02-1.73,1.53.69.44,1.35,1.19,2.08,1.26,4.47.42,8.96.75,13.44.99,4.72.25,5.72,1.3,5.61,6.04-.02.71,0,1.42,0,2.13,1.21-.05,2.43-.11,3.64-.16-.17-1.38-.33-2.75-.46-4.13-.27-2.76,1.14-4.16,4.21-3.97,5.24.33,10.5.34,15.75.5,3.21.1,4.63,1.41,4.77,4.62.02.54.03,1.08.04,1.61,1.82-.12,3.65-.26,5.47-.39-.03-.65-.1-1.3-.12-1.95-.02-.72,1.29-1.46,1.92-2.25.93-1.18,2.5-2.37,2.56-3.62.3-5.79.42-11.58-2.93-16.87-1.03-1.63-1.38-3.98-1.32-5.97.17-5.57,1.11-11.14,1.04-16.7-.12-9.31-.87-18.6-1.21-27.91-.33-9.19-.57-18.39-.68-27.59-.22-19.83-.23-39.67-.55-59.49-.09-5.79-1.25-11.57-1.39-17.36-.24-10.06.03-20.14-.07-30.2-.12-11.6-.47-23.19-.6-34.78-.03-3.05.25-6.13.68-9.16.4-2.81,1.41-3.09,3.75-1.66,3.84,2.35,6.12,5.33,5.57,10.22-.3,2.6.34,5.31.56,7.97.27,0,.53,0,.8,0,.62-2.49,1.16-5.01,1.92-7.46.26-.82,1.09-1.46,1.67-2.18.67.64,1.69,1.17,1.95,1.95,1.17,3.52,3.26,6.09,6.64,7.73,2.4,1.17,2.13,3.6,2.2,5.79.51,15.66,1.13,31.32,1.52,46.98.3,12.03.28,24.07.46,36.11.1,6.57.32,13.14.46,19.72.38,17.93.83,35.87,1.09,53.8.2,14.23.16,28.47.22,42.71.04,9.93.08,19.86.1,29.79,1.4-.15,2.79-.3,4.19-.47-.1-1.89-.18-3.78-.2-5.67-.29-23.12-.33-46.25-.77-69.37-.27-13.89-1.25-27.77-1.64-41.66-.41-14.66-.5-29.34-.7-44.01-.25-18.3-.53-36.59-.66-54.89-.02-2.7.57-5.44,1.16-8.09.19-.85,1.29-2.08,2-2.09.82-.01,2.2.98,2.4,1.77.52,2.08.5,4.29.77,6.44.26,2.1.61,4.18.92,6.28.78-1.88,1.76-3.71,2.28-5.66.48-1.84,1.01-2.35,2.91-1.51,2.59,1.15,4.13,2.76,4.04,5.71-.07,2.3-.13,4.6-.06,6.9.02.64.53,1.27.82,1.91.46-.55.98-1.07,1.36-1.67.22-.35.11-.9.32-1.26.6-1.05,1.28-2.06,1.93-3.09,1.03.73,2.55,1.24,3,2.24.88,1.93,1.52,4.11,1.63,6.21.25,4.92-.27,9.9.27,14.77.71,6.51,2.16,12.94,3.24,19.42.79,4.75.51,9.26-1.93,13.68-1.67,3.03-2.6,6.51-3.55,9.87-.35,1.24-.29,3.02.37,4.06,2.05,3.26,1.52,6.67,1.48,10.19-.03,2.72.77,5.47,1.31,8.18.19.95,1.03,1.84,1.01,2.75-.12,6.73,1.39,13.37-.13,20.25-1,4.52-.02,9.54.46,14.3.27,2.65.49,4.9-1.78,6.88-.78.68-1.25,2.15-1.2,3.23.1,2.05.19,4.35,1.16,6.06,3.94,6.97,3.53,14.26,2.17,21.68-.21,1.16-.89,2.23-1.14,3.39-.77,3.56-1.44,7.13-2.14,10.7.39.11.78.22,1.16.33,2.95-2.06,4.08-1.57,4.43,2.11.62,6.51,1.08,13.02.97,19.54,1.16-1.29,2.31-2.63,3.46-3.91-.24-2.5-.53-5-.86-7.48-.63-4.75-1.48-9.48-1.97-14.25ZM300.47,19.92c9.24-2.15,18.52-4.15,27.82-6.03.92-.19,2.64.54,3.04,1.33,1.22,2.39,2.55,2.06,4.5,1.04,2.26-1.18,4.64-2.29,7.09-2.97,8.1-2.22,16.24-4.27,24.4-6.26.81-.2,1.86.54,2.79.85-.43.91-.64,2.32-1.34,2.63-2.27,1.01-4.68,1.81-7.11,2.35-7.15,1.59-14.38,2.81-21.49,4.55-13.95,3.42-28.16,5.01-42.41,6.41-.83.08-1.68-.11-2.53-.17l-.44-1.26c1.88-.85,3.69-2.03,5.66-2.49ZM234.83,47.02c2.51-2.43,5.01-4.88,7.7-7.08,1.58-1.29,3.48-2.23,5.32-3.14,1.55-.77,3.21-1.35,4.87-1.88.78-.25,2.3-.43,2.39-.22,1.28,3.27,2.05.48,3.18-.1,2.07-1.05,4.23-2.08,6.47-2.62,2.1-.51,4.47.02,6.5-.61,2.86-.89,5.52-2.42,8.34-3.71q-.21,3.1,4.65,1.8c.17.24.34.48.51.71-1.96,1.3-3.97,2.54-5.87,3.92-1.5,1.09-4.49.83-3.84,4.02,0,.05-.85.26-1.3.41-.88.29-2.14.35-2.54.96-.58.88-.53,2.17-.75,3.29.93-.03,2.12.31,2.75-.14,2.58-1.82,5.2-3.67,7.4-5.91,2.84-2.91,5.69-4.76,10.07-5.23,5.82-.63,11.46-2.82,17.22-4.11,2-.45,4.15-.19,6.23-.26-1.18,1.41-2.28,2.91-3.57,4.21-2.53,2.54-5.16,4.96-7.76,7.43.23.3.45.6.68.9,1.74-1.04,3.51-2.04,5.22-3.13,5.07-3.21,10.02-6.63,15.21-9.64,4.06-2.35,5.74-1.22,6.05,3.48.03.52.15,1.04.96,1.72.18-.8.54-1.62.5-2.41-.16-2.73,1.05-4.53,3.63-5.11,7.36-1.65,14.75-3.16,22.14-4.7.24-.05.55.23.9.39-.13.36-.15.75-.35.93-3.93,3.46-7.77,7.04-11.88,10.27-1.58,1.24-2.85,4.03-5.79,2.42-.16-.09-.71.74-1.16.95-2.2,1.02-4.38,2.65-6.67,2.84-9.94.84-19.82,1.58-29.34,5.09-3.19,1.18-6.94.89-10.44,1.12-7.53.5-15.1.65-22.6,1.45-4.42.47-8.72,1.97-13.1,2.89-6.54,1.39-13.07,2.84-19.67,3.92-1.99.33-4.17-.5-6.26-.79,1.33-1.45,2.58-2.98,4-4.35ZM105.44,100.59c6.17-3.49,12.44-6.83,18.81-9.96,1.21-.6,3.01.08,4.52-.01,2.09-.12,4.17-.47,6.26-.6.7-.04,1.42.37,2.13.4.91.04,2.17.26,2.7-.22,3.79-3.48,8.46-3.65,13.19-4.05,7.3-.62,14.56-1.59,21.84-2.39.84-.09,1.71-.01,3.36-.01-1.67,1.41-2.7,2.29-3.74,3.17.1.16.21.31.31.47,1.78-.97,3.67-1.79,5.32-2.95,4.52-3.15,9.56-4.09,14.95-4.11,7.32-.03,14.66-.6,21.95-.25,4.03.2,7.65-.55,11.5-1.34,6.84-1.41,13.87-1.86,20.81-2.73,1.4-.18,2.78-.55,4.18-.66.89-.07,1.81.18,2.72.29-.43.89-.64,2.09-1.34,2.61-2.81,2.07-5.86,3.83-8.68,5.89-3.94,2.88-7.73,5.97-11.64,8.9-1.28.96-2.63,2.03-4.12,2.44-2.19.6-4.53.74-6.82.93-5.99.49-11.99.94-18,1.3-1.09.06-2.21-.39-3.32-.6.5-1.01.76-2.29,1.55-2.98,3.3-2.88,6.75-5.58,10.15-8.34.92-.75,1.85-1.47,2.78-2.2-.14-.26-.28-.52-.43-.78-3.69,1.87-7.51,3.54-11.05,5.68-2.98,1.8-5.89,3.88-8.37,6.31-2.37,2.32-4.94,3.41-8.13,3.7-3.05.28-6.08.8-9.11,1.3-4.18.7-5.09-.22-4.05-4.25.13-.52.26-1.04.02-1.77-.33.56-.86,1.1-.94,1.69-.58,3.91-3.1,5.19-6.71,5.3-2.08.07-4.14.55-6.21.59-1.19.02-2.39-.5-3.58-.77.55-1.13.83-2.54,1.69-3.33,2.18-1.98,4.61-3.69,6.94-5.5.8-.62,1.61-1.23,2.42-1.84-.26-.38-.52-.77-.78-1.15-2.74,1.77-5.55,3.45-8.2,5.35-2.22,1.58-4.05,3.83-6.43,5.04-2.96,1.5-6.25,2.84-9.5,3.17-6.39.65-12.87.85-19.29.66-5.23-.16-10.36-.57-15.27,1.76-.76.36-1.75.55-2.57.41-1.08-.18-2.87-.64-2.96-1.2-.17-1.06.31-2.89,1.12-3.35ZM273.99,70.06c5.65-2.8,12.32-3.55,18.08-5.11,2,.59,3.3.96,4.6,1.34-.96.94-1.85,1.96-2.89,2.81-5.91,4.85-11.65,9.93-17.85,14.38-5.3,3.81-10.79,7.83-16.82,9.97-5.39,1.91-11.65,1.42-17.53,1.87-.58.04-1.65-.63-1.73-1.11-.13-.72.17-1.83.71-2.31,2.44-2.2,4.83-4.53,7.58-6.28,8.5-5.4,16.86-11.12,25.84-15.58ZM91.59,119.05c-1.27.77-2.73,1.76-3.32,3.01-1.36,2.93-3.59,3.57-6.44,3.47-1.62-.22-3.28-.3-4.85-.7-.83-.21-1.51-.99-2.26-1.51.54-.76.92-1.81,1.66-2.22,3.42-1.93,6.96-3.64,10.41-5.52,3.62-1.96,7-4.66,11.55-3.31.78.23,1.52.62,2.28.93-.6.66-1.1,1.52-1.83,1.95-2.36,1.37-4.87,2.48-7.2,3.9ZM99.53,226.15c-1.18-1.44-2.91-2.72-3.37-4.36-.46-1.63.26-3.65.64-5.46.1-.5.82-1.2,1.25-1.2.47,0,1.22.64,1.35,1.14.58,2.2.98,4.45,1.53,7.06-.42.85-.9,1.83-1.39,2.82ZM120.18,257.5c-2.2,1.65-2.69.45-2.95-1.35-.42-2.92-.37-5.95-1.13-8.77-.9-3.34-1.78-6.38.77-9.43.58-.7.43-2.09.45-3.16.18-12.45.41-24.9.46-37.36.03-8.41-.38-16.82-.25-25.23.08-5.44.86-10.86,1.17-16.3.17-2.83-.01-5.69.03-8.53,0-.7.27-1.4.42-2.1.59.53,1.52.96,1.72,1.62.75,2.35,1.69,4.77,1.77,7.19.37,10.72.6,21.45.62,32.17.02,9.83-.37,19.66-.39,29.49-.01,6.46.35,12.91.45,19.37.03,1.85.2,3.92-.51,5.51-2.65,5.89-2.02,11.23,1.91,15.89-1.76.34-3.49.2-4.53.98ZM101.55,125.61c-1.43-.25-2.69-1.52-4.03-2.32.76-1.26,1.31-2.72,2.31-3.73,2.51-2.52,5.39-4.68,7.82-7.26,2.66-2.82,5.92-2.64,9.29-2.71,1.67-.04,3.39-.35,4.98-.88,1.98-.66,3.32-.94,2.03,2.93,6.01-5.84,12.42-5.06,19.14-3.74-2.73,1.7-5.51,3.33-8.19,5.11-2.82,1.87-5.71,3.69-8.3,5.86-7.34,6.16-15.7,8.37-25.05,6.75ZM142.26,312.34c.01.66-.27,1.33-.42,1.99-.68-.23-1.64-.26-2-.73-.75-1-1.6-2.22-1.65-3.39-.13-2.59.16-5.2.39-7.79.05-.55.58-1.05.89-1.57.51.34,1.34.58,1.48,1.03.65,2,1.1,4.07,1.63,6.11-.21.05-.42.1-.63.14.11,1.4.29,2.8.31,4.2ZM141.71,283.48c-.94.58-1.21,2.25-1.87,3.61-.25-.35-.79-.75-.8-1.15-.14-5.32-.24-10.65-.23-15.97,0-.8.51-1.7,1.04-2.35.43-.52,1.3-1.07,1.86-.98.52.09,1.17.97,1.28,1.6.55,3.01,1,6.03,1.36,9.07.3,2.52-.15,4.66-2.64,6.19ZM145.99,234.1c2.25,2.66.13,5.13-.06,7.67-.08,1.14.05,2.31.16,3.46.05.51.49,1.06.39,1.5-.61,2.62-1.23,5.26-2.08,7.81-.26.79-1.21,1.83-1.88,1.86-.68.03-1.84-.93-2.05-1.66-.64-2.31-.92-4.71-1.34-7.08.13,0,.27-.02.4-.02.28-11.61.08-23.26,1-34.81.79-9.95.18-19.84.42-29.76.18-7.54.53-15.08.76-22.62.16-5.13.14-10.27.44-15.38.06-.97,1.25-1.88,1.91-2.82.7.98,2.15,2.12,1.99,2.92-1.78,8.63,1.9,16.9,1.47,25.4-.13,2.51-.6,5.01-.68,7.53-.12,3.82-.07,7.65-.04,11.48,0,1.2.19,2.4.25,3.61.27,4.98.53,9.96.8,14.94.03.55.15,1.1.1,1.64-.6,7.26-1.22,14.51-1.83,21.77-.07.87-.53,2.08-.13,2.56ZM157.96,123.33c-2.86,2.61-8.75,1.47-10.66-1.93-1.23-2.19-2.06-2.18-3.46-.24-1.73,2.4-10.85,4.37-13.22,2.71-.69-.48-.86-2.13-.73-3.18.09-.68,1.1-1.31,1.8-1.83,4.74-3.47,9.25-7.39,14.36-10.19,3.81-2.09,8.43-2.7,12.69-3.97.09.4.17.8.26,1.19,4.29-.59,8.58-1.24,12.88-1.75,2.05-.25,4.16-.44,6.2-.24.83.08,1.9,1.15,2.2,2.01.19.55-.65,1.88-1.35,2.24-7.75,4.02-14.53,9.31-20.96,15.17ZM169.89,188.38c-.18,1.26-.39,2.54-.37,3.8.09,5.1.36,10.19.34,15.28,0,.78-1.16,1.55-1.78,2.33-.64-.76-1.89-1.56-1.83-2.27.7-8.73-3.07-17.3-.82-26.11.5-1.94.02-4.13.01-6.21,0-6.78,0-13.56,0-20.33.23,0,.47,0,.7,0,0-2.85-.13-5.7.07-8.53.06-.88,1.01-1.7,1.55-2.55.73.81,2.03,1.59,2.08,2.44.32,5.11.31,10.24.48,15.36.21,6.4.64,12.8.69,19.2.02,2.52-.75,5.05-1.12,7.58ZM171.92,121.24c-1.06-.07-2.61-.63-2.94-1.39-.33-.76.25-2.45.99-3.08,3.49-2.97,7.38-5.49,10.73-8.6,7.88-7.33,18.09-5.27,27.31-7.03,3.94-.75,8.06-.59,12.1-.67.81-.02,1.63.77,2.44,1.18-.55.73-.95,1.83-1.68,2.14-9.61,4.03-17.55,10.53-25.58,16.94-1.07.85-2.76.93-4.58,1.5-6.11-.3-12.45-.56-18.79-.99ZM196.62,262.96c-.72.16-1.72,1.26-1.74,1.96-.41,13.8-1.12,27.61-.73,41.4.1,3.58,1.06,6.62-.62,10.34-1.32,2.91-.45,6.81-.57,10.27-.11,3.27-.01,6.57-.46,9.8-.16,1.16-1.65,2.13-2.53,3.19-.55-1.19-1.56-2.37-1.58-3.57-.08-4.96-1.51-9.99,1.1-14.86.64-1.2-.33-3.2-.34-4.83-.06-12.03-.08-24.06-.09-36.09-.01-14.89-.12-29.79.05-44.68.06-5.21.91-10.4,1.21-15.61.2-3.49.08-7,.08-10.51,0-9.85,0-19.7.02-29.55,0-3.84.44-7.72-.04-11.5-.46-3.66-.06-6.96.96-10.47.77-2.65.27-5.66.43-8.5.07-1.19.22-2.43.63-3.54.25-.68,1.06-1.16,1.62-1.73.44.57,1.12,1.08,1.27,1.72.36,1.48.61,3.02.64,4.54.08,4.81.03,9.62.03,14.43-.12,0-.25,0-.37,0,.31,9.84.88,19.67.84,29.51-.04,7.31-.66,14.64-1.44,21.91-.51,4.75-1.81,9.42-2.67,14.14-.15.81-.09,1.9.34,2.54,3.11,4.65,2.02,9.94,2.42,14.99.23,2.84.13,5.71.5,8.53.16,1.24.96,2.51,1.77,3.54,1.07,1.37,1.5,2.14-.72,2.64ZM219.62,321.16c-.24,1.43-.1,2.92-.09,4.38.02,5.67.1,11.34,0,17.01-.01.58-1.07,1.6-1.64,1.6-.82,0-2.04-.57-2.36-1.24-.53-1.13-.75-2.55-.65-3.81.78-9.74-.06-19.42-1.04-29.1-.22-2.17-.63-4.37-.51-6.52.08-1.52,1.24-2.97,1.34-4.49.16-2.61-.18-5.24-.21-7.87,0-.7.38-1.4.58-2.1.69.21,1.47.28,2.07.66,3.63,2.29,4.02,5.74,2.92,10.74.39,1.76,1,4.57,1.63,7.38.07.31.35.63.3.91-.77,4.15-1.64,8.29-2.34,12.45ZM218.11,173.83c2.9-.08,3.11,2.68,3.07,4.89-.12,7.32-.35,14.65-.56,21.97-.17,5.91-.34,11.82-.62,17.72-.1,2.06-.46,4.12-.92,6.14-.16.7-.99,1.25-1.52,1.88-.64-.54-1.78-1.05-1.83-1.64-.23-3.1-.29-6.22-.18-9.33.1-2.67.87-5.35.69-7.99-.31-4.56-1.21-9.07-1.67-13.62-.11-1.09.85-2.28.8-3.4-.12-2.48-.57-4.93-.9-7.59,2.15-.21,1.57-2.57,1.8-4.55.2-1.69-.86-4.41,1.85-4.49ZM215.29,273.95c0-9.4-.05-18.8.07-28.2.01-1.18.92-2.34,1.42-3.52.98.96,2.63,1.79,2.83,2.89.63,3.53.86,7.15.98,10.74.29,8.26.45,16.53.63,24.8.02,1.09-.01,2.25-.38,3.25-.37,1-1.18,1.84-1.8,2.75-.91-.95-2.49-1.83-2.59-2.87-.34-3.25-.12-6.55-.12-9.84-.34,0-.68,0-1.02,0ZM221.24,170.96c-3.69-2.69-5.18-5.47-4.38-9.81.64-3.46-.16-7.16.01-10.73.07-1.5.99-2.96,1.52-4.43.63,1.39,1.65,2.73,1.82,4.18.43,3.65.48,7.35.69,11.03.03.54-.08,1.31.23,1.58,2.85,2.58.71,5.13.11,8.19ZM217.12,120.63c-.04-.25-.07-.49-.11-.74-2.52,0-5.05.19-7.55-.05-2.75-.26-3.5-2.09-1.89-4.37.68-.97,1.58-1.87,2.57-2.5,6.19-3.94,12.3-8.03,18.73-11.56,3.27-1.79,7.01-3.27,10.97-.95.68.4,2.01-.39,3.06-.53,2.13-.28,4.3-.82,6.41-.64,2.06.18,2.53,1.55.95,3.19-.08.08-.16.15-.25.21-7.46,5.38-14.7,11.11-22.48,15.96-2.79,1.74-6.89,1.38-10.4,1.99ZM245.21,276.46c.22-.76,1.27-1.29,1.94-1.92.57.71,1.48,1.35,1.64,2.15.51,2.46.73,4.98,1.06,7.47-.25,1.78-.33,3.55-.79,5.22-.22.81-1.08,1.88-1.79,2-.66.11-1.92-.72-2.19-1.42-.73-1.86-1.53-3.88-1.46-5.81.09-2.58.86-5.17,1.59-7.68ZM368.22,149.13c-2.33,1.28-4.76,3.4-5.83,5.74-3.11,6.82-2.76,16.64,3.93,21.22,2.17,1.49,1.9,3.74-.43,5.02-1.56.85-3.45,1.08-4.5,1.39-10.64-1.22-17.86-5.98-21.99-15.07-4.02-8.86-2.23-17.5,3.54-24.37,7.66-9.12,19.34-9.96,26.91.81,2.1,2.99,1.48,3.56-1.63,5.27ZM388.66,90.29c0,3.84,0,7.67,0,11.51,0,5.45-.48,5.03-5.6,5.93-6.27,1.1-12.22.14-18.33-.37-3.98-.33-4.79-.53-5.2-4.61-1.78-17.49-2.09-35-.86-52.54.21-2.95.33-5.92.86-8.82.49-2.7,1.81-4.77,4.98-5.39,1.44-.28,2.62-1.83,3.97-2.72.79-.52,1.67-.9,2.52-1.34.36.84.79,1.66,1.07,2.52.31.93.48,1.89.79,3.16.91-2.62,1.6-4.97,2.58-7.19.33-.75,1.38-1.18,2.1-1.76.45.69.91,1.38,1.35,2.07.39.62.76,1.24,1.14,1.86.55-.61,1.17-1.17,1.62-1.84.36-.53.49-1.22.79-1.8,1.14-2.2,2.78-2.4,3.76-.14,1.19,2.75,2.26,5.77,2.37,8.71.21,5.46-.38,10.95-.52,16.42-.05,2.11-.52,4.55,2.23,5.61.32-1.91.87-3.81.91-5.73.15-6.12,0-12.25.2-18.37.08-2.63,2.19-3.4,4.47-1.9,2.8,1.84,5.81,3.43,8.31,5.61,1.3,1.13,2.01,3.24,2.39,5.04.47,2.27.34,4.67.46,7.02.23.01.45.02.68.04.39-1.34.67-2.73,1.22-4.01.44-1.03,1.4-2.78,1.8-2.69,1.24.26,2.71,1,3.42,2.01,3.94,5.67,5.41,11.97,5.25,18.95-.3,12.7-.13,25.41.05,38.11.06,4.58-.6,5.6-5.25,5.53-5.04-.07-10.09-.07-15.11-.39-5.25-.33-6.54-1.93-7.38-7.02-.63-3.85-1.76-7.62-3.03-11.48ZM420.92,153.27c-3.21-.49-4.88,1.41-5.89,3.67-1.32,2.94-1.98,6.18-2.57,8.11.53,6.4,1.77,11.02,6.08,14.33,1.9,1.46,1.62,3.7-.82,4.49-2.31.75-5.06,1.26-7.35.73-9.13-2.13-15.35-8.01-18.13-16.82-1.06-3.35-.71-7.43,0-10.97.73-3.68,2.28-7.35,4.17-10.62,3.28-5.69,12.18-7.88,18.03-4.89,3.81,1.95,6.94,4.62,8.75,8.57,1.13,2.46.32,3.79-2.26,3.4ZM420.07,89.86c-.16-2.16,1.2-4.42,1.81-6.65.37-1.34.85-2.71.88-4.07.12-4.38.02-8.77.07-13.16.02-1.31,0-2.71.45-3.89.42-1.09,1.5-2.75,2.21-2.71,1.32.07,2.75,1.01,3.8,1.96.6.55.68,1.82.73,2.78.12,1.98.61,2.39,2.61,1.47,3.15-1.45,5.55.28,5.88,3.77.16,1.74.42,3.48.67,5.21.04.29.28.56.48.93.32-.15.71-.21.84-.42,2.22-3.8,4.01-3.92,6.3-.04,1.01,1.71,1.6,3.9,1.64,5.89.16,7.88.05,15.76-.03,23.64-.01,1.18-.15,2.57-.79,3.46-.67.92-2.07,1.9-3.07,1.82-.87-.07-1.68-1.54-2.39-2.48-.26-.35-.16-.97-.3-2.05-1.36,5.72-2.88,6.59-8.22,5.85-2.35-.33-4.79-.1-7.18-.06-1.92.03-3.66-.33-3.98-2.53-.91-6.22-1.93-12.45-2.4-18.71ZM450.49,301.37c-.04,5.77-.35,11.56-.89,17.3-.1,1.06-1.76,2.71-2.84,2.83-5.77.65-11.57,1.06-17.38,1.24-3.33.1-4.56-1.25-4.56-4.66,0-7.56.53-15.13.25-22.68-.63-16.64-1.67-33.26-2.43-49.89-.22-4.7-.02-9.42-.04-14.13-.03-9.32-.09-18.64-.09-27.96,0-1.64-.16-3.41.41-4.87.46-1.17,1.93-2.77,2.89-2.73,1.31.06,3.12,1.21,3.71,2.4.83,1.68.75,3.81,1.05,5.75,1.35-3.21-.95-8.54,5.58-8.41,5.05.09,1.51,5.01,4.22,6.94.34-1.28.72-2.44.96-3.63.34-1.64.5-3.44,2.76-3.43,2.25.01,3.8,1.14,4.18,3.42.38,2.27.7,4.57.78,6.86.52,16.31,1.14,32.62,1.39,48.94.24,15.56.14,31.14.05,46.7ZM494.18,104.4c-.76-.62-1.67-1.17-2.2-1.96-4.51-6.7-11.42-10.8-17.22-16.1-2.17-1.98-3.92-4.42-6.01-6.5-10.12-10.01-20-20.3-30.55-29.85-9.53-8.64-19.78-16.5-29.78-24.63-3.47-2.82-7.24-5.26-10.64-8.16-2.2-1.87-4.35-4.02-5.83-6.47-1.46-2.42-2.77-2.92-4.9-1.24-8.51,6.73-16.91,13.58-25.51,20.19-7.37,5.67-14.95,11.05-22.41,16.59-1.76,1.3-3.44,2.71-5.16,4.07,2.96,1.42,3.86,3.19,2.2,5.21-1.24,1.51-1.74,2.33.28,3.39.48.25.68,1.03,1.58,2.49-.69-6.1,3.31-9.27,6.7-10.22,3.46-.97,4.45-3.57,6.72-5.16,1.84-1.29,2.51-1.18,2.88,1.23,2.39,15.57,1.91,31.25,2,46.91.01,2.41.11,4.83.04,7.23-.13,4.1-2.35,6.18-6.34,5.58-4.65-.7-9.15-.99-13.87.03-5.15,1.12-7.37-.8-8.06-6.02-.78-5.87-1.46-11.75-1.94-17.65-.17-2.14.47-4.33.57-6.5.11-2.41.03-4.83.03-7.24-.49,0-.97,0-1.46,0,0,4.18.03,8.37,0,12.55-.07,7.01-.1,14.02-.3,21.02-.11,3.68-1.09,4.39-4.71,4.05-7.99-.74-8.01-.74-7.83-8.72.14-6.35.16-12.72.57-19.05.4-6.16,3.07-11.06,9.56-12.48,3.6-.79,3.94-4.4,6.38-6.1.68-.48.93-1.58,1.62-2.04,3.13-2.07,4.03-4.95,3.41-8.49-7.77,5.67-15.66,11.17-23.26,17.05-6.75,5.22-12.8,11.42-19.87,16.12-4.64,3.09-9.08,6.17-13.08,10.06-2.49,2.43-5.53,4.28-8.37,6.35-7.71,5.6-15.42,11.19-23.16,16.74-1.15.82-2.41,1.63-3.74,2.04-1.19.36-2.56.17-3.85.22.11-1.63-.31-3.59.45-4.82.98-1.59,2.86-2.66,4.42-3.85,13.04-9.98,26.03-20.02,39.18-29.85,4.02-3.01,8.5-5.39,12.7-8.18,1.41-.94,2.65-2.18,3.86-3.39,2.62-2.62,5.17-5.3,7.75-7.96,0,0-.02.01-.02.02,0,0,0-.01.01-.02-1.37-.1-2.77-.43-4.11-.25-5.53.74-11.03,1.8-16.57,2.37-1.59.16-3.31-.93-4.97-1.46,0,0-.02.02-.02.02,0,0,0-.01,0-.02-4.34,1.71-8.69,3.4-13.02,5.14-.34.14-.73.57-.79.92-.34,2.26-.46,2.38-2.46,2.23-1.17-.08-2.68-.55-3.48-.02-6.09,4.04-12.96,1.68-19.41,2.57-.64.09-1.88-.34-1.95-.69-.13-.72.11-1.79.62-2.3,2-2.03,4.17-3.88,6.26-5.82.46-.43.82-.96,1.23-1.44-.16-.23-.32-.46-.48-.69-1.22.86-2.66,1.52-3.61,2.61-4.47,5.15-10.19,7.88-16.8,8.85-9.33,1.36-18.68,2.61-28.03,3.81-.97.12-2.01-.33-3.01-.52.57-.72,1.2-1.42,1.71-2.18,4.18-6.19,10.79-9.33,16.96-12.68,4.89-2.65,10.22-5.72,16.47-3.47,1.09.39,2.56-.25,3.85-.43,4.55-.62,9.11-1.19,13.65-1.9,1.8-.28,3.56-.82,5.33-1.29.41-.11.84-.6,1.17-.53,6.22,1.38,11.02-3.39,16.83-3.81,5.23-.37,10.45-.95,15.69-1.3,1.61-.11,2.31.97,1.34,2.35-1.05,1.49-2.32,2.87-3.68,4.09-2.02,1.82-4.56,3.2-4.39,6.47,0,0,0,0,.01,0,0,0,0,0,.01,0,1.3-1.29,2.57-2.6,3.9-3.85,2.6-2.44,5.02-5.16,7.93-7.16,2.63-1.8,5.7-3.3,8.78-4.03,6.6-1.56,13.33-2.55,20.01-3.76.43-.08.91-.23,1.3-.11.67.21,1.46.46,1.86.97.19.24-.24,1.3-.67,1.65-1.95,1.59-3.98,3.08-6.02,4.55-1.77,1.28-4.56,1.27-4.5,4.72.02.99-2.66,1.94-3.96,3.07-1.1.97-2,2.18-2.98,3.29,0,0,0,0,0,0,0,0,0,0,0,0,5.38-3.73,10.93-7.24,16.08-11.25,4.78-3.71,9.53-7.25,15.11-9.78,2.99-1.35,5.39-4.03,8.02-6.16,10.91-8.81,21.73-17.73,32.75-26.4,2.26-1.78,5.12-2.96,7.89-3.87,3.81-1.26,5.5-.1,6.85,3.8.18.53.75,1.16,1.26,1.3,7.26,1.93,11.75,7.84,17.36,12.1,4.27,3.24,8.17,6.94,12.25,10.43.5.43,1.15.73,1.53,1.24,5.56,7.39,13.22,12.44,20.61,17.6,7.15,4.99,12.09,11.96,18.14,17.92,7.96,7.84,16.34,15.24,24.51,22.87,1.19,1.11,2.42,2.26,3.29,3.61,4.24,6.6,10.1,11.23,16.62,15.55,6.61,4.37,12.39,10.01,18.44,15.2,3.23,2.78,6.28,5.77,9.39,8.7,1.63,1.54,4.41,3.25,2.72,5.56-1.79,2.43-4.06-.11-5.56-1.36-6.99-5.8-13.76-11.88-20.71-17.73-6.37-5.36-12.9-10.54-19.35-15.8Z"/><path d="M327.29,300.63c-.12-2.82-.15-5.65-.28-8.47-.02-.38-.36-.74-.56-1.11-.31,0-.63,0-.94,0-.17,3.26-.5,6.52-.5,9.78-.02,15.46.04,30.92.08,46.38,1.53-.09,3.06-.18,4.59-.26-.39-5.04-.73-10.08-1-15.13-.55-10.39-.95-20.79-1.4-31.18Z"/><path d="M254.51,341.41c-.22,4.45-.79,8.93-.54,13.36.54-.09,1.08-.18,1.63-.27-.26-4.35-.42-8.71-1.09-13.08Z"/><path d="M288.85,338.89c-.12-.62-.82-1.12-1.25-1.68-.27.65-.77,1.3-.77,1.96,0,3.7.1,7.41.19,11.11.79-.08,1.57-.16,2.36-.24-.08-2.41-.13-4.82-.23-7.23-.06-1.31-.03-2.65-.28-3.92Z"/><path d="M265.33,352.96c-.59-3.28-1.05-6.62-1.9-9.98-.18,3.2-.37,6.4-.55,9.6-.01.25-.01.5-.02.75.64-.1,1.28-.2,1.91-.3.18-.03.37-.05.55-.07Z"/><path d="M393.64,300.08c-.06-3.15.15-6.3.23-9.45.14-5.25.69-10.54.3-15.76-.54-7.21-.12-14.53-1.38-21.57-.53-2.97-.18-5.92-.88-8.79-.18-.72-.41-1.43-.62-2.14-.64.74-1.77,1.44-1.83,2.23-.22,2.72-.49,5.55,0,8.2,1.05,5.61.69,11.17.6,16.82-.2,12.16.4,24.33.39,36.5-.01,12.84-.23,25.67-.5,38.51,1.58-.05,3.16-.1,4.75-.15-.35-8.68-.3-17.39-.51-26.08-.14-6.1-.45-12.19-.56-18.29Z"/><path d="M511.92,338.46c-.22,1.83.15,3.72.05,5.58-.07,1.39-.24,2.85-.77,4.11-.32.75-1.37,1.48-2.19,1.6-.48.07-1.38-.95-1.68-1.66-.72-1.71-1.12-3.55-1.8-5.28-.32-.81-.99-1.49-1.5-2.22-.28.78-.74,1.55-.81,2.35-.14,1.63-.03,3.29-.12,4.93-.06,1.09-.03,2.29-.49,3.21-.43.85-1.45,1.91-2.24,1.93-.69.02-1.87-1.17-2.06-2-.73-3.2-1.16-6.47-1.7-9.71-.17-1.01-.32-2.03-1.15-3.04-.29,2.13-.55,4.27-.9,6.39-.23,1.4-.51,2.8-.91,4.16-.66,2.24-2.32,3.08-4.55,2.9-2.39-.19-3.5-1.69-3.65-3.92-.19-3.03-.41-6.07-.56-9.1-1.4.16-2.79.31-4.19.47,0,1.67.02,3.34.02,5.01,0,1.74-.02,3.57-.55,5.19-.35,1.06-1.62,1.82-2.47,2.72-.87-.84-2.21-1.54-2.52-2.56-.93-3-1.46-6.13-2.89-9.24-.21,2.51-.42,5.02-.63,7.53-.09,1.09.12,2.34-.35,3.24-.52,1-1.75,2.45-2.48,2.35-1.11-.16-2.54-1.3-2.96-2.36-.85-2.16-1.12-4.55-2.14-6.78-.34,2.01-.38,4.15-1.15,5.97-.47,1.11-1.97,2.16-3.21,2.49-1.81.48-3.73-.23-4.05-2.35-.45-2.92-.7-5.87-.86-8.82-1.83.14-3.65.27-5.47.39.08,2.63.11,5.27.08,7.91-.04,3.7-1.23,4.5-7.44,5.64-3.24.59-4.57-.63-5.44-4.21-.33-1.34-.63-2.7-.94-4.04-.23.04-.45.08-.68.12-.26,1.71-.08,3.66-.89,5.05-.81,1.39-2.53,2.91-3.97,3.04-1.1.1-3.16-1.71-3.46-2.98-.7-3.01-1.19-6.07-1.57-9.15-1.21.06-2.43.11-3.64.16,0,1.92.04,3.84.03,5.76-.02,2.31.19,4.9-2.46,5.95-2.99,1.18-6.29,2.03-9.03-.39-1.54-1.36-2.62-1.8-4.13-.32-.08.07-.19.11-.29.16-7.56,3.77-9.79,2.84-10.28-5.4-.1-1.59-.15-3.18-.21-4.77-1.58.05-3.16.1-4.75.15-.04,1.84-.06,3.69-.1,5.53-.04,1.7-.71,3.87-1.88,4.97-3.3,3.08-6.52,2.05-7.98-2.24-.55-1.6-.9-3.27-1.34-4.91-.24.02-.48.03-.73.05-.12,1.01-.17,2.04-.38,3.04-.29,1.38-.42,2.92-1.15,4.06-.62.97-2.02,2.05-3.01,2-.81-.05-2.08-1.63-2.2-2.64-.37-3.05-.54-6.14-.63-9.22-.49.02-.99.03-1.48.05.02,1.31.05,2.63.06,3.94.02,1.75.26,3.58-.15,5.23-.29,1.16-1.51,2.08-2.31,3.11-1.01-.95-2.77-1.8-2.9-2.85-.37-3.07-.72-6.14-1.05-9.21-1.55.05-3.11.11-4.66.17.01,1.16.02,2.31.04,3.47,0,.88-.06,1.75-.12,2.63-.35,5.21-1.15,5.97-6.42,6.09-.44.01-.91-.14-1.31-.03-4.02,1.15-7.43.74-9.04-3.71-.57.28-.84.32-.93.47-.86,1.53-.89,3.88-3.51,3.66-4.15-.35-6.26-1.78-6.57-5.13-.19-2.06-.34-4.12-.5-6.18-1.53.08-3.06.17-4.59.26,0,.31,0,.62,0,.93,0,1.75.12,3.5.16,5.25.07,3.17-1.48,4.77-4.79,4.95-3.36.19-4.83-.85-4.88-4.22-.03-2.1-.04-4.2-.06-6.3-1.68.12-3.36.24-5.04.36-.2,2.22-.42,4.43-.59,6.65-.15,1.83-.81,3.25-2.63,2.93-1.01-.18-2.36-1.57-2.55-2.6-.39-2.12-.37-4.31-.45-6.49-.61.05-1.21.1-1.82.15-.23,1.89-.46,3.78-.7,5.67-.54,4.32-.67,4.39-5,3.83-.53-.07-1.18.36-1.68.7-3.05,2.03-4.99,1.31-5.33-2.39-.2-2.18-.3-4.37-.38-6.57-.79.08-1.57.16-2.36.24.01.46.02.92.03,1.38.01.66.07,1.31.09,1.97.14,4.04-.81,5.96-3.13,5.84-3.5-.18-3.79-3.15-3.84-5.55-.02-.96-.02-1.92-.02-2.88-1.1.13-2.2.27-3.3.4-.04,2.18-.31,4.27-1.37,6.34-1.05,2.06-2.2,2.62-4.06,1.02-.55-.47-1.48-1.31-1.77-1.14-3.33,1.87-3.58-.95-3.95-2.76-.13-.64-.25-1.29-.36-1.94-.18.03-.37.05-.55.07-.64.1-1.28.2-1.91.3-.04,1.74.07,3.51-.4,5.12-.35,1.19-1.75,2.83-2.75,2.88-1.11.06-2.71-1.24-3.35-2.36-.71-1.24-.68-2.95-.77-4.47,0,0,0-.01,0-.02-.54.09-1.09.18-1.63.27,0,.11,0,.21,0,.32.15,2.25-.53,3.22-1.86,3.68,3.1,3.33,5.85,7.15,8.18,11.4.39.02.77.01,1.15-.03,4.12-.41,8.36-1.94,12.3-1.35,6.28.95,12.19.51,18.18-1.16,1.37-.38,2.8-.79,4.19-.76.89.02,2.35.63,2.56,1.29.91,2.93,2.8,2.7,4.94,1.86,1.63-.64,3.14-1.75,4.81-2.09,4.56-.92,9.64-3.1,13.66-1.91,6.15,1.82,11.72,1.8,17.65.26,1.33-.34,3.06-.74,4.13-.18,2.77,1.42,5.29.91,7.93-.03,2.31-.82,4.43-.88,6.44.94.61.56,2.01.93,2.69.62,5.34-2.43,10.8-3.55,16.63-2.25.49.11,1.07-.22,1.61-.28,5.76-.61,11.53-1.22,17.29-1.76.72-.07,1.66.08,2.18.51,1.93,1.6,3.8,1.15,5.84.29,1.2-.5,2.52-.82,3.82-.94,1.39-.13,3.27-.83,3.33,1.81,0,.33.92.75,1.47.9.26.07.96-.41.96-.63-.13-4.48,3.09-3.06,5.31-2.88,4.35.35,8.75,1.77,12.99,1.33,8.89-.92,17.68-2.76,26.52-4.19.72-.12,1.48,0,2.22.01-.2.62-.59,1.26-.55,1.87.04.62.39,1.59.81,1.72.78.24,1.74.09,2.58-.1,5.97-1.3,11.92-2.65,17.88-3.98.43-.1.87-.31,1.28-.26.49.06.95.35,1.43.54-.19.46-.26,1.08-.6,1.36-1.32,1.09-2.73,2.07-4.11,3.09,4.52-.64,8.78-1.83,13.05-2.97,1.9-.51,3.81-1.05,5.75-1.35.72-.11,1.55.43,2.32.67-.52.73-.91,1.66-1.6,2.15-.91.65-2.07.97-3.12,1.43l.2.74c.99-.22,2-.34,2.96-.66,4.16-1.38,8.23-3.15,12.48-4.13,4-.92,8.22-1.58,12.29-1.38,7.42.36,14.8,1.52,22.21,2.18,1.95.17,3.95-.24,5.93-.39-.02-.35-.04-.7-.06-1.06-1.6,0-3.25.26-4.78-.06-2.82-.58-5.81-1.06-8.3-2.38-3.85-2.05-3.85-3.35-.11-5.82,2.56-1.69,5.55-2.71,8.35-4.03-1.41-.58-2.99-.81-4.32-.33-2.36.85-4.49,2.37-6.86,3.14-1.38.45-3.06,0-4.6-.05.39-1.47.43-3.18,1.24-4.36,1.2-1.73,2.94-3.09,4.46-4.61-.91-.24-1.58-.15-2.02.21-2.29,1.86-4.44,3.91-6.82,5.63-.77.56-2.13.3-3.22.41-.03-1.1-.49-2.45-.02-3.26.97-1.68,2.45-3.06,3.69-4.59,2.02-2.49,4.02-4.99,6.03-7.49-.23-.22-.47-.44-.7-.66-.83.62-1.67,1.21-2.48,1.85-3.27,2.58-6.52,5.19-9.83,7.73-.53.41-1.34.45-2.03.67-.19-.79-.71-1.69-.5-2.35.52-1.66,1.4-3.21,2.07-4.83.86-2.06.45-3.56-2.08-3.57-2.58,0-2.99-1.55-3.16-3.64-.05-.66-.13-1.32-.19-1.98-1.15,1.29-2.31,2.62-3.46,3.91-.05,3.3-.24,6.59-.65,9.9Z"/><path d="M303.78,345.47c-.31,0-.61,0-.92,0-.14,1.11-.27,2.23-.41,3.34.61-.05,1.21-.1,1.82-.15-.02-.46-.03-.92-.06-1.38-.04-.61-.29-1.21-.44-1.82Z"/><path d="M221.95,365.49c-.67.76-1.23,1.68-2.04,2.22-.96.64-2.15.93-3.39,1.44,6.78.29,13.12.75,19.47.78,6.24.03,12.48-.39,18.73-.57.73-.02,1.47.33,2.22.41,1.12.13,2.25.35,3.37.39-2.33-4.25-5.08-8.07-8.18-11.4-.43.15-.92.25-1.48.32-2.33.29-4.55-.17-4.88-2.79-8.92,1.84-17.57,4.33-25.57,8.33.59.27,1.17.58,1.76.86Z"/><path d="M245.53,352.89c-6.27-4.6-13.57-7.46-21.71-8.04-19.89-.97-38.49-4.98-56.18-11,.16.64.29,1.28.19,1.88-.17,1.1-1.05,2.08-1.62,3.12-.83-.74-2.23-1.36-2.4-2.23-.29-1.48-.61-2.96-.91-4.45-15.45-5.63-30.23-12.77-44.58-20.76-.57,2.56-1.26,5.1-2,7.62-.42,0-.83-.02-1.25-.02-.23-2.38-.26-4.8-.74-7.12-.24-1.14-.66-2.24-1.09-3.34-7.35-4.22-14.59-8.63-21.77-13.16-1.3.4-3.17.24-4.64.45.65,1.62,1.4,3.04,1.76,4.55.27,1.17.03,2.47.02,3.71-1.18-.3-2.53-.33-3.5-.96-3.29-2.12-6.45-4.46-9.66-6.71.19.69.58,1.18.97,1.68,2.36,3.01,4.78,5.98,7.01,9.08.45.63.17,1.79.23,2.71-.82-.12-1.77-.03-2.45-.4-2.2-1.22-4.25-2.72-6.48-3.89-1.04-.55-2.35-.58-3.54-.85.28,1.13.57,2.25.85,3.38.29,1.14.59,2.28.89,3.41-1.18-.33-2.45-.5-3.53-1.03-2.62-1.3-5.07-2.97-7.76-4.09-1.5-.62-3.34-.43-5.02-.6.84,1.52,1.71,3.02,2.5,4.56.37.73.59,1.53.88,2.3-.89.14-1.95.66-2.64.34-2.38-1.1-4.61-2.53-6.94-3.74-2.62-1.37-5.29-2.64-7.94-3.95-.16.3-.33.6-.49.89.96.84,2.24,1.5,2.8,2.55.63,1.2.62,2.74.89,4.13-1.17.08-2.49.55-3.49.16-2.89-1.11-5.71-1.93-8.84-1.13-.8.2-1.75-.07-2.6-.23-3.65-.71-7.29-1.53-10.95-2.18-1.22-.22-2.51-.03-3.77-.03.72,1.08,1.55,1.36,2.24,1.83,1.01.68,1.94,1.49,2.9,2.25-1.23.47-2.45,1.26-3.71,1.33-3.5.19-7.02.05-10.53.08-1.64.02-3.31,0-4.92.27-.73.12-1.35.88-2.02,1.35.64.51,1.21,1.27,1.94,1.48,1.35.39,2.8.64,4.2.62,5.92-.08,11.83-.35,17.75-.37.86,0,1.72.97,2.58,1.49-.7.59-1.3,1.44-2.1,1.73-2.72.99-5.5,1.78-8.26,2.64.07.26.13.52.2.78,1.01-.19,2.01-.48,3.02-.55,4.37-.32,8.74-.62,13.11-.81.61-.03,1.25.63,1.88.97-.42.57-.76,1.23-1.28,1.68-.39.33-1.05.31-1.53.56-1.44.76-2.86,1.58-4.28,2.37,1.76.03,3.52.12,5.27.06.63-.02,1.25-.4,1.88-.59,2.2-.68,4.38-1.43,6.61-1.96.61-.15,1.37.37,2.06.58-.25.77-.3,1.72-.8,2.26-.72.79-1.76,1.28-2.67,1.89-2.04,1.37-4.09,2.73-6.13,4.1.18.36.35.72.53,1.08,3.3-1.27,6.59-2.55,9.9-3.79,1.73-.65,3.46-1.42,5.26-1.76.9-.17,1.95.52,2.93.82-.54.84-.92,1.87-1.65,2.48-1.52,1.25-3.22,2.28-4.85,3.4.81.58,1.21.49,1.62.42,4.09-.7,8.17-1.48,12.29-2.03.72-.1,1.58.79,2.37,1.22-.6.56-1.11,1.3-1.82,1.65-1.94.97-3.96,1.78-5.94,2.66,4.53-.25,8.79-1.15,13.07-1.91,1.43-.25,2.93-.15,4.4-.2-1.06,1.06-2.13,2.12-3.18,3.2-.1.1-.08.33-.13.55,3.09-.31,6.18-.39,9.17-.98,4.15-.83,8.21-2.05,12.32-3.09.76-.19,1.56-.27,2.33-.4-.27.75-.33,1.77-.86,2.19-2.25,1.8-4.64,3.42-7.59,5.55,1.66-.38,2.73-.67,3.82-.85,1.49-.25,3-.59,4.49-.59,5.01,0,10.02.08,15.03.23,1.48.04,2.95.41,4.42.62-1.35.73-2.65,1.58-4.05,2.17-1.98.84-4.04,1.48-6.06,2.21.1.37.2.75.31,1.12,1.71-.09,3.41-.22,5.12-.25,7.31-.12,14.29-2.95,21.64-2.66.74.03,1.46.53,2.19.81-.42.57-.72,1.34-1.27,1.66-1.57.91-3.24,1.63-4.87,2.42-.03.27-.07.53-.1.8,1.45.13,2.93.47,4.36.34,2.5-.21,4.96-.93,7.46-1.04,4.06-.18,4.31.32,2.44,4.51,3.32-.2,6.39-.09,9.33-.64,3.98-.75,7.84-2.11,11.79-3,1.41-.32,2.96-.03,4.44-.01-1.13,1.07-2.15,2.32-3.43,3.15-1.69,1.1-3.59,1.88-5.41,2.8.18.42.36.85.54,1.27,6.1-1.64,12.2-3.29,18.31-4.89.86-.23,1.79-.21,2.69-.31-.09.92.18,2.23-.33,2.68-1.16,1.03-2.62,1.81-4.09,2.39-2.06.81-4.22,1.34-6.34,2,.1.4.2.79.29,1.19,2.28-.41,4.58-.74,6.83-1.26,5.32-1.23,10.61-2.61,15.94-3.79.61-.13,1.42.62,2.13.97-.39.71-.6,1.76-1.19,2.06-1.65.84-3.46,1.34-5.19,2.01-1.59.61-3.16,1.27-4.73,1.91.61.84.93,1.04,1.22,1.02,11.88-1.06,23.76-2.14,35.63-3.23.65-.06,1.36-.45,1.93-.29.43.12.85.3,1.26.49,8-4,16.65-6.49,25.57-8.33,0-.08-.03-.14-.04-.22-.08-1.05-.15-2.12-.19-3.19Z"/><path d="M177.2,53c-.42-.25-1.25-.54-1.23-.76.08-.9.12-2.15.7-2.61,2.47-1.97,5.09-3.76,7.73-5.5,1.18-.78,2.49-1.42,3.83-1.85.78-.25,1.74.06,2.62.12-.22.77-.19,1.85-.7,2.26-2.35,1.9-4.79,3.72-7.33,5.37-1.72,1.13-3.65,1.94-5.64,2.96Z"/><path d="M250.7,192.33c-1.62-3.71.61-17.96,3.53-22.63,1.06,8.52-1.67,15.51-3.53,22.63Z"/><path d="M463.48,244.07v29.18c-2.81-9.66-1.81-19.42-1.2-29.17.4,0,.8,0,1.2,0Z"/><path d="M340.85,241.81c.18,6.68-2.74,13.78-10.64,13.03-6.09-.97-10.81-7.2-12.1-13.03-1.56-7.05,4.96-14.07,12.1-13.8,7.86.19,10.94,6.85,10.64,13.8h0ZM340.2,241.81c-.13-6.75-10.58-8.59-15.11-5.12-6.47,5.13-3.86,14.86,5.12,12.72,4.07-.94,10.04-2.31,9.99-7.6h0Z"/></svg>