<?xml version="1.0" encoding="UTF-8"?><svg id="Layer_1" xmlns="http://www.w3.org/2000/svg" viewBox="0 0 770.81 311.28"><defs><style>.cls-1{fill:none;}.cls-2{fill-rule:evenodd;}</style></defs><path d="M152.11,15.53c-1.64.09-2.32.13-2.66-.6-1.48-.15-2.97-.43-4.45.27-.1.28-.23.53-.42.73-.28.3-.68.51-1.25.62-.54.1-.96.81-1.37,1.18,1.39.11,2.75-.2,3.47.35,1.53,1.16,2.64.39,3.88-.25.56-.29,1.05-.83,1.62-.94,2.26-.41,4.54-.73,6.82-1,.91-.11,1.84.05,2.76.03.82-.02,1.63-.1,2.45-.16-3.67-.29-7.27-.44-10.85-.24Z"/><path d="M84.38,52.97s0,0,.01,0c0,0,0,0,0,0,0,0,0,0,0,.01h0Z"/><path d="M181.81,39.77s0,0,0,.01c0,0,.01-.01.02-.02,0,0,0,0,0,0,0,0,0,0,0,0Z"/><path d="M198.41,39.34s0,0,0,.01c0,0,0,0,.01-.01,0,0,0,0,0,0,0,0,0,0,0,0Z"/><path d="M356.9,232.04c-1.03,0-2.1.17-3.09-.04-1.82-.38-3.76-.68-5.36-1.54-2.49-1.33-2.49-2.17-.07-3.76,1.65-1.09,3.59-1.75,5.4-2.6-.91-.37-1.93-.52-2.79-.21-1.53.55-2.9,1.53-4.44,2.03-.89.29-1.98,0-2.97-.03.25-.95.28-2.06.8-2.82.77-1.12,1.9-2,2.88-2.98-.59-.16-1.02-.1-1.31.14-1.48,1.2-2.87,2.53-4.41,3.64-.5.36-1.38.19-2.08.26-.02-.71-.31-1.58-.01-2.11.63-1.09,1.58-1.98,2.39-2.97,1.31-1.61,2.6-3.23,3.9-4.84-.15-.14-.3-.29-.45-.43-.53.4-1.08.78-1.6,1.2-2.12,1.67-4.21,3.36-6.35,4.99-.34.26-.87.29-1.31.43-.12-.51-.46-1.09-.32-1.52.33-1.07.9-2.07,1.34-3.12.55-1.33.29-2.3-1.34-2.3-1.67,0-1.94-1-2.04-2.35-.16-2.04-.41-4.08-.68-6.12-.41-3.07-.96-6.13-1.28-9.21-.2-1.88-.13-3.8-.09-5.69.06-2.67-.14-5.42.44-7.99.41-1.79.62-3.29-.27-4.86-1.53-2.71-2.34-5.45-.95-8.5.28-.61.28-1.39.28-2.09,0-5.22.16-10.46-.12-15.67-.25-4.66-1.22-9.28-1.49-13.94-.27-4.7-.19-9.4.75-14.11.77-3.84.98-7.86.88-11.78-.14-5.52-.8-11.02-1.24-16.52-.16-1.99.81-2.87,2.72-3.33,4.75-1.15,9.24-.38,13.77,1.14,2.97,1,4.72.47,5.55-1.09.81-1.52-.12-3.46-2.26-5.47-3.81-3.57-7.46-7.33-11.28-10.89-2.06-1.92-4.13-4-6.57-5.31-3.57-1.91-6.6-4.32-9.35-7.24-2.18-2.31-4.71-4.28-6.87-6.6-4.31-4.63-8.48-9.37-13.79-12.93-.21-.14-.33-.41-.5-.61-2.3-2.75-4.35-5.76-6.95-8.19-3.87-3.62-8.16-6.77-12.2-10.22-2.58-2.21-4.95-4.66-7.54-6.86-5.2-4.43-10.65-8.57-15.66-13.19-3.37-3.11-6.85-4.46-11.38-3.57-11.61,2.27-23.2,4.69-34.89,6.48-10,1.54-19.75,4.62-29.97,4.77-1.25.02-2.5.48-3.75.71-4.09.77-8.19,1.52-12.27,2.33-.46.09-.86.51-1.28.78.48.18.98.57,1.43.51,3.71-.48,7.4-1.1,11.11-1.55,3.31-.4,6.63-.67,9.95-.94.49-.04,1.02.29,1.52.44-.3.5-.48,1.19-.91,1.48-1.98,1.33-4.17,1.48-6.52,1.26-1.94-.18-3.92.05-5.88.13-1.54.06-3.08.18-4.62.26-1.47.07-3.29-.42-4.36.27-3.1,1.99-6.62,1.99-9.97,2.72-1.06.23-2.36.25-3.32-.17-2.13-.94-4.14-.52-6.24-.14-3.9.7-7.81,1.35-11.74,1.87-.8.11-1.67-.49-2.52-.63-.87-.15-2.01-.51-2.62-.12-2.09,1.31-4.03,2.87-5.96,4.42-.26.21-.28.92-.18,1.34.19.78.55,1.52.82,2.25h1.66c-.1.37-.11,1-.32,1.07-3,1.09-1.85,2.07.03,3.08.12.07.23.23.33.36,4.28-6.58,11.78-8.59,19.3-8.59-.06.05-.11.1-.17.14.1-.02.2-.04.31-.05-.71,1.08-1.05,1.6-1.57,2.39.76-.19,1.18-.25,1.57-.4,1.64-.66,3.22-1.5,4.91-1.96.81-.22,1.81.24,2.72.4-.52.74-.92,1.63-1.59,2.21-1.55,1.33-3.2,2.54-4.86,3.73-1.07.77-2.14,1.74-3.36,2.07-4.96,1.34-9.83,3.23-15.13,2.92-4.94-.28-9.89-.59-14.83-.5-2.91.05-6.1.25-8.65,1.46-3.32,1.58-6.11,4.26-9.17,6.42-.96.67-2.04,1.16-3.06,1.74-2.52,1.43-5.06,2.83-7.54,4.32-.41.25-.94,1.17-.86,1.25,1.17,1.22-.41,1.48-.7,2.15,0,0,0,0,0,0,0,0,0,0-.01,0,.79-.23,1.59-.44,2.38-.7,3.12-1.05,6.3-1.96,9.33-3.24,1.63-.69,3.14-1.86,4.45-3.09,1.55-1.45,3.12-2.56,5.33-2.74.93-.07,1.79-.77,2.72-1.06.52-.16,1.12-.06,1.68-.08-.23.58-.3,1.43-.74,1.7-.94.59-2.16.74-3.09,1.34-1.07.7-1.96,1.68-2.87,2.59-.1.1.3.88.31.87,1.16-.37,2.58-.48,3.4-1.25,1.91-1.79,3.95-3.11,6.55-3.53.2-.03.53-.52.47-.69-.64-1.94.58-1.65,1.79-1.67,1.02-.02,2.22-.09,3.02-.62,3.41-2.28,7.18-1.6,10.88-1.62,1.17,0,2.34-.1,3.51-.06.58.02,1.16.28,1.74.43-.25.52-.37,1.23-.79,1.52-3.35,2.37-6.73,4.71-10.17,6.95-.92.6-2.06,1.01-3.15,1.2-5.08.92-10.18,1.75-15.27,2.6-.28.05-.63.18-.83.07-3.46-1.89-6.68.68-10.04.52-3.29-.15-6.2,1.5-9.36,1.88-.79.09-1.61.01-2.85.01.77-.65,1.19-1,1.59-1.34h0s0,0,0-.01c-.61-.15-1.39-.61-1.8-.39-2.77,1.52-5.48,3.16-8.18,4.8-3.38,2.05-6.81,4.03-10.07,6.26-1.9,1.3-3.5,3.02-5.24,4.54-.94.82-1.8,1.79-2.87,2.42-3.04,1.8-6.19,3.41-9.25,5.18-1.47.85-2.97,1.74-4.17,2.91-.71.69-1.22,1.99-1.12,2.95.06.63,1.29,1.45,2.12,1.64,2.06.47,4.18.76,6.29.88,2.75.16,5.52.08,8.29.15,2.54.06,3.32.78,3.22,3.13-.28,6.46-.06,12.87,1.22,19.23.24,1.2-.13,2.52-.19,3.79-.13,2.95-.72,5.97-.25,8.82.55,3.32.12,6.44-.36,9.64-.54,3.62-1.22,7.24-1.42,10.89-.24,4.28.06,8.59-.08,12.88-.06,1.67-.63,3.33-1.07,4.97-.44,1.65-.16,3.13.97,4.37,1.52,1.67,1.6,3.57,1.07,5.57-.34,1.3-.94,2.53-1.26,3.83-.42,1.7-.92,3.43-.94,5.16-.05,3.44.18,6.89.33,10.33.05,1.25.74,3.02.17,3.61-.71.74-2.43.5-3.69.68.42,1.04.91,1.96,1.13,2.94.18.76.02,1.59.01,2.4-.76-.2-1.64-.22-2.26-.62-2.13-1.37-4.17-2.88-6.24-4.34.12.45.38.76.63,1.08,1.52,1.95,3.09,3.86,4.53,5.87.29.41.11,1.16.15,1.75-.53-.08-1.14-.02-1.58-.26-1.42-.79-2.75-1.76-4.19-2.52-.67-.35-1.52-.38-2.29-.55.18.73.37,1.46.55,2.18.19.74.38,1.47.57,2.21-.76-.22-1.58-.32-2.28-.67-1.69-.84-3.28-1.92-5.01-2.64-.97-.4-2.16-.28-3.25-.39.54.98,1.11,1.95,1.62,2.95.24.47.38.99.57,1.49-.57.09-1.26.42-1.7.22-1.54-.71-2.98-1.63-4.48-2.42-1.69-.88-3.42-1.71-5.13-2.55-.11.19-.21.39-.32.58.62.54,1.45.97,1.81,1.65.41.77.4,1.77.57,2.67-.76.05-1.61.35-2.25.11-1.87-.72-3.69-1.25-5.71-.73-.52.13-1.13-.04-1.68-.15-2.36-.46-4.71-.99-7.08-1.41-.79-.14-1.62-.02-2.44-.02.47.7,1,.88,1.45,1.18.66.44,1.25.96,1.87,1.45-.8.3-1.58.82-2.4.86-2.26.12-4.54.03-6.8.05-1.06.01-2.14,0-3.18.17-.47.08-.87.57-1.31.87.42.33.78.82,1.26.96.87.25,1.81.41,2.72.4,3.82-.05,7.65-.22,11.47-.24.56,0,1.11.62,1.67.96-.45.38-.84.93-1.36,1.12-1.76.64-3.56,1.15-5.34,1.71.04.17.09.34.13.51.65-.12,1.3-.31,1.95-.36,2.82-.21,5.65-.4,8.47-.52.4-.02.81.41,1.21.63-.27.37-.49.8-.83,1.09-.25.21-.68.2-.99.36-.93.49-1.85,1.02-2.77,1.53,1.14.02,2.27.07,3.41.04.41-.01.81-.26,1.21-.38,1.42-.44,2.83-.92,4.27-1.27.39-.09.88.24,1.33.37-.16.5-.19,1.11-.51,1.46-.47.51-1.14.83-1.73,1.22-1.32.88-2.64,1.77-3.96,2.65.11.23.23.46.34.7,2.13-.82,4.26-1.65,6.4-2.45,1.12-.42,2.24-.92,3.4-1.14.58-.11,1.26.34,1.9.53-.35.54-.59,1.21-1.07,1.6-.98.81-2.08,1.48-3.13,2.2.53.37.79.32,1.05.27,2.64-.45,5.28-.96,7.94-1.31.47-.06,1.02.51,1.53.79-.39.36-.72.84-1.17,1.07-1.25.63-2.56,1.15-3.84,1.72,2.93-.16,5.68-.74,8.45-1.23.93-.16,1.9-.09,2.85-.13-.69.69-1.38,1.37-2.06,2.07-.07.07-.05.21-.08.36,2-.2,3.99-.25,5.93-.64,2.68-.53,5.31-1.33,7.96-1.99.49-.12,1.01-.17,1.51-.26-.18.48-.21,1.14-.55,1.42-1.46,1.16-3,2.21-4.9,3.58,1.07-.24,1.76-.43,2.47-.55.96-.16,1.94-.38,2.9-.38,3.24,0,6.48.05,9.71.15.96.03,1.9.26,2.86.4-.87.47-1.71,1.02-2.62,1.4-1.28.54-2.61.96-3.92,1.43.07.24.13.48.2.72,1.1-.06,2.21-.14,3.31-.16,4.73-.07,9.24-1.91,13.99-1.72.48.02.94.34,1.41.52-.27.37-.46.86-.82,1.07-1.01.59-2.09,1.05-3.15,1.56-.02.17-.04.34-.06.52.94.08,1.89.3,2.82.22,1.62-.14,3.21-.6,4.82-.67,2.62-.11,2.79.21,1.57,2.92,2.15-.13,4.13-.06,6.03-.41,2.57-.48,5.06-1.36,7.62-1.94.91-.2,1.91-.02,2.87,0-.73.69-1.39,1.5-2.22,2.04-1.09.71-2.32,1.22-3.49,1.81.12.27.23.55.35.82,3.94-1.06,7.89-2.13,11.84-3.16.56-.15,1.16-.14,1.74-.2-.06.6.11,1.44-.21,1.73-.75.67-1.7,1.17-2.64,1.54-1.33.52-2.73.87-4.1,1.29.06.26.13.51.19.77,1.47-.27,2.96-.48,4.41-.82,3.44-.8,6.86-1.69,10.3-2.45.39-.09.92.4,1.38.63-.25.46-.39,1.14-.77,1.33-1.06.54-2.23.87-3.35,1.3-1.03.4-2.04.82-3.06,1.24.4.54.6.67.79.66,7.68-.69,15.35-1.38,23.03-2.09.42-.04.88-.29,1.25-.19.68.19,1.3.57,1.95.87-.43.49-.79,1.09-1.32,1.44-.62.41-1.39.6-2.19.93,4.38.19,8.48.49,12.59.51,4.03.02,8.07-.25,12.1-.37.47-.01.95.21,1.43.27.97.11,1.97.33,2.92.24,2.66-.26,5.4-1.26,7.95-.87,4.06.61,7.88.33,11.75-.75.89-.25,1.81-.51,2.71-.49.58.01,1.52.41,1.65.83.59,1.89,1.81,1.74,3.19,1.2,1.05-.41,2.03-1.13,3.11-1.35,2.94-.59,6.23-2,8.83-1.23,3.98,1.18,7.58,1.16,11.41.17.86-.22,1.98-.48,2.67-.12,1.79.92,3.42.59,5.13-.02,1.49-.53,2.86-.57,4.16.61.4.36,1.3.6,1.74.4,3.45-1.57,6.98-2.29,10.75-1.46.32.07.69-.14,1.04-.18,3.72-.39,7.45-.79,11.18-1.14.46-.04,1.07.05,1.41.33,1.25,1.03,2.45.75,3.77.19.77-.33,1.63-.53,2.47-.61.9-.08,2.11-.54,2.15,1.17,0,.21.59.49.95.58.17.05.62-.27.62-.41-.08-2.9,1.99-1.98,3.43-1.86,2.81.23,5.66,1.14,8.39.86,5.75-.59,11.43-1.78,17.14-2.71.47-.08.96,0,1.43,0-.13.4-.38.81-.35,1.21.03.4.25,1.03.52,1.11.5.16,1.12.06,1.67-.06,3.86-.84,7.71-1.71,11.56-2.57.28-.06.56-.2.83-.17.32.04.62.22.92.35-.13.3-.17.7-.39.88-.85.7-1.77,1.34-2.66,1.99,2.92-.41,5.67-1.18,8.43-1.92,1.23-.33,2.46-.68,3.71-.87.47-.07,1,.28,1.5.43-.34.47-.59,1.07-1.03,1.39-.59.42-1.34.63-2.02.92.04.16.08.32.13.48.64-.14,1.29-.22,1.91-.43,2.69-.89,5.32-2.04,8.07-2.67,2.59-.6,5.31-1.02,7.95-.89,4.8.23,9.57.98,14.35,1.41,1.26.11,2.56-.16,3.84-.25-.01-.23-.03-.46-.04-.68ZM194.2,12.88c5.97-1.39,11.97-2.68,17.98-3.9.6-.12,1.71.35,1.96.86.79,1.55,1.65,1.33,2.91.67,1.46-.77,3-1.48,4.58-1.92,5.23-1.44,10.5-2.76,15.77-4.04.53-.13,1.2.35,1.8.55-.28.59-.41,1.5-.86,1.7-1.47.65-3.02,1.17-4.6,1.52-4.62,1.03-9.29,1.81-13.89,2.94-9.02,2.21-18.2,3.24-27.41,4.15-.54.05-1.09-.07-1.63-.11-.09-.27-.19-.54-.28-.81,1.22-.55,2.39-1.31,3.66-1.61ZM151.77,30.39c1.62-1.57,3.24-3.15,4.98-4.58,1.02-.83,2.25-1.44,3.44-2.03,1-.5,2.08-.87,3.15-1.21.5-.16,1.49-.28,1.54-.14.82,2.12,1.33.31,2.06-.06,1.34-.68,2.74-1.34,4.18-1.69,1.35-.33,2.89.01,4.2-.4,1.85-.57,3.57-1.56,5.39-2.4q-.14,2.01,3.01,1.16c.11.15.22.31.33.46-1.27.84-2.56,1.64-3.8,2.53-.97.7-2.9.53-2.48,2.6,0,.03-.55.17-.84.27-.57.19-1.38.22-1.64.62-.37.57-.34,1.4-.48,2.12.6-.02,1.37.2,1.78-.09,1.67-1.18,3.36-2.37,4.78-3.82,1.84-1.88,3.68-3.08,6.51-3.38,3.76-.4,7.4-1.82,11.13-2.65,1.29-.29,2.68-.12,4.03-.17-.76.91-1.47,1.88-2.31,2.72-1.63,1.64-3.34,3.2-5.01,4.8.15.19.29.39.44.58,1.13-.67,2.27-1.32,3.37-2.02,3.28-2.08,6.48-4.29,9.83-6.23,2.62-1.52,3.71-.79,3.91,2.25.02.34.1.67.62,1.11.11-.52.35-1.05.32-1.56-.1-1.76.68-2.93,2.35-3.31,4.76-1.07,9.54-2.04,14.31-3.04.16-.03.36.15.58.25-.08.23-.1.48-.23.6-2.54,2.24-5.02,4.55-7.68,6.64-1.02.8-1.84,2.61-3.74,1.57-.1-.06-.46.48-.75.61-1.42.66-2.83,1.71-4.31,1.84-6.43.54-12.81,1.02-18.96,3.29-2.06.76-4.48.57-6.75.72-4.87.32-9.76.42-14.6.94-2.85.3-5.64,1.27-8.46,1.87-4.23.9-8.45,1.83-12.71,2.53-1.29.21-2.69-.32-4.05-.51.86-.94,1.67-1.93,2.58-2.81ZM68.15,65.01c3.99-2.26,8.04-4.42,12.16-6.44.78-.38,1.94.05,2.92,0,1.35-.08,2.7-.3,4.05-.39.45-.03.92.24,1.38.26.59.02,1.4.17,1.74-.15,2.45-2.25,5.47-2.36,8.53-2.62,4.72-.4,9.41-1.03,14.12-1.54.55-.06,1.1,0,2.17,0-1.08.91-1.75,1.48-2.42,2.05.07.1.14.2.2.3,1.15-.63,2.37-1.16,3.44-1.9,2.92-2.04,6.18-2.64,9.66-2.66,4.73-.02,9.47-.39,14.19-.16,2.6.13,4.94-.35,7.44-.87,4.42-.91,8.96-1.2,13.45-1.77.9-.11,1.8-.36,2.7-.43.58-.05,1.17.12,1.76.19-.28.57-.41,1.35-.87,1.69-1.82,1.34-3.78,2.48-5.61,3.81-2.55,1.86-5,3.86-7.53,5.75-.83.62-1.7,1.31-2.66,1.58-1.42.39-2.93.48-4.41.6-3.87.32-7.75.61-11.63.84-.7.04-1.43-.25-2.14-.39.32-.65.49-1.48,1-1.93,2.13-1.86,4.36-3.61,6.56-5.39.59-.48,1.2-.95,1.8-1.42-.09-.17-.18-.34-.28-.5-2.39,1.21-4.85,2.29-7.14,3.67-1.93,1.16-3.81,2.51-5.41,4.08-1.53,1.5-3.19,2.21-5.25,2.39-1.97.18-3.93.51-5.89.84-2.7.45-3.29-.14-2.62-2.75.09-.34.17-.67.02-1.15-.21.36-.55.71-.61,1.1-.38,2.53-2.01,3.35-4.34,3.43-1.34.04-2.68.36-4.02.38-.77.01-1.54-.32-2.32-.5.35-.73.54-1.64,1.09-2.15,1.41-1.28,2.98-2.38,4.49-3.55.52-.4,1.04-.79,1.56-1.19-.17-.25-.33-.5-.5-.74-1.77,1.15-3.58,2.23-5.3,3.46-1.43,1.02-2.62,2.48-4.16,3.26-1.91.97-4.04,1.83-6.14,2.05-4.13.42-8.32.55-12.47.42-3.38-.1-6.7-.37-9.87,1.13-.49.23-1.13.35-1.66.27-.7-.12-1.86-.41-1.91-.78-.11-.69.2-1.87.72-2.16ZM177.09,45.28c3.65-1.81,7.96-2.3,11.69-3.3,1.3.38,2.14.62,2.98.87-.62.61-1.2,1.27-1.87,1.82-3.82,3.13-7.53,6.42-11.53,9.3-3.42,2.46-6.97,5.06-10.87,6.44-3.49,1.24-7.53.92-11.33,1.21-.37.03-1.06-.41-1.12-.72-.08-.47.11-1.18.46-1.49,1.58-1.42,3.12-2.93,4.9-4.06,5.49-3.49,10.9-7.19,16.7-10.07ZM59.2,76.94c-.82.5-1.77,1.13-2.14,1.95-.88,1.89-2.32,2.31-4.16,2.24-1.05-.14-2.12-.19-3.14-.45-.54-.14-.98-.64-1.46-.97.35-.49.6-1.17,1.07-1.44,2.21-1.25,4.5-2.36,6.73-3.57,2.34-1.27,4.52-3.01,7.46-2.14.51.15.98.4,1.47.6-.39.43-.71.98-1.19,1.26-1.52.89-3.15,1.6-4.65,2.52ZM64.33,146.16c-.76-.93-1.88-1.76-2.18-2.82-.3-1.06.17-2.36.41-3.53.07-.32.53-.78.8-.78.3,0,.79.42.87.74.37,1.42.63,2.88.99,4.56-.27.55-.58,1.19-.9,1.82ZM78.17,186.77c-.03.98-.31,1.95-.41,2.93-.15,1.54-.28,3.08-.34,4.62-.15,4.1-1.11,8-2.25,11.88-.27,0-.54,0-.81-.01-.15-1.54-.17-3.1-.48-4.6-.27-1.31-.92-2.53-1.29-3.83-.12-.42.03-.98.22-1.41.37-.82,1.2-1.57,1.24-2.37.14-2.89.13-5.8-.04-8.7-.07-1.22-.68-2.41-1.01-3.48.36-.79,1.03-1.65,1.12-2.57.23-2.6.15-5.23.35-7.83.06-.8.65-1.56.99-2.33.74.45,1.85.75,2.13,1.4.53,1.25.78,2.7.79,4.07.03,4.08-.09,8.17-.21,12.25ZM77.68,166.43c-1.42,1.07-1.74.29-1.91-.87-.27-1.89-.24-3.85-.73-5.67-.58-2.16-1.15-4.12.5-6.09.38-.45.28-1.35.29-2.04.12-8.05.27-16.1.3-24.14.02-5.44-.25-10.87-.16-16.31.05-3.51.55-7.02.76-10.53.11-1.83,0-3.68.02-5.51,0-.45.17-.91.27-1.36.38.34.98.62,1.11,1.04.48,1.52,1.09,3.08,1.15,4.65.24,6.93.39,13.86.4,20.79.02,6.35-.24,12.7-.25,19.06,0,4.17.23,8.35.29,12.52.02,1.19.13,2.53-.33,3.56-1.71,3.81-1.3,7.26,1.23,10.27-1.14.22-2.26.13-2.93.63ZM81.82,76.82c-4.74,3.98-10.15,5.41-16.19,4.36-.93-.16-1.74-.98-2.6-1.5.49-.81.85-1.76,1.5-2.41,1.62-1.63,3.48-3.02,5.05-4.69,1.72-1.82,3.83-1.71,6-1.75,1.08-.02,2.19-.23,3.22-.57,1.28-.43,2.14-.61,1.31,1.89,3.88-3.78,8.03-3.27,12.37-2.42-1.77,1.1-3.56,2.15-5.29,3.3-1.82,1.21-3.69,2.38-5.36,3.79ZM91.95,201.87c0,.43-.17.86-.27,1.29-.44-.15-1.06-.17-1.29-.47-.48-.65-1.03-1.43-1.07-2.19-.08-1.67.1-3.36.25-5.04.03-.35.37-.68.57-1.01.33.22.86.37.96.67.42,1.29.71,2.63,1.05,3.95-.14.03-.27.06-.41.09.07.9.18,1.81.2,2.71ZM91.59,183.21c-.61.37-.78,1.46-1.21,2.33-.16-.23-.51-.48-.52-.75-.09-3.44-.16-6.88-.15-10.32,0-.51.33-1.1.67-1.52.28-.34.84-.69,1.2-.63.33.06.75.63.83,1.03.36,1.94.65,3.9.88,5.86.2,1.63-.1,3.01-1.71,4ZM94.44,149.65c-.05.56-.34,1.35-.08,1.65,1.45,1.72.08,3.32-.04,4.96-.05.74.03,1.49.1,2.23.03.33.32.68.25.97-.4,1.7-.8,3.4-1.34,5.05-.17.51-.78,1.18-1.22,1.2-.44.02-1.19-.6-1.32-1.07-.41-1.49-.6-3.04-.87-4.57.09,0,.17-.01.26-.02.18-7.5.05-15.03.65-22.5.51-6.43.12-12.82.27-19.23.12-4.87.34-9.74.49-14.62.1-3.31.09-6.63.28-9.94.04-.63.81-1.22,1.24-1.82.45.64,1.39,1.37,1.28,1.89-1.15,5.58,1.23,10.92.95,16.42-.08,1.63-.39,3.24-.44,4.87-.08,2.47-.04,4.95-.03,7.42,0,.78.12,1.55.16,2.33.18,3.22.34,6.44.52,9.66.02.35.09.71.07,1.06-.39,4.69-.79,9.38-1.19,14.07ZM102.09,79.71c-1.85,1.69-5.65.95-6.89-1.25-.79-1.41-1.33-1.41-2.24-.16-1.12,1.55-7.01,2.82-8.55,1.75-.44-.31-.56-1.38-.47-2.05.06-.44.71-.85,1.16-1.18,3.07-2.24,5.98-4.78,9.28-6.58,2.47-1.35,5.45-1.75,8.2-2.57.05.26.11.51.16.77,2.77-.38,5.54-.8,8.32-1.13,1.33-.16,2.69-.29,4-.16.54.05,1.23.75,1.42,1.3.12.35-.42,1.21-.87,1.45-5.01,2.6-9.39,6.02-13.54,9.81ZM109.78,134.09c0,.5-.75,1-1.15,1.51-.41-.49-1.22-1.01-1.18-1.47.45-5.64-1.98-11.18-.53-16.87.32-1.26.01-2.67,0-4.01,0-4.38,0-8.76,0-13.14.15,0,.3,0,.45,0,0-1.84-.08-3.68.05-5.51.04-.57.65-1.1,1-1.65.47.52,1.31,1.02,1.35,1.58.2,3.3.2,6.62.31,9.93.14,4.14.41,8.27.44,12.41.01,1.63-.49,3.26-.72,4.9-.12.81-.26,1.64-.24,2.46.06,3.29.23,6.59.22,9.88ZM110.58,182.58c-.34-.17-.95-.47-1.04-.36-.34.4-.72.94-.73,1.43-.03,2.12.21,4.25.1,6.36-.33,6.77-.8,13.53-1.14,20.31-.07,1.45.18,2.93.34,4.38.08.77.46,1.56.35,2.29-.11.71-.68,1.35-1.05,2.02-.54-.48-1.44-.88-1.55-1.44-.58-2.97-1.36-5.99-1.34-8.98.07-11.24.4-22.48.71-33.71.06-2.18.88-4.37.71-6.51-.38-4.78.33-9.48.48-14.22.04-1.19.05-2.52-.42-3.55-.89-1.93-.48-3.37,1-4.67.4-.36.88-.63,1.32-.94.34.49.91.95,1,1.48.54,3.47.98,6.96,1.45,10.44-.28.02-.56.04-.85.07,0,3.87,0,7.75,0,11.62,0,.42.05.92-.16,1.25-.98,1.58-.58,3.18-.44,4.89.2,2.55.34,4.99,2.16,7.02.28.32.14,1.01.2,1.53-.36-.23-.7-.5-1.08-.7ZM111.12,78.36c-.68-.05-1.69-.41-1.9-.9-.22-.49.16-1.58.64-1.99,2.25-1.92,4.77-3.55,6.94-5.56,5.09-4.74,11.69-3.41,17.65-4.55,2.54-.49,5.21-.38,7.82-.43.52-.01,1.05.49,1.58.76-.36.47-.61,1.18-1.09,1.38-6.21,2.61-11.34,6.81-16.53,10.95-.69.55-1.78.6-2.96.97-3.95-.2-8.05-.36-12.14-.64ZM127.08,169.96c-.46.1-1.11.82-1.13,1.27-.27,8.92-.72,17.85-.47,26.76.06,2.32.68,4.28-.4,6.68-.85,1.88-.29,4.4-.37,6.64-.07,2.11,0,4.25-.3,6.33-.1.75-1.06,1.38-1.63,2.06-.36-.77-1.01-1.53-1.02-2.31-.05-3.2-.98-6.46.71-9.6.42-.78-.21-2.07-.22-3.12-.04-7.78-.05-15.55-.06-23.33,0-9.63-.08-19.25.03-28.88.04-3.37.59-6.72.78-10.09.13-2.26.05-4.53.05-6.79,0-6.37,0-12.73.01-19.1,0-2.48.28-4.99-.03-7.43-.3-2.36-.04-4.5.62-6.77.5-1.71.18-3.66.28-5.49.04-.77.14-1.57.41-2.29.16-.44.69-.75,1.05-1.12.28.37.72.7.82,1.11.23.96.4,1.95.41,2.94.05,3.11.02,6.22.02,9.33-.08,0-.16,0-.24,0,.2,6.36.57,12.71.54,19.07-.02,4.72-.43,9.46-.93,14.16-.33,3.07-1.17,6.09-1.72,9.14-.09.52-.06,1.22.22,1.64,2.01,3.01,1.3,6.42,1.57,9.69.15,1.83.08,3.69.32,5.51.11.8.62,1.62,1.14,2.29.69.89.97,1.38-.46,1.71ZM141.94,207.57c-.15.92-.06,1.89-.06,2.83.01,3.67.06,7.33,0,11,0,.37-.69,1.04-1.06,1.03-.53,0-1.32-.37-1.53-.8-.35-.73-.48-1.65-.42-2.46.51-6.3-.04-12.55-.67-18.81-.14-1.41-.41-2.82-.33-4.22.05-.98.8-1.92.86-2.9.1-1.69-.12-3.39-.13-5.09,0-.45.24-.9.38-1.36.45.14.95.18,1.34.42,2.35,1.48,2.6,3.71,1.89,6.94.25,1.14.65,2.95,1.05,4.77.05.2.23.41.2.59-.5,2.68-1.06,5.36-1.51,8.05ZM140.97,112.35c1.87-.05,2.01,1.73,1.98,3.16-.08,4.73-.22,9.47-.36,14.2-.11,3.82-.22,7.64-.4,11.46-.07,1.33-.3,2.67-.59,3.97-.1.46-.64.81-.98,1.21-.41-.35-1.15-.68-1.18-1.06-.15-2-.19-4.02-.12-6.03.06-1.73.56-3.46.45-5.16-.2-2.94-.78-5.86-1.08-8.8-.07-.71.55-1.47.51-2.19-.08-1.6-.37-3.19-.58-4.9,1.39-.14,1.02-1.66,1.16-2.94.13-1.09-.56-2.85,1.19-2.9ZM139.14,177.06c0-6.08-.03-12.15.04-18.23,0-.76.6-1.51.91-2.27.64.62,1.7,1.16,1.83,1.87.4,2.28.55,4.62.64,6.94.19,5.34.29,10.68.4,16.03.01.7,0,1.45-.24,2.1-.24.65-.76,1.19-1.16,1.78-.59-.61-1.61-1.18-1.68-1.85-.22-2.1-.08-4.24-.08-6.36-.22,0-.44,0-.66,0ZM142.99,110.5c-2.38-1.74-3.35-3.54-2.83-6.34.41-2.23-.1-4.62,0-6.94.05-.97.64-1.91.98-2.86.41.9,1.06,1.77,1.17,2.7.28,2.36.31,4.75.44,7.13.02.35-.05.84.15,1.02,1.85,1.67.46,3.31.07,5.29ZM147.04,76.68c-1.8,1.13-4.46.89-6.72,1.28-.02-.16-.05-.32-.07-.48-1.63,0-3.27.12-4.88-.03-1.78-.17-2.26-1.35-1.22-2.82.44-.62,1.02-1.21,1.66-1.62,4-2.54,7.95-5.19,12.1-7.47,2.11-1.16,4.53-2.11,7.09-.62.44.26,1.3-.25,1.98-.34,1.38-.18,2.78-.53,4.14-.41,1.33.11,1.63,1,.61,2.06-.05.05-.11.1-.16.14-4.82,3.48-9.5,7.18-14.53,10.32ZM179.26,138.56c-.13,12.11-.26,24.23-.38,36.34-.09,8.48-.23,16.96-.23,25.44,0,8.28.02,16.56.26,24.84.06,2.13.13,4.11-.86,6.06-.68,1.33-1.42,1.69-2.62.66-.35-.3-.96-.84-1.14-.74-2.15,1.21-2.31-.61-2.56-1.78-.52-2.53-.8-5.1-1.46-7.71-.12,2.07-.24,4.14-.35,6.21-.07,1.27.08,2.6-.27,3.8-.22.77-1.13,1.83-1.78,1.86-.72.04-1.75-.8-2.17-1.53-.46-.8-.44-1.91-.5-2.89-.17-2.82-.27-5.64-.7-8.47-.14,2.95-.54,5.91-.35,8.84.13,1.92-.67,2.4-2.15,2.59-1.55.19-3.04-.11-3.18-1.94-.17-2.16-.31-4.42.14-6.51.57-2.67.22-5.14-.22-7.75-.46-2.76-.43-5.61-.56-8.42-.07-1.55-.13-3.11-.06-4.65.14-2.96.35-5.92.61-8.87.05-.52.35-1.28.74-1.46,2.46-1.12,2.59-3.44,2.81-5.56.28-2.66.37-5.37.21-8.05-.06-1.09-.88-2.2-1.54-3.17-2-2.96-3-5.9-1.51-9.55.66-1.63.15-3.75.1-5.65-.11-4.09-.43-8.17-.36-12.26.1-5.99.47-11.98.68-17.97.02-.68-.2-1.38-.35-2.07-.52-2.46-2.04-5.25-1.35-7.29,1.1-3.25-.23-6.26.39-9.29.26-1.29.97-2.49,1.24-3.78.42-1.98,1.03-4.02.88-5.99-.34-4.66-1.11-9.28-1.62-13.93-.17-1.54-.18-3.11-.02-4.65.07-.64.77-1.21,1.18-1.82.43.57,1.02,1.08,1.25,1.71.46,1.27.72,2.62,1.07,3.94.24-.04.48-.07.73-.11,0-1.86,0-3.73,0-5.59,0-.57-.14-1.32.16-1.66.83-.95,1.86-1.74,2.81-2.59.45.79.97,1.54,1.32,2.37.29.68.37,1.45.97,2.14.14-1.52.02-3.13.5-4.54.46-1.35,1.53-2.49,2.34-3.73.58,1.12,1.38,2.18,1.7,3.37.5,1.82.67,3.73.98,5.59h.7c0-2.16-.05-4.33.02-6.5.04-1.4.13-2.82.41-4.19.12-.58.76-1.05,1.17-1.57.49.54,1.24,1.01,1.41,1.63.36,1.28.53,2.64.58,3.98.26,6.44.53,12.88.67,19.33.2,9.56.31,19.12.39,28.68.04,4.95-.08,9.9-.13,14.86ZM157.46,183.64c.06-1.67.56-3.34,1.03-4.96.14-.49.82-.83,1.26-1.24.37.46.96.87,1.06,1.39.33,1.59.47,3.22.69,4.83-.16,1.15-.21,2.29-.51,3.37-.15.52-.7,1.22-1.16,1.29-.43.07-1.24-.47-1.42-.92-.47-1.2-.99-2.51-.95-3.76ZM174.11,64.58c-4.98,3.62-9.97,7.23-14.97,10.82-.74.53-1.55,1.05-2.42,1.32-.77.24-1.66.11-2.49.14.07-1.06-.2-2.32.29-3.11.63-1.03,1.85-1.72,2.86-2.49,8.43-6.45,16.82-12.94,25.32-19.29,2.6-1.94,5.5-3.49,8.21-5.29.91-.61,1.71-1.41,2.49-2.19,1.69-1.69,3.34-3.43,5.01-5.14,0,0,0,0-.01.01,0,0,0,0,0-.01-.89-.06-1.79-.28-2.66-.16-3.58.48-7.13,1.17-10.71,1.53-1.03.11-2.14-.6-3.21-.94,0,0-.01.01-.02.02,0,0,0,0,0-.01-2.81,1.1-5.62,2.2-8.41,3.32-.22.09-.47.37-.51.59-.22,1.46-.3,1.54-1.59,1.44-.76-.05-1.73-.36-2.25-.01-3.93,2.61-8.38,1.08-12.55,1.66-.42.06-1.22-.22-1.26-.45-.09-.47.07-1.16.4-1.49,1.29-1.31,2.7-2.51,4.05-3.76.3-.28.53-.62.8-.93-.1-.15-.21-.3-.31-.44-.79.56-1.72.98-2.33,1.69-2.89,3.33-6.59,5.09-10.86,5.72-6.03.88-12.07,1.68-18.12,2.47-.62.08-1.3-.21-1.95-.34.37-.47.77-.92,1.11-1.41,2.7-4,6.97-6.03,10.96-8.19,3.16-1.72,6.61-3.7,10.65-2.24.7.25,1.65-.16,2.49-.28,2.94-.4,5.89-.77,8.82-1.23,1.16-.18,2.3-.53,3.45-.83.27-.07.54-.39.76-.34,4.02.89,7.12-2.19,10.88-2.46,3.38-.24,6.76-.62,10.14-.84,1.04-.07,1.5.63.87,1.52-.68.96-1.5,1.86-2.38,2.65-1.3,1.17-2.95,2.07-2.84,4.18,0,0,0,0,0,0,0,0,0,0,0,0,.84-.83,1.66-1.68,2.52-2.49,1.68-1.58,3.24-3.34,5.13-4.63,1.7-1.16,3.68-2.13,5.68-2.6,4.26-1.01,8.61-1.65,12.93-2.43.28-.05.59-.15.84-.07.44.13.94.3,1.2.63.12.15-.16.84-.43,1.06-1.26,1.02-2.57,1.99-3.89,2.94-1.14.82-2.95.82-2.91,3.05.01.64-1.72,1.25-2.56,1.99-.71.63-1.29,1.41-1.93,2.12,0,0,0,0,0,0,0,0,0,0,0,0,3.48-2.41,7.06-4.68,10.4-7.27,3.09-2.4,6.16-4.69,9.76-6.32,1.93-.87,3.48-2.61,5.18-3.98,7.05-5.7,14.05-11.46,21.17-17.06,1.46-1.15,3.31-1.91,5.1-2.5,2.46-.81,3.55-.06,4.43,2.45.12.34.49.75.81.84,4.69,1.25,7.59,5.07,11.22,7.82,2.76,2.09,5.28,4.49,7.92,6.74.32.28.74.47.99.8,3.6,4.78,8.54,8.04,13.32,11.38,4.62,3.23,7.81,7.73,11.72,11.58,5.14,5.07,10.56,9.85,15.84,14.78.77.72,1.56,1.46,2.13,2.34,2.74,4.27,6.53,7.26,10.74,10.05,4.27,2.82,8.01,6.47,11.92,9.82,2.09,1.79,4.06,3.73,6.07,5.62,1.06.99,2.85,2.1,1.76,3.59-1.16,1.57-2.62-.07-3.6-.88-4.52-3.75-8.89-7.68-13.39-11.46-4.12-3.46-8.33-6.81-12.5-10.21-.49-.4-1.08-.76-1.42-1.27-2.92-4.33-7.38-6.98-11.13-10.41-1.4-1.28-2.53-2.86-3.89-4.2-6.54-6.47-12.93-13.12-19.74-19.29-6.16-5.59-12.79-10.66-19.25-15.92-2.24-1.82-4.68-3.4-6.88-5.27-1.42-1.21-2.81-2.6-3.77-4.18-.95-1.57-1.79-1.89-3.17-.8-5.5,4.35-10.93,8.78-16.49,13.05-4.76,3.66-9.66,7.14-14.49,10.72-1.14.84-2.22,1.75-3.33,2.63,1.91.92,2.5,2.06,1.42,3.37-.8.98-1.13,1.5.18,2.19.31.16.44.67,1.02,1.61-.45-3.94,2.14-5.99,4.33-6.61,2.24-.63,2.88-2.31,4.34-3.34,1.19-.83,1.62-.76,1.86.79,1.54,10.06,1.24,20.2,1.29,30.32,0,1.56.07,3.12.02,4.68-.08,2.65-1.52,3.99-4.1,3.6-3.01-.45-5.91-.64-8.96.02-3.33.72-4.76-.52-5.21-3.89-.5-3.79-.95-7.6-1.25-11.41-.11-1.38.3-2.8.37-4.2.07-1.56.02-3.12.02-4.68-.31,0-.63,0-.94,0,0,2.7.02,5.41,0,8.11-.04,4.53-.06,9.06-.19,13.59-.07,2.38-.71,2.83-3.04,2.62-5.16-.48-5.18-.48-5.06-5.64.09-4.11.11-8.22.37-12.31.26-3.98,1.98-7.15,6.18-8.07,2.33-.51,2.55-2.84,4.12-3.94.44-.31.6-1.02,1.04-1.32,2.03-1.34,2.6-3.2,2.2-5.49-5.02,3.66-10.12,7.22-15.03,11.02-4.36,3.37-8.27,7.38-12.84,10.42-3,1.99-5.87,3.99-8.45,6.5-1.61,1.57-3.58,2.77-5.41,4.1ZM273.28,42.65c0-.85,0-1.75.29-2.52.27-.7.97-1.77,1.43-1.75.85.05,1.78.65,2.46,1.27.39.35.44,1.18.47,1.8.07,1.28.39,1.54,1.69.95,2.03-.93,3.59.18,3.8,2.44.11,1.13.27,2.25.43,3.37.03.19.18.36.31.6.21-.1.46-.13.54-.27,1.44-2.45,2.59-2.54,4.07-.02.65,1.1,1.03,2.52,1.06,3.8.1,5.09.04,10.18-.02,15.28,0,.76-.1,1.66-.51,2.23-.43.6-1.34,1.23-1.98,1.18-.56-.05-1.09-.99-1.55-1.6-.17-.23-.1-.63-.19-1.33-.88,3.7-1.86,4.26-5.31,3.78-1.52-.21-3.09-.07-4.64-.04-1.24.02-2.36-.21-2.57-1.64-.59-4.02-1.25-8.05-1.55-12.09-.1-1.39.77-2.86,1.17-4.3.24-.87.55-1.75.57-2.63.08-2.83.01-5.67.05-8.5ZM252.25,38.5c.21-1.23.56-2.46.59-3.7.1-3.96,0-7.92.13-11.87.05-1.7,1.41-2.19,2.89-1.22,1.81,1.19,3.76,2.21,5.37,3.62.84.73,1.3,2.1,1.54,3.26.31,1.47.22,3.02.3,4.54.15,0,.29.02.44.02.25-.87.43-1.77.79-2.59.29-.66.9-1.8,1.16-1.74.8.17,1.75.64,2.21,1.3,2.55,3.67,3.5,7.74,3.39,12.25-.19,8.21-.08,16.42.03,24.63.04,2.96-.39,3.62-3.4,3.58-3.26-.05-6.52-.05-9.77-.25-3.4-.22-4.23-1.25-4.77-4.54-.41-2.49-1.14-4.93-1.96-7.42,0,2.48,0,4.96,0,7.44,0,3.52-.31,3.25-3.62,3.83-4.05.71-7.9.09-11.85-.24-2.57-.21-3.09-.34-3.36-2.98-1.15-11.3-1.35-22.62-.55-33.96.13-1.91.21-3.83.55-5.7.32-1.74,1.17-3.08,3.22-3.48.93-.18,1.69-1.18,2.56-1.76.51-.34,1.08-.58,1.63-.86.24.54.51,1.07.69,1.63.2.6.31,1.22.51,2.04.59-1.69,1.04-3.21,1.67-4.64.21-.48.89-.76,1.36-1.13.29.45.59.89.87,1.34.25.4.49.8.74,1.2.35-.39.75-.76,1.05-1.19.23-.34.31-.79.51-1.17.74-1.42,1.8-1.55,2.43-.09.77,1.78,1.46,3.73,1.53,5.63.13,3.53-.25,7.07-.33,10.62-.03,1.37-.34,2.94,1.44,3.63ZM202.75,180.48c-1.61,5.49-1.2,11.18-1.78,16.77-.2,1.94-.62,3.86-.9,5.8-.08.55-.27,1.21-.05,1.65,1.08,2.16.78,4.39.63,6.66-.07,1.06.38,2.16.6,3.25.09.47.3.95.26,1.41-.39,4.43-.86,8.86-1.21,13.3-.1,1.18-.52,2.1-1.7,1.9-.65-.11-1.53-1.02-1.65-1.68-.3-1.66-.22-3.38-.32-5.08-.02-.4-.18-.78-.28-1.18-.2,0-.4,0-.59,0-.24,1.94-.47,3.88-.71,5.82-.35,2.79-.43,2.84-3.23,2.47-.34-.04-.76.23-1.09.45-1.97,1.31-3.22.84-3.44-1.55-.27-2.96-.27-5.94-.4-8.92-.04-.85-.02-1.71-.18-2.54-.08-.4-.53-.73-.81-1.08-.17.42-.5.84-.5,1.26,0,2.69.08,5.38.14,8.08,0,.43.05.85.06,1.27.09,2.61-.52,3.85-2.02,3.78-2.26-.11-2.45-2.04-2.48-3.59-.1-5.38.05-10.77.04-16.15-.01-8.43-.13-16.86-.11-25.29.03-9.21.21-18.41.26-27.62.04-6.79-.06-13.59-.05-20.38.01-7.01.16-14.02.11-21.03-.06-7.94-.33-15.87-.4-23.81-.07-8.86-.03-17.72,0-26.58,0-3.28,2.87-6.7,6.08-7.37.27-.06.61-.04.8-.2,1.47-1.24,2.9-2.54,4.38-3.78.44-.37,1.02-.58,1.53-.86.23.57.6,1.13.66,1.72.27,2.75.45,5.5.83,8.28.55-4.6-.9-9.62,3.06-13.43.09.19.43.57.47.99.49,4.93.9,9.87,1.4,14.79.4,3.94.95,7.86,1.31,11.8.23,2.61.21,5.23.36,7.85.11,1.88.34,3.75.47,5.62.05.7.11,1.46-.09,2.11-1.87,6.03.04,12.1-.24,18.14-.14,3.03-.1,6.07-.22,9.11-.26,6.5-.6,13-.84,19.5-.07,1.98.07,3.97.08,5.95,0,1.37-.06,2.7-1.64,3.38-.23.1-.35,1.21-.11,1.49,1.8,2,1.87,4.34,1.6,6.8-.17,1.55-.07,3.14-.35,4.66-.13.73.97,2.65-1.36,2.03-.06-.01-.28.32-.3.51-.3,2.47-.58,4.95-.86,7.42.19.03.38.05.57.08.35-1.56.67-3.13,1.09-4.67.11-.39.58-.69.89-1.03.29.36.77.7.82,1.09.27,1.96.38,3.95.63,5.91.16,1.3.47,2.58.7,3.87.05.27.17.57.1.81ZM231.36,227.35c-.23,3.37-.74,3.86-4.15,3.94-.28,0-.59-.09-.85-.02-2.6.75-4.8.48-5.84-2.4-.37.18-.55.21-.6.31-.55.99-.58,2.51-2.27,2.37-2.68-.23-4.04-1.15-4.25-3.31-.43-4.58-.72-9.18-.97-13.77-.35-6.71-.62-13.43-.9-20.15-.08-1.82-.1-3.65-.18-5.47-.01-.25-.24-.48-.36-.72-.2,0-.41,0-.61,0-.11,2.11-.32,4.22-.32,6.32-.01,10.19.03,20.38.06,30.58,0,1.13.08,2.26.11,3.39.05,2.05-.96,3.08-3.1,3.2-2.17.12-3.12-.55-3.15-2.73-.11-7.43-.02-14.86-.14-22.28-.17-11.25,1.35-22.51-.22-33.76-.14-1.01.25-2.09.33-3.15.69-9.05.51-18.08-.24-27.12-.37-4.5-.17-9.04-.16-13.56,0-.76.22-1.56.5-2.27.63-1.56,2.43-2.37,4.26-2,1.74.35,1.61,1.8,1.61,3.03-.01,5.6-.28,11.2,1.08,16.72.4,1.62-.27,2.64-1.8,3.37-2.51,1.2-2.68,1.7-2.2,4.62.71-.67,1.21-1.16,1.74-1.62,2.19-1.89,4.61-2.07,7.25-.54,1.95,1.13,2.84,3.51,2.3,6.14-.56,2.73-2.57,4.63-5.18,4.91-.63.07-1.26.13-1.89.24-1.16.21-1.41.67-1.28,2.03.37,3.85.33,7.74.44,11.61.04,1.32,0,2.64,0,3.96.32,0,.63,0,.95,0,.04-3.96.22-7.93.07-11.89-.12-3.22-.33-3.58,2.86-3.96,5.53-.65,8.92-9.44,4.44-13.53-1.35-1.24-3.2-2.01-4.93-2.74-1.06-.45-1.63-.85-1.6-2.09.13-5.17.08-10.35.28-15.52.19-4.83.7-5.19,5.47-4.85.78.05,1.55.14,2.32.27,1.66.28,2.74,1.09,2.64,2.98-.02.38.16.76.63,1.17.13-.57.29-1.14.37-1.72.18-1.33.69-2.36,2.21-2.36,1.44,0,2.71.43,3.14,2,.26.95.51,1.94.53,2.92.12,6.3.11,12.6.27,18.9.14,5.66.56,11.31.66,16.96.21,11.55.31,23.1.44,34.65.1,8.42.18,16.83.26,25.25,0,.57-.04,1.13-.07,1.7ZM219.36,108.21c-2.6-5.72-1.44-11.31,2.29-15.75,4.95-5.9,12.5-6.44,17.39.52,1.36,1.93.96,2.3-1.05,3.4-1.5.82-3.08,2.19-3.77,3.71-2.01,4.41-1.79,10.75,2.54,13.71,1.4.96,1.23,2.42-.28,3.24-1.01.55-2.23.7-2.91.9-6.88-.79-11.54-3.86-14.21-9.74ZM259.43,212.55c.79.22,1.61.33,2.42.48-.75.41-1.52.78-2.24,1.24-.42.26-.75.66-1.12.99.45.28.87.77,1.34.81,2.89.27,5.79.48,8.69.64,3.05.16,3.7.84,3.62,3.91-.04,1.7.03,3.4.02,5.1-.01,1.49.12,3.17-1.59,3.84-1.93.76-4.07,1.31-5.83-.25-.99-.88-1.69-1.16-2.67-.21-.05.05-.12.07-.18.1-4.88,2.43-6.32,1.83-6.64-3.49-.4-6.63-.31-13.29-.46-19.94-.09-3.94-.29-7.88-.36-11.82-.04-2.03.09-4.07.15-6.11.09-3.4.45-6.81.19-10.18-.35-4.66-.08-9.39-.89-13.94-.34-1.92-.12-3.83-.57-5.68-.11-.47-.27-.92-.4-1.39-.41.48-1.14.93-1.18,1.44-.15,1.76-.31,3.59,0,5.3.68,3.63.45,7.22.39,10.87-.13,7.86.26,15.73.25,23.59-.01,9.49-.18,18.97-.39,28.46-.02,1.1-.46,2.5-1.22,3.21-2.13,1.99-4.21,1.32-5.16-1.45-.35-1.04-.58-2.11-.86-3.17-.16,0-.31.02-.47.03-.08.66-.11,1.32-.25,1.97-.19.89-.27,1.89-.74,2.62-.4.63-1.31,1.33-1.95,1.29-.53-.03-1.34-1.05-1.42-1.71-.29-2.37-.39-4.78-.44-7.17-.07-3.09-.02-6.18-.02-9.27-.23-.01-.47-.03-.7-.04-.1,1.32-.29,2.64-.29,3.96,0,3.05.09,6.09.12,9.14.01,1.13.17,2.31-.1,3.38-.19.75-.98,1.34-1.5,2.01-.65-.61-1.79-1.16-1.87-1.84-.65-5.4-1.26-10.82-1.56-16.26-.34-6.22-.4-12.46-.46-18.69-.03-3.11.34-6.23.3-9.34-.06-4.61-.39-9.21-.47-13.82-.14-8.2-.13-16.4-.27-24.61-.08-4.75-.34-9.49-.52-14.23-.04-1.06-.11-2.12-.16-3.18-.18-3.57.96-4.78,4.32-3.75,1.8.55,3.7.79,5.58,1.04.57.08,1.21-.26,1.81-.45,4.12-1.28,6.26-.11,6.59,4.13.44,5.64.48,11.31.73,16.97.1,2.26.27,4.51.53,6.76.04.37.73.67,1.12,1,.24-.37.7-.74.69-1.11-.06-3.4-.24-6.79-.31-10.18-.09-4.75-.2-9.5-.12-14.24.02-1.12.85-3.22,1.12-3.19,1.72.2,3.41.81,5.06,1.41.34.13.5.77.78,1.24,2.58-4.34,4.31-3.81,6.5,1.59.19-1.11.17-1.87.47-2.47.32-.61.94-1.44,1.46-1.47.52-.02,1.43.77,1.55,1.33.41,2.01.59,4.06.77,6.1.33,3.66.77,7.32.86,10.98.08,3.03-.43,6.07-.41,9.11.04,4.31.38,8.62.51,12.94.24,8.06.45,16.13.63,24.19.11,4.87.11,9.74.21,14.6.04,1.82-.79,2.83-2.55,3.02-2.11.22-4.24.26-6.34.55-1.59.22-3.18.61-4.7,1.12-.4.13-.56.99-.83,1.51.47.24.92.55,1.42.69ZM272.05,99.06c-2.07-.32-3.15.91-3.81,2.38-.85,1.9-1.28,3.99-1.66,5.24.34,4.14,1.15,7.13,3.93,9.26,1.23.94,1.05,2.39-.53,2.9-1.49.48-3.27.82-4.75.47-5.9-1.38-9.92-5.18-11.72-10.87-.68-2.16-.46-4.8,0-7.09.47-2.38,1.47-4.75,2.69-6.87,2.12-3.68,7.87-5.09,11.65-3.16,2.46,1.26,4.49,2.99,5.65,5.54.73,1.59.21,2.45-1.46,2.2ZM285.45,229.75c-2.09.38-2.95-.41-3.52-2.72-.21-.87-.41-1.74-.61-2.61-.15.03-.29.05-.44.08-.17,1.1-.05,2.37-.57,3.26-.52.9-1.64,1.88-2.57,1.96-.71.06-2.04-1.1-2.23-1.93-.66-2.81-1.04-5.7-1.31-8.58-.17-1.79.74-2.69,2.72-2.57,3.39.21,6.79.22,10.18.33,2.08.06,3,.91,3.08,2.98.08,2.05.1,4.1.08,6.15-.03,2.39-.79,2.91-4.81,3.64ZM291.16,194.78c-.02,3.73-.23,7.47-.57,11.18-.06.69-1.14,1.75-1.84,1.83-3.73.42-7.48.69-11.23.8-2.15.06-2.95-.81-2.95-3.01,0-4.89.34-9.78.16-14.66-.4-10.75-1.08-21.49-1.57-32.24-.14-3.04-.02-6.09-.03-9.13-.02-6.02-.06-12.05-.06-18.07,0-1.06-.1-2.2.27-3.15.3-.76,1.25-1.79,1.87-1.76.85.04,2.02.78,2.4,1.55.54,1.08.48,2.46.68,3.72.87-2.07-.62-5.52,3.61-5.44,3.27.06.98,3.24,2.73,4.49.22-.83.46-1.58.62-2.35.22-1.06.32-2.23,1.78-2.22,1.45,0,2.46.74,2.7,2.21.24,1.47.46,2.95.5,4.43.34,10.54.74,21.08.9,31.63.16,10.06.09,20.12.03,30.18ZM310.36,225.79c-.22.69-1.04,1.18-1.6,1.76-.56-.54-1.43-1-1.63-1.65-.6-1.94-.94-3.96-1.87-5.97-.14,1.62-.27,3.25-.41,4.87-.06.71.08,1.51-.22,2.09-.33.65-1.13,1.59-1.6,1.52-.72-.11-1.64-.84-1.91-1.53-.55-1.4-.72-2.94-1.39-4.38-.22,1.3-.24,2.68-.74,3.86-.3.72-1.27,1.4-2.07,1.61-1.17.31-2.41-.15-2.62-1.52-.35-2.3-.55-4.64-.63-6.96-.02-.47.84-.94,1.24-1.45.6-.76,1.62-1.53,1.66-2.34.19-3.74.27-7.49-1.89-10.9-.67-1.05-.89-2.57-.85-3.86.11-3.6.72-7.2.67-10.79-.08-6.01-.57-12.02-.78-18.04-.21-5.94-.37-11.89-.44-17.83-.14-12.82-.15-25.64-.35-38.45-.06-3.74-.81-7.48-.9-11.22-.15-6.5.02-13.01-.05-19.52-.08-7.49-.31-14.99-.39-22.48-.02-1.97.16-3.96.44-5.92.26-1.82.91-2,2.42-1.07,2.48,1.52,3.96,3.45,3.6,6.61-.19,1.68.22,3.43.36,5.15.17,0,.34,0,.51,0,.4-1.61.75-3.24,1.24-4.82.17-.53.71-.94,1.08-1.41.43.42,1.09.76,1.26,1.26.76,2.28,2.11,3.93,4.29,5,1.55.76,1.37,2.32,1.42,3.74.33,10.12.73,20.24.98,30.36.19,7.78.18,15.56.3,23.34.06,4.25.21,8.5.3,12.74.25,11.59.54,23.18.7,34.77.13,9.2.1,18.4.14,27.6.03,7.5.07,14.99.07,22.49,0,1.13-.02,2.31-.36,3.36ZM330.9,222.36c-.05.9-.16,1.84-.5,2.66-.2.48-.89.95-1.41,1.03-.31.05-.89-.62-1.09-1.07-.46-1.1-.72-2.29-1.16-3.41-.21-.52-.64-.96-.97-1.44-.18.5-.48,1-.52,1.52-.09,1.06-.02,2.13-.08,3.19-.04.7-.02,1.48-.32,2.07-.28.55-.94,1.23-1.45,1.25-.45.01-1.21-.75-1.33-1.29-.47-2.07-.75-4.18-1.1-6.27-.11-.65-.21-1.31-.74-1.96-.19,1.38-.36,2.76-.58,4.13-.15.91-.33,1.81-.59,2.69-.43,1.45-1.5,1.99-2.94,1.87-1.55-.12-2.26-1.09-2.36-2.53-.2-3.18-.45-6.36-.49-9.55-.19-14.94-.21-29.89-.5-44.83-.17-8.98-.81-17.95-1.06-26.93-.26-9.48-.32-18.96-.45-28.44-.16-11.83-.34-23.65-.43-35.48-.01-1.75.37-3.51.75-5.23.12-.55.84-1.35,1.29-1.35.53,0,1.42.63,1.55,1.15.34,1.34.32,2.77.5,4.16.17,1.36.39,2.7.6,4.06.5-1.22,1.14-2.4,1.47-3.66.31-1.19.66-1.52,1.88-.98,1.67.74,2.67,1.79,2.61,3.69-.05,1.49-.09,2.98-.04,4.46.01.42.34.82.53,1.23.3-.36.63-.69.88-1.08.14-.23.07-.58.21-.82.39-.68.83-1.33,1.25-1.99.67.47,1.65.8,1.94,1.44.57,1.24.98,2.65,1.05,4.02.16,3.18-.17,6.4.17,9.55.46,4.21,1.4,8.36,2.09,12.55.51,3.07.33,5.98-1.25,8.84-1.08,1.96-1.68,4.21-2.3,6.38-.23.8-.19,1.95.24,2.62,1.32,2.11.98,4.31.96,6.58-.02,1.76.5,3.53.84,5.29.12.61.66,1.19.65,1.78-.08,4.35.9,8.64-.08,13.09-.65,2.92-.01,6.17.3,9.24.17,1.71.32,3.17-1.15,4.45-.5.44-.81,1.39-.77,2.09.07,1.32.12,2.81.75,3.92,2.55,4.51,2.28,9.21,1.4,14.01-.14.75-.57,1.44-.74,2.19-.5,2.3-.93,4.61-1.38,6.92.25.07.5.14.75.22,1.9-1.33,2.64-1.01,2.87,1.36.61,6.33.99,12.67.21,19.02-.14,1.18.1,2.41.03,3.6Z"/><path d="M114.53,34.25c-.27-.16-.81-.35-.8-.49.05-.58.08-1.39.45-1.69,1.6-1.27,3.29-2.43,5-3.55.76-.5,1.61-.92,2.48-1.2.51-.16,1.13.04,1.7.08-.14.5-.12,1.2-.45,1.46-1.52,1.23-3.1,2.4-4.73,3.47-1.11.73-2.36,1.25-3.64,1.91Z"/><path d="M162.03,124.31c-1.05-2.4.4-11.61,2.28-14.63.68,5.51-1.08,10.02-2.28,14.63Z"/><path d="M299.56,157.74v18.86c-1.81-6.25-1.17-12.55-.78-18.86.26,0,.52,0,.78,0Z"/><path d="M219.24,155.23c.12,4.32-1.77,8.91-6.88,8.42-3.93-.62-6.99-4.65-7.82-8.42-1.01-4.56,3.21-9.1,7.82-8.92,5.08.12,7.07,4.43,6.88,8.92h0ZM218.82,155.23c-.09-4.36-6.84-5.55-9.76-3.31-4.18,3.32-2.5,9.61,3.31,8.22,2.63-.6,6.49-1.49,6.46-4.91h0Z"/><path d="M464.58,80.51c0,.78-.17,1.75-.5,2.92l-2,6.76c-.61,2.06-1.36,3.5-2.25,4.34s-2.17,1.25-3.84,1.25c-1.39,0-2.46-.36-3.21-1.08-.75-.72-1.46-1.86-2.13-3.42l-1.42-3.42c-.45-1.06-.92-1.78-1.42-2.17-.5-.39-1.28-.58-2.34-.58h-1.92l-10.6,37.3c-.17.72-.25,1.36-.25,1.92,0,.67.1,1.22.29,1.67.2.45.49.92.88,1.42.5.78.75,1.42.75,1.92,0,.11-.05.39-.17.83-.28.72-.82,1.25-1.63,1.59-.81.33-1.96.5-3.46.5h-19.61c-1.17,0-2.07-.19-2.71-.58-.64-.39-.96-.95-.96-1.67,0-.33.08-.67.25-1,.22-.5.49-.88.79-1.13.3-.25.76-.57,1.38-.96.83-.5,1.53-1.06,2.09-1.67.55-.61,1.03-1.56,1.42-2.84l10.51-37.3h-1.92c-1.22,0-2.22.2-3,.58-.78.39-1.61,1.11-2.5,2.17l-2.75,3.42c-1.28,1.5-2.52,2.63-3.71,3.38-1.2.75-2.49,1.13-3.88,1.13-1.28,0-2.28-.33-3-1-.72-.67-1.08-1.59-1.08-2.75,0-.56.08-1.17.25-1.84l2.17-7.59c.44-1.56.94-2.74,1.5-3.55.55-.81,1.35-1.39,2.38-1.75,1.03-.36,2.49-.54,4.38-.54h48.65c3.06,0,4.59,1.25,4.59,3.75Z"/><path d="M515.77,78.09c1.14.89,1.71,2.11,1.71,3.67,0,.78-.11,1.53-.33,2.25l-2.17,7.76c-.39,1.5-.96,2.54-1.71,3.13s-1.82.88-3.21.88-2.38-.29-3.13-.88-1.32-1.54-1.71-2.88l-1.33-4.76c-.28-1-.61-1.67-1-2-.39-.33-1.14-.5-2.25-.5h-8.76l-4.17,14.85h3.67c.39,0,.92-.28,1.59-.83l2.84-2.5c.83-.72,1.56-1.25,2.17-1.59.61-.33,1.36-.5,2.25-.5,1,0,1.82.26,2.46.79.64.53.96,1.21.96,2.04,0,.22-.06.56-.17,1l-3.42,11.6c-.33,1.22-.9,2.13-1.71,2.71-.81.58-1.68.88-2.63.88-1.56,0-2.73-.81-3.5-2.42l-1.42-2.92c-.39-.83-1-1.25-1.84-1.25h-3.25l-4.92,17.69h7.34c1.06,0,1.99-.21,2.79-.63.81-.42,1.68-1.15,2.63-2.21l5.01-5.51c.89-.95,1.74-1.63,2.54-2.04.81-.42,1.79-.63,2.96-.63s2.22.28,3,.83c.78.56,1.17,1.39,1.17,2.5,0,.45-.08.97-.25,1.59l-2.42,8.43c-.61,2.11-1.5,3.59-2.67,4.42-1.17.83-2.87,1.25-5.09,1.25h-39.8c-1.17,0-2.07-.19-2.71-.58-.64-.39-.96-.92-.96-1.59,0-.33.08-.69.25-1.08.22-.61.58-1.08,1.08-1.42.5-.33.81-.53.92-.58.89-.56,1.61-1.13,2.17-1.71.56-.58,1.03-1.54,1.42-2.88l10.26-35.96c.22-.72.33-1.39.33-2,0-.67-.1-1.22-.29-1.67-.2-.44-.49-.92-.88-1.42-.5-.72-.75-1.31-.75-1.75,0-.17.05-.47.17-.92.22-.72.72-1.24,1.5-1.54.78-.31,1.92-.46,3.42-.46h37.05c2.06,0,3.66.45,4.8,1.34Z"/><path d="M570.47,81.55c4.23,3.2,6.34,7.89,6.34,14.06,0,3.06-.56,6.59-1.67,10.6-1.83,6.45-4.31,11.57-7.43,15.35-3.12,3.78-7.22,6.54-12.31,8.26-5.09,1.73-11.61,2.56-19.57,2.5l-22.7-.08c-1.17,0-2.07-.19-2.71-.58-.64-.39-.96-.92-.96-1.59,0-.33.08-.69.25-1.08.17-.5.4-.86.71-1.08.31-.22.77-.53,1.38-.92.89-.5,1.6-1.06,2.13-1.67.53-.61.99-1.59,1.38-2.92l10.18-35.88c.22-.72.33-1.42.33-2.09,0-.61-.1-1.13-.29-1.54-.2-.42-.46-.9-.79-1.46-.5-.72-.75-1.31-.75-1.75,0-.17.05-.47.17-.92.22-.72.71-1.24,1.46-1.54.75-.31,1.9-.46,3.46-.46h22.53c8.34,0,14.63,1.6,18.86,4.8ZM555.95,92.02c0-2.95-.61-4.98-1.83-6.09-1.22-1.11-2.98-1.67-5.26-1.67h-1.84l-11.26,40.55h2c2.56,0,4.71-.54,6.47-1.63,1.75-1.08,3.38-3.09,4.88-6.01s3.06-7.19,4.67-12.81c1.45-5.23,2.17-9.35,2.17-12.35Z"/><path d="M633.21,81.55c4.23,3.2,6.34,7.89,6.34,14.06,0,3.06-.56,6.59-1.67,10.6-1.83,6.45-4.31,11.57-7.43,15.35-3.12,3.78-7.22,6.54-12.31,8.26-5.09,1.73-11.61,2.56-19.57,2.5l-22.7-.08c-1.17,0-2.07-.19-2.71-.58-.64-.39-.96-.92-.96-1.59,0-.33.08-.69.25-1.08.17-.5.4-.86.71-1.08.31-.22.77-.53,1.38-.92.89-.5,1.6-1.06,2.13-1.67.53-.61.99-1.59,1.38-2.92l10.18-35.88c.22-.72.33-1.42.33-2.09,0-.61-.1-1.13-.29-1.54-.2-.42-.46-.9-.79-1.46-.5-.72-.75-1.31-.75-1.75,0-.17.05-.47.17-.92.22-.72.71-1.24,1.46-1.54.75-.31,1.9-.46,3.46-.46h22.53c8.34,0,14.63,1.6,18.86,4.8ZM618.69,92.02c0-2.95-.61-4.98-1.83-6.09-1.22-1.11-2.98-1.67-5.26-1.67h-1.84l-11.26,40.55h2c2.56,0,4.71-.54,6.47-1.63,1.75-1.08,3.38-3.09,4.88-6.01s3.06-7.19,4.67-12.81c1.45-5.23,2.17-9.35,2.17-12.35Z"/><path d="M703.05,78.79c1.56,1.59,2.34,3.6,2.34,6.05,0,.33-.06.95-.17,1.84-.45,2.67-1.49,4.65-3.13,5.92-1.64,1.28-3.55,1.92-5.72,1.92-1.45,0-2.67-.22-3.67-.67-1-.44-1.95-1.2-2.84-2.25l-13.77,17.94-3.84,12.93c-.11.33-.17.78-.17,1.34,0,.78.19,1.43.58,1.96.39.53.95,1.1,1.67,1.71.61.56,1.06,1.03,1.33,1.42.28.39.33.83.17,1.33-.22.78-.76,1.32-1.63,1.63-.86.31-2.04.46-3.55.46h-21.03c-1.45,0-2.52-.26-3.21-.79-.7-.53-.93-1.26-.71-2.21.11-.5.32-.9.63-1.21.3-.31.79-.68,1.46-1.13.83-.5,1.53-1.07,2.09-1.71.56-.64,1.03-1.57,1.42-2.8l3.84-13.02-7.68-21.86c-.56-1.61-1.21-2.85-1.96-3.71-.75-.86-1.63-1.71-2.63-2.54-.61-.44-1.06-.83-1.33-1.17-.28-.33-.42-.72-.42-1.17,0-.67.29-1.21.88-1.63.58-.42,1.43-.63,2.54-.63h22.28c1.95,0,3.28.17,4.01.5.72.33,1.11.92,1.17,1.75,0,.5-.11.93-.33,1.29-.22.36-.56.79-1,1.29-.5.67-.88,1.21-1.13,1.63-.25.42-.38.93-.38,1.54,0,.17.05.53.17,1.08l3.84,14.69,10.6-15.1c2.28-3.23,4.44-5.53,6.47-6.93,2.03-1.39,4.3-2.09,6.8-2.09s4.45.79,6.01,2.38Z"/><path d="M433,143.82c2.64.75,5.33,1.93,8.05,3.55l1.92-1.59c1.33-1.06,2.43-1.78,3.29-2.17.86-.39,1.85-.58,2.96-.58,1.33,0,2.39.29,3.17.88s1.17,1.43,1.17,2.54c0,.45-.08.92-.25,1.42l-3.5,11.51c-.39,1.34-.88,2.28-1.46,2.84-.58.56-1.46.83-2.63.83s-2.29-.38-3.21-1.13c-.92-.75-2.35-2.29-4.3-4.63-1.95-2.22-3.71-3.8-5.3-4.71-1.59-.92-3.21-1.38-4.88-1.38-1.22,0-2.25.4-3.09,1.21-.84.81-1.25,1.79-1.25,2.96,0,1.33.67,2.57,2,3.71,1.34,1.14,3.42,2.57,6.26,4.3,2.89,1.72,5.29,3.28,7.18,4.67,1.89,1.39,3.51,3.12,4.84,5.17,1.34,2.06,2,4.42,2,7.09,0,1.72-.28,3.45-.84,5.17-1.33,4.45-3.92,7.83-7.76,10.14-3.84,2.31-8.32,3.46-13.43,3.46-3.84,0-7.06-.44-9.68-1.33-2.62-.89-5.29-2.39-8.01-4.51l-3,2.5c-1.39,1.17-2.53,1.96-3.42,2.38-.89.42-1.89.63-3,.63-1.28,0-2.29-.3-3.05-.92-.75-.61-1.13-1.45-1.13-2.5,0-.56.11-1.14.33-1.75l4.09-12.43c.44-1.45,1.06-2.47,1.84-3.09.78-.61,1.78-.92,3-.92s2.43.45,3.46,1.33c1.03.89,2.38,2.5,4.05,4.84,1.78,2.56,3.44,4.34,4.96,5.34,1.53,1,3.35,1.5,5.47,1.5,1.5,0,2.65-.24,3.46-.71.8-.47,1.38-1.24,1.71-2.29.11-.28.17-.69.17-1.25,0-1.33-.64-2.56-1.92-3.67-1.28-1.11-3.25-2.45-5.92-4-2.84-1.72-5.15-3.27-6.93-4.63-1.78-1.36-3.32-3.07-4.63-5.13-1.31-2.06-1.96-4.48-1.96-7.26,0-1.95.3-3.87.92-5.76,1.17-3.84,3.56-6.93,7.18-9.26,3.62-2.34,7.76-3.5,12.43-3.5,3.11,0,5.99.38,8.63,1.13Z"/><path d="M525.45,143.78c.64.39.96.89.96,1.5,0,.28-.08.64-.25,1.08-.17.39-.4.74-.71,1.04-.31.31-.58.53-.83.67-.25.14-.43.26-.54.38-.89.5-1.61,1.06-2.17,1.67-.56.61-1.03,1.56-1.42,2.84l-10.26,35.96c-.22.72-.33,1.42-.33,2.09s.1,1.2.29,1.58c.19.39.49.89.88,1.5.06.06.21.26.46.63.25.36.38.74.38,1.13,0,.11-.06.39-.17.83-.28.78-.81,1.32-1.58,1.63-.78.31-1.95.46-3.5.46h-19.61c-1.17,0-2.07-.19-2.71-.58-.64-.39-.96-.92-.96-1.59,0-.33.08-.69.25-1.08.22-.45.53-.82.92-1.13.39-.3.78-.57,1.17-.79.89-.5,1.61-1.07,2.17-1.71.56-.64,1.03-1.63,1.42-2.96l4-13.93h-14.77l-4.01,13.93c-.22.72-.33,1.42-.33,2.09s.1,1.2.29,1.58c.19.39.49.89.88,1.5.05.06.21.26.46.63.25.36.38.74.38,1.13,0,.11-.06.39-.17.83-.28.78-.81,1.32-1.58,1.63-.78.31-1.95.46-3.5.46h-19.61c-1.17,0-2.07-.19-2.71-.58-.64-.39-.96-.92-.96-1.59,0-.33.08-.69.25-1.08.22-.45.53-.82.92-1.13.39-.3.78-.57,1.17-.79.89-.5,1.61-1.07,2.17-1.71.56-.64,1.03-1.63,1.42-2.96l10.26-35.96c.22-.72.33-1.42.33-2.09,0-.61-.1-1.13-.29-1.54-.2-.42-.46-.9-.79-1.46-.22-.28-.42-.57-.58-.88-.17-.31-.25-.63-.25-.96,0-.11.05-.39.17-.83.22-.72.72-1.24,1.5-1.54.78-.31,1.95-.46,3.5-.46h19.61c1.17,0,2.07.2,2.71.58.64.39.96.89.96,1.5,0,.28-.08.64-.25,1.08-.17.39-.4.74-.71,1.04-.31.31-.58.53-.83.67-.25.14-.43.26-.54.38-.89.5-1.61,1.06-2.17,1.67-.56.61-1.03,1.56-1.42,2.84l-3.92,13.68h14.77l3.92-13.68c.22-.72.33-1.42.33-2.09,0-.61-.1-1.13-.29-1.54-.2-.42-.46-.9-.79-1.46-.22-.28-.42-.57-.58-.88-.17-.31-.25-.63-.25-.96,0-.11.05-.39.17-.83.22-.72.72-1.24,1.5-1.54.78-.31,1.95-.46,3.5-.46h19.61c1.17,0,2.07.2,2.71.58Z"/><path d="M581.19,144.53c1.14.89,1.71,2.11,1.71,3.67,0,.78-.11,1.53-.33,2.25l-2.17,7.76c-.39,1.5-.96,2.54-1.71,3.13s-1.82.88-3.21.88-2.38-.29-3.13-.88-1.32-1.54-1.71-2.88l-1.33-4.76c-.28-1-.61-1.67-1-2-.39-.33-1.14-.5-2.25-.5h-8.76l-4.17,14.85h3.67c.39,0,.92-.28,1.59-.83l2.84-2.5c.83-.72,1.56-1.25,2.17-1.59.61-.33,1.36-.5,2.25-.5,1,0,1.82.26,2.46.79.64.53.96,1.21.96,2.04,0,.22-.06.56-.17,1l-3.42,11.6c-.33,1.22-.9,2.13-1.71,2.71-.81.58-1.68.88-2.63.88-1.56,0-2.73-.81-3.5-2.42l-1.42-2.92c-.39-.83-1-1.25-1.84-1.25h-3.25l-4.92,17.69h7.34c1.06,0,1.99-.21,2.79-.62.81-.42,1.68-1.15,2.63-2.21l5.01-5.51c.89-.95,1.74-1.63,2.54-2.04s1.79-.63,2.96-.63,2.22.28,3,.83c.78.56,1.17,1.39,1.17,2.5,0,.45-.08.97-.25,1.58l-2.42,8.43c-.61,2.11-1.5,3.59-2.67,4.42-1.17.83-2.87,1.25-5.09,1.25h-39.8c-1.17,0-2.07-.19-2.71-.58-.64-.39-.96-.92-.96-1.59,0-.33.08-.69.25-1.08.22-.61.58-1.08,1.08-1.42.5-.33.81-.53.92-.58.89-.56,1.61-1.13,2.17-1.71.56-.58,1.03-1.54,1.42-2.88l10.26-35.96c.22-.72.33-1.39.33-2,0-.67-.1-1.22-.29-1.67-.2-.44-.49-.92-.88-1.42-.5-.72-.75-1.31-.75-1.75,0-.17.05-.47.17-.92.22-.72.72-1.24,1.5-1.54.78-.31,1.92-.46,3.42-.46h37.05c2.06,0,3.66.45,4.8,1.34Z"/><path d="M635.89,147.99c4.23,3.2,6.34,7.89,6.34,14.06,0,3.06-.56,6.59-1.67,10.6-1.83,6.45-4.31,11.57-7.43,15.35-3.12,3.78-7.22,6.54-12.31,8.26-5.09,1.72-11.61,2.56-19.57,2.5l-22.7-.08c-1.17,0-2.07-.19-2.71-.58-.64-.39-.96-.92-.96-1.58,0-.33.08-.7.25-1.08.17-.5.4-.86.71-1.08.31-.22.77-.53,1.38-.92.89-.5,1.6-1.06,2.13-1.67.53-.61.99-1.59,1.38-2.92l10.18-35.88c.22-.72.33-1.42.33-2.09,0-.61-.1-1.13-.29-1.54-.2-.42-.46-.9-.79-1.46-.5-.72-.75-1.31-.75-1.75,0-.17.05-.47.17-.92.22-.72.71-1.24,1.46-1.54.75-.31,1.9-.46,3.46-.46h22.53c8.34,0,14.63,1.6,18.86,4.8ZM621.37,158.46c0-2.95-.61-4.98-1.83-6.09-1.22-1.11-2.98-1.67-5.26-1.67h-1.84l-11.26,40.55h2c2.56,0,4.71-.54,6.47-1.63,1.75-1.08,3.38-3.09,4.88-6.01,1.5-2.92,3.06-7.19,4.67-12.81,1.45-5.23,2.17-9.34,2.17-12.35Z"/><path d="M698.63,147.99c4.23,3.2,6.34,7.89,6.34,14.06,0,3.06-.56,6.59-1.67,10.6-1.83,6.45-4.31,11.57-7.43,15.35-3.12,3.78-7.22,6.54-12.31,8.26-5.09,1.72-11.61,2.56-19.57,2.5l-22.7-.08c-1.17,0-2.07-.19-2.71-.58-.64-.39-.96-.92-.96-1.58,0-.33.08-.7.25-1.08.17-.5.4-.86.71-1.08.31-.22.77-.53,1.38-.92.89-.5,1.6-1.06,2.13-1.67.53-.61.99-1.59,1.38-2.92l10.18-35.88c.22-.72.33-1.42.33-2.09,0-.61-.1-1.13-.29-1.54-.2-.42-.46-.9-.79-1.46-.5-.72-.75-1.31-.75-1.75,0-.17.05-.47.17-.92.22-.72.71-1.24,1.46-1.54.75-.31,1.9-.46,3.46-.46h22.53c8.34,0,14.63,1.6,18.86,4.8ZM684.11,158.46c0-2.95-.61-4.98-1.83-6.09-1.22-1.11-2.98-1.67-5.26-1.67h-1.84l-11.26,40.55h2c2.56,0,4.71-.54,6.47-1.63,1.75-1.08,3.38-3.09,4.88-6.01,1.5-2.92,3.06-7.19,4.67-12.81,1.45-5.23,2.17-9.34,2.17-12.35Z"/><path d="M768.47,145.24c1.56,1.59,2.34,3.6,2.34,6.05,0,.33-.06.95-.17,1.84-.45,2.67-1.49,4.65-3.13,5.92-1.64,1.28-3.55,1.92-5.72,1.92-1.45,0-2.67-.22-3.67-.67-1-.44-1.95-1.2-2.84-2.25l-13.77,17.94-3.84,12.93c-.11.33-.17.78-.17,1.33,0,.78.19,1.43.58,1.96.39.53.95,1.1,1.67,1.71.61.56,1.06,1.03,1.33,1.42.28.39.33.83.17,1.33-.22.78-.76,1.32-1.63,1.63-.86.31-2.04.46-3.55.46h-21.03c-1.45,0-2.52-.26-3.21-.79-.7-.53-.93-1.26-.71-2.21.11-.5.32-.9.63-1.21s.79-.68,1.46-1.13c.83-.5,1.53-1.07,2.09-1.71.56-.64,1.03-1.57,1.42-2.79l3.84-13.02-7.68-21.86c-.56-1.61-1.21-2.85-1.96-3.71-.75-.86-1.63-1.71-2.63-2.54-.61-.44-1.06-.83-1.33-1.17-.28-.33-.42-.72-.42-1.17,0-.67.29-1.21.88-1.63.58-.42,1.43-.63,2.54-.63h22.28c1.95,0,3.28.17,4.01.5.72.33,1.11.92,1.17,1.75,0,.5-.11.93-.33,1.29-.22.36-.56.79-1,1.29-.5.67-.88,1.21-1.13,1.63-.25.42-.38.93-.38,1.54,0,.17.05.53.17,1.08l3.84,14.69,10.6-15.1c2.28-3.23,4.44-5.53,6.47-6.93,2.03-1.39,4.3-2.09,6.8-2.09s4.45.79,6.01,2.38Z"/><path d="M432.22,44.95c0,.29-.06.65-.19,1.08l-.74,2.5c-.23.76-.5,1.3-.83,1.61-.33.31-.8.46-1.42.46-.51,0-.91-.13-1.19-.4s-.54-.69-.79-1.27l-.53-1.27c-.17-.39-.34-.66-.53-.8-.19-.14-.47-.22-.87-.22h-.71l-3.92,13.81c-.06.27-.09.51-.09.71,0,.25.04.45.11.62.07.17.18.34.32.53.19.29.28.53.28.71,0,.04-.02.14-.06.31-.1.27-.3.46-.6.59-.3.12-.73.19-1.28.19h-7.26c-.43,0-.77-.07-1-.22-.24-.14-.36-.35-.36-.62,0-.12.03-.25.09-.37.08-.19.18-.32.29-.42.11-.09.28-.21.51-.36.31-.19.57-.39.77-.62.21-.23.38-.58.53-1.05l3.89-13.81h-.71c-.45,0-.82.07-1.11.22s-.6.41-.93.8l-1.02,1.27c-.47.56-.93.97-1.38,1.25s-.92.42-1.44.42c-.47,0-.85-.12-1.11-.37-.27-.25-.4-.59-.4-1.02,0-.21.03-.43.09-.68l.8-2.81c.16-.58.35-1.01.56-1.31.21-.3.5-.51.88-.65.38-.13.92-.2,1.62-.2h18.02c1.13,0,1.7.46,1.7,1.39Z"/><path d="M448.16,59.88c-.04.08-.06.21-.06.37,0,.14.04.26.11.34.07.08.17.12.29.12.25,0,.46-.11.63-.32.17-.22.29-.32.36-.32.1,0,.18.07.25.2.06.13.09.29.09.48.02.6-.18,1.18-.59,1.75-.41.57-1.01,1.03-1.81,1.39s-1.75.54-2.86.54c-1.36,0-2.44-.31-3.25-.94-.8-.63-1.22-1.47-1.24-2.52,0-.76.19-1.62.56-2.56l1.7-4.45c.1-.27.16-.48.16-.65,0-.27-.09-.48-.26-.63-.18-.15-.39-.23-.63-.23-.39,0-.79.18-1.19.54-.4.36-.73.94-.97,1.75v-.06l-1.95,6.27c-.06.25-.09.46-.09.65,0,.27.05.48.15.63.1.15.25.3.43.45.14.14.25.26.31.36s.07.21.03.36c-.1.27-.31.46-.62.59-.31.12-.78.19-1.42.19h-7.05c-.54,0-.93-.09-1.17-.26-.25-.17-.33-.41-.25-.7.08-.25.3-.46.65-.65.31-.16.57-.36.77-.59.21-.23.38-.59.53-1.08l4.7-15.42c.06-.19.09-.34.09-.46,0-.23-.06-.41-.17-.56-.11-.14-.26-.29-.45-.43-.21-.16-.36-.31-.45-.43s-.11-.29-.05-.49c.12-.47.77-.89,1.95-1.24,1.17-.35,2.4-.53,3.68-.53,1.19,0,2.08.23,2.64.68.57.45.85,1.07.85,1.85,0,.45-.07.9-.22,1.33l-1.67,5.44c.8-1.05,1.65-1.78,2.55-2.19.9-.41,1.87-.62,2.92-.62,1.26,0,2.27.38,3.04,1.14s1.16,1.75,1.16,2.97c0,.64-.1,1.27-.31,1.88l-1.88,6.09Z"/><path d="M467.32,48.89c1.17.83,1.76,1.9,1.76,3.2,0,.39-.04.75-.12,1.08-.31,1.36-1.17,2.33-2.58,2.92-1.41.59-3.08.88-4.99.88-.97,0-1.88-.06-2.72-.19-.02,1.07.27,1.82.87,2.26s1.43.65,2.5.65c.5,0,.97-.06,1.42-.17.45-.11,1.03-.28,1.73-.51.58-.21.97-.31,1.17-.31.23,0,.34.13.34.4.02.72-.25,1.48-.8,2.27-.56.79-1.38,1.47-2.47,2.02s-2.41.83-3.96.83c-2.29,0-4.16-.58-5.62-1.73s-2.19-2.83-2.19-5.04c0-.62.08-1.34.25-2.16.52-2.53,1.64-4.44,3.38-5.73,1.74-1.29,3.86-1.93,6.35-1.93,2.62,0,4.51.42,5.69,1.25ZM459.23,54.96c.87,0,1.52-.4,1.98-1.21.45-.8.67-1.7.65-2.69-.02-.58-.18-.87-.49-.87-.23,0-.49.18-.8.54-.31.36-.61.9-.91,1.62-.3.72-.55,1.58-.76,2.56.08.02.2.03.34.03Z"/><rect class="cls-1" x="343.03" y="217.28" width="414.11" height="36.88"/><path class="cls-2" d="M444.2,249.12c1.3.28,2.33-.21,3.86-.11.57-.31,1.23-1.07,2.1-1.23,1.24-.23,2.71.13,3.86,0,2.73-.31,3.46-1.52,4.03-3.14,2.22,1.14,5.61.59,8.77.22.66-.33.99-.86,1.75-1.12,3.39.36,5.74-.09,7.71-1.35,1.09.09,2.48-.02,3.16.34,1.08-.54,2.82-.66,3.86-1.23-.21-.76.87-1.38,1.05-2.24.86.2.66,1.07,1.05,1.57.69.18.06-.48.53-.45.36.35-.49.88-.18,1.57,2.09,1.91,1.88,4.75,5.61,5.72,2-.88,6.2.17,7.01-1.57.52.53,1.39.83,1.58,1.57,1.2.65,2.74.24,4.21.34.84.06,1.58.47,2.45.56,1.51.16,2.87-.13,4.38.11,1.47-.45,3.13-.76,4.03-1.57.06-.71-.21-1.63.35-2.02.81.64,1.53,1.34,1.93,2.24.69.42,1.68.64,2.28,1.12,1.53-.25,2.79.11,4.21,0,2.23-.18,2.98-1.28,4.56-1.91.18-2.43-.61-5.22-.35-7.74,2.87,1.38,3.04,4.48,5.79,5.94.26,1.03,1.41,1.49,1.93,2.35.93,1.05,2.59,1.63,3.51,2.69.26.13.44.13.7,0,.89,1.82,3.29,2.68,5.79,3.47,1.42-.35,2.63.27,3.86.22,1.2-.04,2.01-.83,3.33-.56.7-.49,1.4-.97,2.1-1.46-.2-.99,1.13-1.67-.53-2.35.41-.31,1,.2,1.4-.11.32-3.54.33-6.67.53-9.64.1-1.54.94-3.11.53-4.6.23-.3.78-.4.7-.9,3.74.71,4.25,3.48,7.54,4.48,1.57,1.38,3.54,2.52,6.14,3.25.15.39.8.46,1.05.78,1.8,0,2.69.6,4.03.9,2.28.06,4.46-.1,6.31,0,.43-.39,1.72-.39,2.63-.67,1.03-.33,1.75-.97,2.63-1.23.22-.07.67.09.88,0,.85-.36,1.24-1.01,1.93-1.46.96-.62,2.53-1.02,2.98-2.02,2.26-.95,4.33-2.02,6.66-2.92,1.14.09,1.56-.27,2.28-.45,3.53.06,7.11.09,7.19,2.35,3.57.65,8.56.73,10.17-1.35,1.45.34,3.09.57,4.21,1.12,2.71.05,4.43.8,7.54.9,3.49.11,7.25-.07,11.04.34,3.28.35,5.75.98,9.64,1.23,1.87.12,3.93.79,6.49.79,2.05,0,4.97-.27,6.49-.79,2.17-.74,2.65-2.74,4.03-3.81,3.58-1.06,9.58-.63,14.55-.78,3.72-.11,8.4-.78,12.45-1.12,6.29-.53,12.9-.71,19.64-.9,7.55-.21,13.76,1.21,20.51,2.24.04-.19-.3-.29,0-.34.82-.1-.24.29.35.34,5.36,1.18,14.55,1.57,20.16,1.35.04-.63-.63-.79-.88-1.23-1.79.4-2.14-.72-2.98-.56-.78-.01-.16.58,0,.67-.47.11-.68.39-1.23.45-.67-.66,1.04-.34.7-1.12-2.99-.98-6.75-1.62-10.17-2.02v1.01c-.59-.13-.1-.83-.35-1.12-1.99-.12-4.42-1.68-6.49-1.35-3.19-1.06-7-1.73-11.22-2.13-3.45-1.04-8.26-.44-12.62-.22-1.73.09-3.38-.14-4.91-.11-2.2.03-4.71.29-7.01.45-1.95.13-4,.35-5.61.79-5.3-.08-10.47.88-15.95.78-4.73-.08-9.78.11-14.55,1.01-1.87,1.23-4.2,2.17-5.26,3.92-2.22-.34-4.27-.78-6.14-1.35-.83-.05-.86.42-1.58.45-5.13-.65-12.4-.19-16.48-1.79-3.14.46-5.95-.53-9.47-.9-.71-.07-1.27-.43-1.93-.56-.37-.07-.47.14-.7.11-1.62-.17-2.33-.84-4.56-.67-2.66.2-6.64.97-8.94-.34-.36.07-1.22-.18-1.05.22-.56.1-.24-.37-.7-.34-1.94.28-4.41-.33-5.96.34-4.1.21-7.73,1.33-10.87,2.69-.34.76-1.56.94-2.45,1.35-1.81,1.46-3.71,2.86-6.14,3.92-.03.5-.52.72-1.05.9-2.11-.09-2.53-1.1-4.73-1.35-.48-1.11-2.4-1.3-2.98-2.35h-.88c-2.14-1.96-4.16-3.99-6.66-5.72-.56.07-.54-.21-.88,0-2.57-2.17-8.32-1.44-12.1-.67-.11.27-.11.49-.53.79-.63-.03-.85.21-1.4.22-.77,1.08-2.62,1.46-2.63,3.03-.33.16-.63.35-.88.56-.37,4.66-.78,8.24-1.23,12.67-1.31-.58-1.39-1.95-2.98-2.35-.57-1.39-1.5-2.55-2.98-3.36.14-1.31-1.61-2.31-2.1-3.59-.67-.02-.77-.41-1.23-.56,0-.26.3-.33.18-.67-.94-.78-1.67-1.69-2.1-2.8-1.53-1.15-2.88-2.42-4.73-3.36-1.06.16-1.77-.31-2.8-.34-1.14-.02-3.85.2-4.91.45-1.66.38-2.15,1.66-3.68,2.02-1.05-1.83-1.82-3.16-2.63-5.16-1.29-1.04-3.45-1.53-5.43-2.13-1.23.47-2.82.12-4.03.67-1.51-.96-3.4-2.09-5.96-2.02-1.12-1.68-2.13-3.42-5.44-3.7-1.22.41-3.55.61-4.91.56-1.48.62-2.42,1.59-3.68,2.35-1.97-1.83-6.48-1.89-10.17-1.01-.44.13-.18.71-.7.78-1.43.13-.82-1.04-2.28-.9-1.02-2.53-5.85-1.97-9.47-1.35-.57-.23-.73-.73-.7-1.35-.99-.71-2.66-.99-4.03-1.46-2.47-.08-4.31.9-6.66,1.23-.54.96-1.67,1.55-2.1,2.58-2.49-1.49-7.67-.57-9.99.34-1.7-.8-2.37.41-4.03.67-.36.06-.83-.06-1.05,0-1.53.44-2.07,1.37-2.1,2.24-2.85-.56-7.75-.2-8.59,1.57-2.62-.12-3.24-1.52-5.61-1.79-2.41.43-5.32.18-6.49,1.57-.35,0-.22-.31-.7-.22-.47.97-1.8,1.39-2.28,2.35-2.78.31-4.85,1.09-5.08,3.03-3.1-.04-7.43-.3-7.89,2.35-2.13-1.25-2.17-3.84-6.31-3.81-.8-.14-.69.31-1.4.22-1.37-.27-2.42-1.14-4.03-.9-1.52.92-3.79.72-4.91,1.79v.67c-1.26.96-3.45-.35-5.08-.22-.33-.68-1.42-.88-2.45-1.12-1.6.54-3.45.24-4.91.9-4.25-.39-10.73.36-15.43-.56-1.17-.23-2.12-.69-3.16-.67-1.86.02-5.57.77-5.61,1.91-.02.73,1.59.73,1.05,1.57,3.59,1.33,8.2,2.21,14.2,2.35,2.54.06,5.35-.34,8.06-.45.7-.03,1.93,0,2.46.11,1.6.37,1.58,1.72,3.16,1.68.08,2.8,7.55,3.57,11.92,2.58.21-.24.21-.61.7-.67,1.15.8,1.85,1.88,2.98,2.69,1.45-.03,2.41.25,3.33.56,1.38-.15,2.24-.5,3.33,0,.4-.19.75-.42,1.05-.67,1.16.08,1.77.51,2.45.9.55-.06,1.14-.09,1.58-.22-.02.53,1.28.58,1.93,1.01.27.18.22.54.53.67.04.02.35-.16.53-.11.19.05.07.31.18.34.31.08.42-.07.88,0,.66.1,1.56.73,2.63.67,1.07-.06,1.62-.69,2.45-.9-.43-.57-1.28-1.4-.88-2.13,2.77-.17,4.83-.8,5.96-2.02,1.29-.11,1.88.22,2.63.45.1.16-.2.58.18.56.13.38-.71.14-.53.56.84,2.78-1.64,7.44.7,9.53,1.58,1.42,5.88.78,8.42.22.54-.48,1.07-.96,1.23-1.68,3.99.03,6.41-1.35,6.84-3.25.3,1.08.01,3.17.18,4.48.62,1.16.74,2.75,2.28,3.59,2.77.67,7.69.38,8.42-1.35.38-.91-.55-2.11.35-3.36ZM541.15,250.47c-.03-.28-.03-.54.35-.56.1.27.68.24.53.67-.41.04-.67-.02-.88-.11ZM540.62,248.67h.53c.05.29-.06.48-.53.45v-.45ZM535.36,244.3c-.01.33-.4.42-.7.56-.05-.37.21-.54.7-.56ZM527.3,244.08c.08.35-.37.36-.88.34.07-.28.6-.52.88-.34ZM399.84,240.6c.02-.28.25-.43.7-.45.05.15.25.21.18.45-.23.14-.65.14-.88,0ZM588.66,239.93c-.18-.38.55-.17.88-.22.12.39-.61.4-.88.22ZM554.3,239.37c.46-.03.58.16.53.45h-.53v-.45ZM536.24,237.24c.46-.03.75.04.7.34-.22,0-.24.14-.53.11-.06-.15-.25-.21-.18-.45ZM564.12,235.89c.14.43-.37.43-.7.56.01-.33.4-.42.7-.56ZM606.02,233.54c.23-.14.65-.14.88,0,.19.65-.96.47-.88,0ZM737.16,233.2c.12.13.72.82,0,.78.32-.41-.8-.77,0-.78ZM567.62,232.87c0,.34-.16.57-.53.67,0-.34-.1-.74.53-.67ZM680.18,232.87c1.68-.47.47,1.12,0,0h0ZM607.6,232.87c-.08-.35.37-.36.88-.34.03.35-.62.5-.88.34ZM565.52,232.19c.44-.19.78-.44,1.4-.22.22.66-1.27.72-1.4.22ZM728.22,231.52c.33-.03.39.13.7.11-.02.29-.26.43-.7.45-.23-.15-.23-.41,0-.56ZM564.47,230.85c.2-.09.47-.15.88-.11.05.37-.21.54-.7.56.01-.2-.04-.35-.18-.45Z"/><path d="M615.37,261.29c.98.28,1.97.72,2.98,1.31l.71-.59c.5-.39.9-.66,1.22-.8.32-.14.69-.22,1.1-.22.49,0,.89.11,1.17.32.29.22.43.53.43.94,0,.17-.03.34-.09.53l-1.3,4.26c-.14.5-.32.85-.54,1.05-.22.21-.54.31-.97.31-.45,0-.85-.14-1.19-.42-.34-.28-.87-.85-1.59-1.71-.72-.82-1.38-1.41-1.96-1.75s-1.19-.51-1.81-.51c-.45,0-.83.15-1.14.45s-.46.66-.46,1.1c0,.5.25.95.74,1.38.49.42,1.27.95,2.32,1.59,1.07.64,1.96,1.22,2.66,1.73.7.52,1.3,1.15,1.79,1.92.5.76.74,1.64.74,2.63,0,.64-.1,1.28-.31,1.92-.49,1.65-1.45,2.9-2.87,3.75-1.42.86-3.08,1.28-4.98,1.28-1.42,0-2.62-.17-3.58-.5-.97-.33-1.96-.89-2.97-1.67l-1.11.93c-.51.43-.94.73-1.27.88-.33.15-.7.23-1.11.23-.47,0-.85-.11-1.13-.34-.28-.23-.42-.54-.42-.93,0-.21.04-.42.12-.65l1.51-4.6c.17-.54.39-.92.68-1.14.29-.23.66-.34,1.11-.34s.9.17,1.28.49c.38.33.88.93,1.5,1.79.66.95,1.27,1.61,1.84,1.98.57.37,1.24.56,2.02.56.56,0,.98-.09,1.28-.26.3-.17.51-.46.63-.85.04-.1.06-.26.06-.46,0-.5-.24-.95-.71-1.36s-1.21-.91-2.19-1.48c-1.05-.64-1.91-1.21-2.56-1.71-.66-.5-1.23-1.14-1.72-1.9-.48-.76-.73-1.66-.73-2.69,0-.72.11-1.43.34-2.13.43-1.42,1.32-2.57,2.66-3.43s2.87-1.3,4.6-1.3c1.15,0,2.22.14,3.2.42Z"/><path d="M636.63,265.94c.22.17.32.39.32.68,0,.08-.02.23-.06.43-.27.91-.89,1.36-1.85,1.36h-1.79l-2.32,7.63c-.1.31-.16.63-.16.96,0,.37.1.63.31.77.21.14.49.22.87.22.33,0,.74-.04,1.24-.12.25-.06.46-.09.65-.09.14,0,.25.05.33.14.07.09.11.21.11.36.02.41-.28.91-.91,1.5-.63.59-1.48,1.09-2.55,1.51s-2.26.63-3.55.63c-1.4,0-2.52-.32-3.37-.96s-1.27-1.51-1.27-2.63c0-.51.08-1.01.25-1.48l1.98-6.12c.1-.35.16-.63.16-.83,0-.41-.1-.76-.29-1.05-.2-.29-.47-.59-.82-.9-.31-.29-.53-.53-.65-.73-.12-.2-.15-.43-.09-.7.08-.27.26-.47.53-.62.27-.14.69-.22,1.27-.22h1.73l1.95-1.95c.68-.68,1.3-1.15,1.87-1.42.57-.27,1.3-.4,2.21-.4,1.3,0,1.95.49,1.95,1.48,0,.31-.04.6-.12.87l-.43,1.42h1.64c.39,0,.7.08.91.25Z"/><path d="M646.77,280.91c-1.12-.61-2.01-1.5-2.67-2.69-.66-1.18-.99-2.6-.99-4.25,0-1.26.22-2.66.65-4.2.95-3.3,2.44-5.62,4.47-6.98,2.03-1.36,4.2-2.04,6.5-2.04,2.1,0,4,.76,5.69,2.29l.93-.9c.51-.43.96-.73,1.33-.9s.8-.25,1.3-.25c.54,0,.97.13,1.3.39.33.26.49.6.49,1.04,0,.17-.03.36-.09.59l-1.11,3.89c-.21.66-.45,1.12-.73,1.39-.28.27-.65.4-1.13.4s-.93-.12-1.31-.37c-.38-.25-.82-.69-1.31-1.33-.66-.87-1.24-1.48-1.75-1.84-.51-.36-1.06-.54-1.65-.54-.93,0-1.81.47-2.64,1.41-.83.94-1.56,2.5-2.18,4.68-.39,1.42-.59,2.65-.59,3.68,0,1.09.21,1.92.63,2.49.42.57,1.01.85,1.78.85.66,0,1.17-.15,1.53-.46.36-.31.64-.84.85-1.61l.22-.77c.1-.41.15-.69.15-.83,0-.25-.06-.42-.17-.53-.11-.1-.3-.22-.57-.34l-1.08-.4c-.47-.19-.71-.53-.71-1.02,0-.14,0-.26.03-.34.08-.27.23-.46.45-.59s.55-.19,1-.19l9.33.03c.68,0,1.02.22,1.02.65,0,.08-.02.21-.06.37-.08.31-.22.56-.4.74-.19.18-.45.37-.8.56l-.8.46c-.21.12-.36.24-.46.36-.1.11-.18.25-.22.42l-1.64,5.72c-.21.68-.44,1.13-.7,1.36s-.57.34-.94.34h-1.3c-.5,0-.9-.1-1.22-.31-.32-.21-.58-.61-.79-1.21l-.31-.9c-1.48,1.73-3.34,2.6-5.56,2.6-1.38,0-2.63-.3-3.75-.91Z"/><path d="M680.93,266.39c1.17.83,1.76,1.9,1.76,3.2,0,.39-.04.75-.12,1.08-.31,1.36-1.17,2.33-2.58,2.92-1.41.59-3.08.88-4.99.88-.97,0-1.88-.06-2.72-.19-.02,1.07.27,1.82.87,2.26s1.43.65,2.5.65c.5,0,.97-.06,1.42-.17s1.03-.28,1.73-.51c.58-.21.97-.31,1.17-.31.23,0,.34.13.34.4.02.72-.25,1.48-.8,2.27s-1.38,1.47-2.47,2.02c-1.09.56-2.41.83-3.96.83-2.29,0-4.16-.58-5.62-1.73-1.46-1.15-2.19-2.83-2.19-5.04,0-.62.08-1.34.25-2.16.52-2.53,1.64-4.44,3.38-5.73,1.74-1.29,3.86-1.93,6.35-1.93,2.62,0,4.51.42,5.69,1.25ZM672.83,272.46c.87,0,1.52-.4,1.98-1.21s.67-1.7.65-2.69c-.02-.58-.18-.87-.49-.87-.23,0-.49.18-.8.54-.31.36-.61.9-.91,1.62-.3.72-.55,1.58-.76,2.57.08.02.2.03.34.03Z"/><path d="M700.23,266.99c1.33,1.13,1.99,2.62,1.99,4.45,0,.62-.08,1.31-.25,2.07-.39,1.69-1.12,3.17-2.19,4.43-1.07,1.27-2.38,2.25-3.94,2.94s-3.24,1.04-5.05,1.04c-2.86,0-4.98-.57-6.35-1.72-1.37-1.14-2.06-2.66-2.06-4.56,0-.64.08-1.35.25-2.13.39-1.61,1.14-3.03,2.24-4.28,1.1-1.25,2.45-2.21,4.05-2.9,1.6-.69,3.3-1.04,5.11-1.04,2.8,0,4.87.57,6.2,1.7ZM692.56,269.2c-.48.77-1.06,2.23-1.72,4.37-.66,2.14-.99,3.65-.99,4.51,0,.45.07.76.22.91.14.16.34.23.59.23.43.04.88-.33,1.34-1.11.46-.78,1.05-2.31,1.75-4.57.64-2,.96-3.45.96-4.36,0-.43-.07-.73-.2-.9s-.32-.25-.57-.25c-.43,0-.89.39-1.38,1.16Z"/><path d="M720.28,266.34c.69.7,1.04,1.57,1.04,2.6,0,.39-.04.75-.12,1.08-.21.85-.6,1.49-1.17,1.95s-1.27.68-2.07.68-1.38-.19-1.78-.56c-.4-.37-.76-.87-1.07-1.48-.17-.35-.32-.61-.46-.77-.14-.16-.31-.25-.49-.25-.21,0-.39.08-.54.25-.15.17-.29.45-.42.87l-2.38,7.73c-.04.1-.06.26-.06.46,0,.27.08.49.23.66s.37.34.63.51c.25.17.41.3.49.4.08.1.11.24.09.4-.04.27-.19.46-.45.59-.26.12-.7.19-1.31.19h-7.91c-.54,0-.92-.09-1.16-.26-.24-.17-.32-.41-.26-.7.08-.25.3-.46.65-.65.31-.16.57-.36.77-.59.21-.23.38-.59.53-1.08l2.75-8.93c.04-.1.06-.25.06-.43,0-.23-.05-.4-.14-.53s-.24-.28-.45-.46c-.21-.16-.35-.31-.43-.43-.08-.12-.09-.29-.03-.49.12-.47.77-.89,1.95-1.25,1.17-.36,2.4-.54,3.68-.54.84,0,1.54.19,2.1.57s.92.92,1.08,1.62c.99-1.46,2.29-2.19,3.89-2.19,1.15,0,2.08.35,2.77,1.05Z"/><path d="M740.9,260.67c.63.28,1.14.66,1.54,1.14.4.48.6,1,.6,1.56,0,1.22-.83,1.82-2.47,1.82-.47,0-.84-.04-1.1-.11s-.56-.19-.91-.36c-.06.14-.09.35-.09.62,0,.33.06.72.17,1.17.11.45.25.88.42,1.27.43.64.65,1.4.65,2.29,0,.39-.05.87-.15,1.42-.25,1.07-.79,2.05-1.62,2.94-.83.89-1.91,1.58-3.21,2.09s-2.75.76-4.31.76c-1.19,0-2.32-.08-3.37-.25-.31.27-.46.6-.46.99,0,.27.12.49.37.67s.66.26,1.24.26h4.64c1.59,0,2.82.27,3.71.82.89.55,1.33,1.32,1.33,2.33,0,.37-.06.75-.19,1.14-.25.8-.81,1.55-1.68,2.24-.88.69-2.11,1.25-3.69,1.68-1.59.43-3.51.65-5.78.65-2.02,0-3.73-.17-5.13-.53-1.4-.35-2.45-.83-3.14-1.44-.69-.61-1.04-1.28-1.04-2.02,0-.17.04-.41.12-.74.19-.6.6-1.09,1.25-1.47s1.71-.63,3.2-.76c-.49-.47-.74-1.04-.74-1.7,0-.23.03-.46.09-.71.33-1.07,1.3-1.86,2.9-2.38-1.54-.84-2.32-2.08-2.32-3.71,0-.45.06-.93.19-1.42.25-1.07.79-2.04,1.64-2.92.84-.88,1.93-1.57,3.25-2.09,1.32-.51,2.76-.77,4.33-.77,2.45,0,4.38.32,5.78.96-.31-.47-.55-.98-.73-1.53-.17-.54-.26-1.04-.26-1.5,0-.78.25-1.45.76-2.01.5-.56,1.27-.83,2.3-.83.66,0,1.3.14,1.93.42ZM726.11,282.07c-.58,0-1.1-.03-1.58-.09-.25.31-.37.72-.37,1.24.02.51.23.89.63,1.11.4.23,1.02.34,1.87.34,1.03,0,1.87-.15,2.52-.46.65-.31.97-.75.97-1.33,0-.25-.09-.44-.28-.59-.18-.14-.45-.22-.8-.22h-2.97ZM732.76,268.82c0-.7-.3-1.05-.9-1.05-.52,0-.96.25-1.34.76-.38.51-.77,1.41-1.16,2.7-.33,1.07-.49,1.89-.49,2.44,0,.68.29,1.02.87,1.02.51,0,.97-.26,1.36-.77.39-.52.78-1.41,1.17-2.69.33-1.05.5-1.85.5-2.41Z"/><path d="M756.03,266.39c1.17.83,1.76,1.9,1.76,3.2,0,.39-.04.75-.12,1.08-.31,1.36-1.17,2.33-2.58,2.92-1.41.59-3.08.88-4.99.88-.97,0-1.88-.06-2.72-.19-.02,1.07.27,1.82.87,2.26s1.43.65,2.5.65c.5,0,.97-.06,1.42-.17s1.03-.28,1.73-.51c.58-.21.97-.31,1.17-.31.23,0,.34.13.34.4.02.72-.25,1.48-.8,2.27s-1.38,1.47-2.47,2.02c-1.09.56-2.41.83-3.96.83-2.29,0-4.16-.58-5.62-1.73-1.46-1.15-2.19-2.83-2.19-5.04,0-.62.08-1.34.25-2.16.52-2.53,1.64-4.44,3.38-5.73,1.74-1.29,3.86-1.93,6.35-1.93,2.62,0,4.51.42,5.69,1.25ZM747.93,272.46c.87,0,1.52-.4,1.98-1.21s.67-1.7.65-2.69c-.02-.58-.18-.87-.49-.87-.23,0-.49.18-.8.54-.31.36-.61.9-.91,1.62-.3.72-.55,1.58-.76,2.57.08.02.2.03.34.03Z"/><path d="M563.2,295.3c-.32.54-.73.94-1.22,1.22s-.99.42-1.48.42-.94-.1-1.34-.31c-.4-.21-.74-.48-1-.83l-7.45,12.55c-.56.95-1.07,1.63-1.54,2.04-.47.41-1.01.62-1.61.62-.64,0-1.15-.21-1.53-.63-.38-.42-.65-1.1-.82-2.02l-2.6-14.28c-.06-.37-.17-.67-.34-.9-.17-.23-.38-.47-.65-.74-.21-.19-.35-.33-.43-.45s-.12-.25-.12-.42c-.1-.76.35-1.14,1.36-1.14h7.73c.47,0,.83.1,1.08.29.25.2.36.46.34.79,0,.18-.04.34-.11.46-.07.12-.19.28-.36.46-.19.21-.33.4-.43.59-.1.19-.16.41-.16.68,0,.12.01.23.03.31l1.17,7.2,4.11-7.29c.72-1.32,1.43-2.25,2.13-2.8s1.57-.82,2.6-.82c.95,0,1.71.27,2.27.82s.85,1.3.85,2.27c0,.74-.16,1.38-.48,1.92Z"/><path d="M576.75,295.96c1.42.88,2.13,2.21,2.13,4,0,.68-.12,1.45-.37,2.32l-1.27,4.26c-.02.08-.03.19-.03.31,0,.33.13.5.4.5.25,0,.46-.11.63-.32.17-.22.29-.33.36-.33.1,0,.19.07.26.22s.11.31.11.49c.02.56-.19,1.12-.63,1.7-.44.58-1.04,1.05-1.78,1.42-.74.37-1.56.56-2.44.56-1.07,0-1.99-.2-2.75-.59-.76-.39-1.29-.97-1.58-1.73-.62.74-1.35,1.31-2.19,1.71-.84.4-1.75.6-2.72.6-1.09,0-2.01-.21-2.75-.63-.74-.42-1.29-.97-1.65-1.64-.36-.67-.54-1.38-.54-2.12,0-.33.03-.65.09-.96.33-1.42,1.05-2.49,2.15-3.21,1.1-.72,2.42-1.08,3.94-1.08,1.71,0,3.39.27,5.04.8l.77-2.04c.27-.87.4-1.54.4-2.01-.02-.5-.19-.87-.49-1.11-.31-.25-.78-.37-1.42-.37.12.33.19.67.19,1.02,0,.76-.29,1.42-.87,1.98-.58.56-1.4.83-2.47.83-1.01,0-1.8-.22-2.36-.67-.57-.44-.85-.99-.85-1.65,0-1.03.58-1.88,1.73-2.56,1.15-.68,2.92-1.02,5.29-1.02s4.26.44,5.69,1.31ZM567.93,304.68c-.36.44-.54.92-.54,1.44,0,.33.08.6.23.8s.38.31.66.31c.27,0,.56-.11.88-.32.32-.22.55-.54.7-.97l.65-1.82c-.35-.06-.74-.09-1.17-.09-.58,0-1.05.22-1.41.66Z"/><path d="M593.84,295.04c.95.36,1.68.86,2.21,1.48.53.63.79,1.32.79,2.09,0,.82-.28,1.5-.85,2.04-.57.54-1.33.8-2.3.8s-1.76-.25-2.32-.76c-.56-.5-.83-1.19-.83-2.05,0-.41.06-.84.19-1.3-.87.23-1.63.67-2.3,1.34s-1.12,1.55-1.34,2.64c-.12.62-.19,1.17-.19,1.67,0,1.11.31,1.96.93,2.53.62.58,1.5.87,2.66.87.66,0,1.23-.07,1.7-.2.47-.13.96-.31,1.45-.54.41-.21.71-.31.9-.31.12,0,.21.03.25.08.04.05.06.16.06.32.02.76-.29,1.56-.94,2.4-.65.83-1.54,1.54-2.69,2.1s-2.43.85-3.85.85-2.8-.27-3.94-.82c-1.14-.54-2.03-1.33-2.66-2.35-.63-1.02-.94-2.21-.94-3.57,0-.64.08-1.35.25-2.13.56-2.55,1.79-4.48,3.69-5.78s4.17-1.95,6.78-1.95c1.26,0,2.36.18,3.31.54Z"/><path d="M612.79,295.96c1.42.88,2.13,2.21,2.13,4,0,.68-.12,1.45-.37,2.32l-1.27,4.26c-.02.08-.03.19-.03.31,0,.33.13.5.4.5.25,0,.46-.11.63-.32.17-.22.29-.33.36-.33.1,0,.19.07.26.22s.11.31.11.49c.02.56-.19,1.12-.63,1.7-.44.58-1.04,1.05-1.78,1.42-.74.37-1.56.56-2.44.56-1.07,0-1.99-.2-2.75-.59-.76-.39-1.29-.97-1.58-1.73-.62.74-1.35,1.31-2.19,1.71-.84.4-1.75.6-2.72.6-1.09,0-2.01-.21-2.75-.63-.74-.42-1.29-.97-1.65-1.64-.36-.67-.54-1.38-.54-2.12,0-.33.03-.65.09-.96.33-1.42,1.05-2.49,2.15-3.21,1.1-.72,2.42-1.08,3.94-1.08,1.71,0,3.39.27,5.04.8l.77-2.04c.27-.87.4-1.54.4-2.01-.02-.5-.19-.87-.49-1.11-.31-.25-.78-.37-1.42-.37.12.33.19.67.19,1.02,0,.76-.29,1.42-.87,1.98-.58.56-1.4.83-2.47.83-1.01,0-1.8-.22-2.36-.67-.57-.44-.85-.99-.85-1.65,0-1.03.58-1.88,1.73-2.56,1.15-.68,2.92-1.02,5.29-1.02s4.26.44,5.69,1.31ZM603.96,304.68c-.36.44-.54.92-.54,1.44,0,.33.08.6.23.8s.38.31.66.31c.27,0,.56-.11.88-.32.32-.22.55-.54.7-.97l.65-1.82c-.35-.06-.74-.09-1.17-.09-.58,0-1.05.22-1.41.66Z"/><path d="M631,295.3c.22.17.32.39.32.68,0,.08-.02.23-.06.43-.27.91-.89,1.36-1.85,1.36h-1.79l-2.32,7.63c-.1.31-.16.63-.16.96,0,.37.1.63.31.77.21.14.49.22.87.22.33,0,.74-.04,1.24-.12.25-.06.46-.09.65-.09.14,0,.25.05.33.14.07.09.11.21.11.36.02.41-.28.91-.91,1.5-.63.59-1.48,1.09-2.55,1.51s-2.26.63-3.55.63c-1.4,0-2.52-.32-3.37-.96s-1.27-1.51-1.27-2.63c0-.51.08-1.01.25-1.48l1.98-6.12c.1-.35.16-.63.16-.83,0-.41-.1-.76-.29-1.05-.2-.29-.47-.59-.82-.9-.31-.29-.53-.53-.65-.73-.12-.2-.15-.43-.09-.7.08-.27.26-.47.53-.62.27-.14.69-.22,1.27-.22h1.73l1.95-1.95c.68-.68,1.3-1.15,1.87-1.42.57-.27,1.3-.4,2.21-.4,1.3,0,1.95.49,1.95,1.48,0,.31-.04.6-.12.87l-.43,1.42h1.64c.39,0,.7.08.91.25Z"/><path d="M640.32,295.33c.56.45.83,1.07.83,1.85,0,.47-.07.93-.22,1.36l-2.84,9.24c-.06.25-.09.46-.09.65,0,.27.05.48.16.63.1.15.25.3.43.45.14.14.25.26.31.36s.07.21.03.36c-.1.27-.31.46-.62.59-.31.12-.78.19-1.42.19h-7.05c-.54,0-.93-.09-1.17-.26-.25-.17-.33-.41-.25-.7.08-.25.3-.46.65-.65.31-.16.57-.36.77-.59.21-.23.38-.59.53-1.08l2.69-8.93c.06-.19.09-.34.09-.46,0-.23-.05-.41-.15-.54-.1-.13-.26-.27-.46-.42-.21-.16-.35-.31-.43-.43-.08-.12-.09-.29-.03-.49.12-.47.77-.89,1.95-1.25,1.17-.36,2.4-.54,3.68-.54,1.19,0,2.07.23,2.63.68ZM641.77,288.61c.54.53.8,1.17.8,1.93,0,.54-.14,1.06-.42,1.58-.28.52-.67.93-1.17,1.25s-1.07.48-1.68.48c-.78,0-1.44-.26-1.96-.79s-.8-1.18-.82-1.96c0-.51.13-1.02.4-1.53.27-.5.65-.92,1.14-1.25.49-.33,1.06-.49,1.7-.49.8,0,1.47.26,2.01.79Z"/><path d="M659.03,296.35c1.33,1.13,1.99,2.62,1.99,4.45,0,.62-.08,1.31-.25,2.07-.39,1.69-1.12,3.17-2.19,4.43-1.07,1.27-2.38,2.25-3.94,2.94s-3.24,1.04-5.05,1.04c-2.86,0-4.98-.57-6.35-1.72-1.37-1.14-2.06-2.66-2.06-4.56,0-.64.08-1.35.25-2.13.39-1.61,1.14-3.03,2.24-4.28,1.1-1.25,2.45-2.21,4.05-2.9,1.6-.69,3.3-1.04,5.11-1.04,2.8,0,4.87.57,6.2,1.7ZM651.37,298.56c-.48.77-1.06,2.23-1.72,4.37-.66,2.14-.99,3.65-.99,4.51,0,.45.07.76.22.91.14.16.34.23.59.23.43.04.88-.33,1.34-1.11.46-.78,1.05-2.31,1.75-4.57.64-2,.96-3.45.96-4.36,0-.43-.07-.73-.2-.9s-.32-.25-.57-.25c-.43,0-.89.39-1.38,1.16Z"/><path d="M680.28,306.73c-.04.08-.06.21-.06.37,0,.14.04.26.11.34s.17.12.29.12c.25,0,.46-.11.63-.32.17-.22.29-.32.35-.32.1,0,.19.07.25.2.06.13.09.29.09.48.02.6-.18,1.18-.59,1.75s-1.01,1.03-1.81,1.39-1.75.54-2.86.54c-1.36,0-2.44-.31-3.25-.94-.8-.63-1.22-1.47-1.24-2.52,0-.76.19-1.62.56-2.56l1.7-4.45c.1-.27.16-.48.16-.65,0-.27-.09-.48-.26-.63-.18-.16-.39-.23-.63-.23-.45,0-.89.21-1.3.63-.41.42-.71.94-.9,1.56l-1.92,6.3c-.08.23-.12.44-.12.65,0,.25.05.45.16.6.1.16.25.31.43.48.14.12.25.24.31.34.06.1.07.23.03.37-.08.27-.28.46-.59.59-.31.12-.79.19-1.45.19h-7.05c-.54,0-.92-.09-1.16-.26-.24-.17-.32-.41-.26-.7.08-.25.3-.46.65-.65.31-.16.57-.36.77-.59.21-.23.38-.59.53-1.08l2.75-8.93c.04-.1.06-.25.06-.43,0-.23-.05-.4-.14-.53s-.24-.28-.45-.46c-.21-.16-.35-.31-.43-.43-.08-.12-.09-.29-.03-.49.12-.47.77-.89,1.95-1.25,1.17-.36,2.4-.54,3.68-.54,1.03,0,1.84.28,2.44.85s.87,1.35.8,2.36c.84-1.22,1.74-2.06,2.69-2.52.95-.46,1.98-.7,3.09-.7,1.26,0,2.27.38,3.04,1.14.77.76,1.16,1.75,1.16,2.97,0,.64-.1,1.27-.31,1.89l-1.88,6.09Z"/><path d="M695.78,288.84c.57.45.85,1.07.85,1.85,0,.45-.07.9-.22,1.33l-4.85,15.76c-.06.25-.09.46-.09.65,0,.27.05.48.15.63.1.15.25.3.43.45.14.14.25.26.31.36s.07.21.03.36c-.1.27-.31.46-.62.59-.31.12-.78.19-1.42.19h-7.05c-.54,0-.93-.09-1.17-.26-.25-.17-.33-.41-.25-.7.08-.25.3-.46.65-.65.31-.16.57-.36.77-.59.21-.23.38-.59.53-1.08l4.7-15.42c.06-.19.09-.34.09-.46,0-.23-.06-.41-.17-.56-.11-.14-.26-.29-.45-.43-.21-.17-.36-.31-.45-.43s-.11-.29-.05-.49c.12-.47.77-.89,1.95-1.24,1.17-.35,2.4-.53,3.68-.53,1.19,0,2.08.23,2.64.68Z"/><path d="M711.31,295.96c1.42.88,2.13,2.21,2.13,4,0,.68-.12,1.45-.37,2.32l-1.27,4.26c-.02.08-.03.19-.03.31,0,.33.13.5.4.5.25,0,.46-.11.63-.32.17-.22.29-.33.36-.33.1,0,.19.07.26.22s.11.31.11.49c.02.56-.19,1.12-.63,1.7-.44.58-1.04,1.05-1.78,1.42-.74.37-1.56.56-2.44.56-1.07,0-1.99-.2-2.75-.59-.76-.39-1.29-.97-1.58-1.73-.62.74-1.35,1.31-2.19,1.71-.84.4-1.75.6-2.72.6-1.09,0-2.01-.21-2.75-.63-.74-.42-1.29-.97-1.65-1.64-.36-.67-.54-1.38-.54-2.12,0-.33.03-.65.09-.96.33-1.42,1.05-2.49,2.15-3.21,1.1-.72,2.42-1.08,3.94-1.08,1.71,0,3.39.27,5.04.8l.77-2.04c.27-.87.4-1.54.4-2.01-.02-.5-.19-.87-.49-1.11-.31-.25-.78-.37-1.42-.37.12.33.19.67.19,1.02,0,.76-.29,1.42-.87,1.98-.58.56-1.4.83-2.47.83-1.01,0-1.8-.22-2.36-.67-.57-.44-.85-.99-.85-1.65,0-1.03.58-1.88,1.73-2.56,1.15-.68,2.92-1.02,5.29-1.02s4.26.44,5.69,1.31ZM702.48,304.68c-.36.44-.54.92-.54,1.44,0,.33.08.6.23.8s.38.31.66.31c.27,0,.56-.11.88-.32.32-.22.55-.54.7-.97l.65-1.82c-.35-.06-.74-.09-1.17-.09-.58,0-1.05.22-1.41.66Z"/><path d="M733.93,306.73c-.04.08-.06.21-.06.37,0,.14.04.26.11.34s.17.12.29.12c.25,0,.46-.11.63-.32.17-.22.29-.32.35-.32.1,0,.19.07.25.2.06.13.09.29.09.48.02.6-.18,1.18-.59,1.75s-1.01,1.03-1.81,1.39-1.75.54-2.86.54c-1.36,0-2.44-.31-3.25-.94-.8-.63-1.22-1.47-1.24-2.52,0-.76.19-1.62.56-2.56l1.7-4.45c.1-.27.16-.48.16-.65,0-.27-.09-.48-.26-.63-.18-.16-.39-.23-.63-.23-.45,0-.89.21-1.3.63-.41.42-.71.94-.9,1.56l-1.92,6.3c-.08.23-.12.44-.12.65,0,.25.05.45.16.6.1.16.25.31.43.48.14.12.25.24.31.34.06.1.07.23.03.37-.08.27-.28.46-.59.59-.31.12-.79.19-1.45.19h-7.05c-.54,0-.92-.09-1.16-.26-.24-.17-.32-.41-.26-.7.08-.25.3-.46.65-.65.31-.16.57-.36.77-.59.21-.23.38-.59.53-1.08l2.75-8.93c.04-.1.06-.25.06-.43,0-.23-.05-.4-.14-.53s-.24-.28-.45-.46c-.21-.16-.35-.31-.43-.43-.08-.12-.09-.29-.03-.49.12-.47.77-.89,1.95-1.25,1.17-.36,2.4-.54,3.68-.54,1.03,0,1.84.28,2.44.85s.87,1.35.8,2.36c.84-1.22,1.74-2.06,2.69-2.52.95-.46,1.98-.7,3.09-.7,1.26,0,2.27.38,3.04,1.14.77.76,1.16,1.75,1.16,2.97,0,.64-.1,1.27-.31,1.89l-1.88,6.09Z"/><path d="M754.14,306.89c0,.14.04.26.12.34.08.08.19.12.31.12.25,0,.46-.11.63-.32.17-.22.29-.33.36-.33.1,0,.19.07.25.22.06.14.09.31.09.49.02.56-.19,1.12-.63,1.7-.44.58-1.04,1.05-1.78,1.42-.74.37-1.54.56-2.41.56-1.03,0-1.93-.2-2.69-.59-.76-.39-1.29-.91-1.58-1.55-.56.72-1.2,1.26-1.92,1.61-.72.35-1.48.53-2.29.53-.95,0-1.83-.24-2.64-.71-.81-.47-1.46-1.15-1.95-2.02-.48-.88-.73-1.87-.73-2.98,0-1.87.36-3.64,1.07-5.3.71-1.66,1.7-3,2.98-4.02,1.28-1.02,2.73-1.53,4.36-1.53.89,0,1.64.1,2.27.31.63.21,1.2.52,1.72.93l1.05-3.46c.06-.19.09-.34.09-.46,0-.23-.06-.41-.17-.56-.11-.14-.26-.29-.45-.43-.21-.17-.36-.31-.45-.43s-.11-.29-.05-.49c.12-.47.77-.89,1.95-1.24s2.4-.53,3.68-.53c1.19,0,2.08.23,2.64.68.57.45.85,1.07.85,1.85,0,.45-.07.9-.22,1.33l-4.42,14.52c-.04.17-.06.28-.06.34ZM747.96,297.43c-.6,0-1.19.44-1.76,1.33-.58.89-1.04,1.96-1.39,3.21-.35,1.26-.52,2.39-.5,3.4,0,1.13.37,1.7,1.11,1.7.27,0,.49-.11.68-.32.19-.22.36-.57.53-1.07l2.41-7.82c-.33-.29-.69-.43-1.08-.43Z"/></svg>