<?xml version="1.0" encoding="UTF-8"?><svg id="Layer_1" xmlns="http://www.w3.org/2000/svg" viewBox="0 0 378.15 157.8"><path d="M71.93,39.2c0,.78-.17,1.75-.5,2.92l-2,6.76c-.61,2.06-1.36,3.5-2.25,4.34s-2.17,1.25-3.84,1.25c-1.39,0-2.46-.36-3.21-1.08-.75-.72-1.46-1.86-2.13-3.42l-1.42-3.42c-.45-1.06-.92-1.78-1.42-2.17-.5-.39-1.28-.58-2.34-.58h-1.92l-10.6,37.3c-.17.72-.25,1.36-.25,1.92,0,.67.1,1.22.29,1.67.2.45.49.92.88,1.42.5.78.75,1.42.75,1.92,0,.11-.05.39-.17.83-.28.72-.82,1.25-1.63,1.59-.81.33-1.96.5-3.46.5h-19.61c-1.17,0-2.07-.19-2.71-.58-.64-.39-.96-.95-.96-1.67,0-.33.08-.67.25-1,.22-.5.49-.88.79-1.13.3-.25.76-.57,1.38-.96.83-.5,1.53-1.06,2.09-1.67.55-.61,1.03-1.56,1.42-2.84l10.51-37.3h-1.92c-1.22,0-2.22.2-3,.58-.78.39-1.61,1.11-2.5,2.17l-2.75,3.42c-1.28,1.5-2.52,2.63-3.71,3.38-1.2.75-2.49,1.13-3.88,1.13-1.28,0-2.28-.33-3-1-.72-.67-1.08-1.59-1.08-2.75,0-.56.08-1.17.25-1.84l2.17-7.59c.44-1.56.94-2.74,1.5-3.55.55-.81,1.35-1.39,2.38-1.75,1.03-.36,2.49-.54,4.38-.54h48.65c3.06,0,4.59,1.25,4.59,3.75Z"/><path d="M123.12,36.78c1.14.89,1.71,2.11,1.71,3.67,0,.78-.11,1.53-.33,2.25l-2.17,7.76c-.39,1.5-.96,2.54-1.71,3.13s-1.82.88-3.21.88-2.38-.29-3.13-.88-1.32-1.54-1.71-2.88l-1.33-4.76c-.28-1-.61-1.67-1-2-.39-.33-1.14-.5-2.25-.5h-8.76l-4.17,14.85h3.67c.39,0,.92-.28,1.59-.83l2.84-2.5c.83-.72,1.56-1.25,2.17-1.59.61-.33,1.36-.5,2.25-.5,1,0,1.82.26,2.46.79.64.53.96,1.21.96,2.04,0,.22-.06.56-.17,1l-3.42,11.6c-.33,1.22-.9,2.13-1.71,2.71-.81.58-1.68.88-2.63.88-1.56,0-2.73-.81-3.5-2.42l-1.42-2.92c-.39-.83-1-1.25-1.84-1.25h-3.25l-4.92,17.69h7.34c1.06,0,1.99-.21,2.79-.63.81-.42,1.68-1.15,2.63-2.21l5.01-5.51c.89-.95,1.74-1.63,2.54-2.04.81-.42,1.79-.63,2.96-.63s2.22.28,3,.83c.78.56,1.17,1.39,1.17,2.5,0,.45-.08.97-.25,1.59l-2.42,8.43c-.61,2.11-1.5,3.59-2.67,4.42-1.17.83-2.87,1.25-5.09,1.25h-39.8c-1.17,0-2.07-.19-2.71-.58-.64-.39-.96-.92-.96-1.59,0-.33.08-.69.25-1.08.22-.61.58-1.08,1.08-1.42.5-.33.81-.53.92-.58.89-.56,1.61-1.13,2.17-1.71.56-.58,1.03-1.54,1.42-2.88l10.26-35.96c.22-.72.33-1.39.33-2,0-.67-.1-1.22-.29-1.67-.2-.44-.49-.92-.88-1.42-.5-.72-.75-1.31-.75-1.75,0-.17.05-.47.17-.92.22-.72.72-1.24,1.5-1.54.78-.31,1.92-.46,3.42-.46h37.05c2.06,0,3.66.45,4.8,1.34Z"/><path d="M177.81,40.24c4.23,3.2,6.34,7.89,6.34,14.06,0,3.06-.56,6.59-1.67,10.6-1.83,6.45-4.31,11.57-7.43,15.35-3.12,3.78-7.22,6.54-12.31,8.26-5.09,1.73-11.61,2.56-19.57,2.5l-22.7-.08c-1.17,0-2.07-.19-2.71-.58-.64-.39-.96-.92-.96-1.59,0-.33.08-.69.25-1.08.17-.5.4-.86.71-1.08.31-.22.77-.53,1.38-.92.89-.5,1.6-1.06,2.13-1.67.53-.61.99-1.59,1.38-2.92l10.18-35.88c.22-.72.33-1.42.33-2.09,0-.61-.1-1.13-.29-1.54-.2-.42-.46-.9-.79-1.46-.5-.72-.75-1.31-.75-1.75,0-.17.05-.47.17-.92.22-.72.71-1.24,1.46-1.54.75-.31,1.9-.46,3.46-.46h22.53c8.34,0,14.63,1.6,18.86,4.8ZM163.29,50.72c0-2.95-.61-4.98-1.83-6.09-1.22-1.11-2.98-1.67-5.26-1.67h-1.84l-11.26,40.55h2c2.56,0,4.71-.54,6.47-1.63,1.75-1.08,3.38-3.09,4.88-6.01s3.06-7.19,4.67-12.81c1.45-5.23,2.17-9.35,2.17-12.35Z"/><path d="M240.56,40.24c4.23,3.2,6.34,7.89,6.34,14.06,0,3.06-.56,6.59-1.67,10.6-1.83,6.45-4.31,11.57-7.43,15.35-3.12,3.78-7.22,6.54-12.31,8.26-5.09,1.73-11.61,2.56-19.57,2.5l-22.7-.08c-1.17,0-2.07-.19-2.71-.58-.64-.39-.96-.92-.96-1.59,0-.33.08-.69.25-1.08.17-.5.4-.86.71-1.08.31-.22.77-.53,1.38-.92.89-.5,1.6-1.06,2.13-1.67.53-.61.99-1.59,1.38-2.92l10.18-35.88c.22-.72.33-1.42.33-2.09,0-.61-.1-1.13-.29-1.54-.2-.42-.46-.9-.79-1.46-.5-.72-.75-1.31-.75-1.75,0-.17.05-.47.17-.92.22-.72.71-1.24,1.46-1.54.75-.31,1.9-.46,3.46-.46h22.53c8.34,0,14.63,1.6,18.86,4.8ZM226.04,50.72c0-2.95-.61-4.98-1.83-6.09-1.22-1.11-2.98-1.67-5.26-1.67h-1.84l-11.26,40.55h2c2.56,0,4.71-.54,6.47-1.63,1.75-1.08,3.38-3.09,4.88-6.01s3.06-7.19,4.67-12.81c1.45-5.23,2.17-9.35,2.17-12.35Z"/><path d="M310.4,37.49c1.56,1.59,2.34,3.6,2.34,6.05,0,.33-.06.95-.17,1.84-.45,2.67-1.49,4.65-3.13,5.92-1.64,1.28-3.55,1.92-5.72,1.92-1.45,0-2.67-.22-3.67-.67-1-.44-1.95-1.2-2.84-2.25l-13.77,17.94-3.84,12.93c-.11.33-.17.78-.17,1.34,0,.78.19,1.43.58,1.96.39.53.95,1.1,1.67,1.71.61.56,1.06,1.03,1.33,1.42.28.39.33.83.17,1.33-.22.78-.76,1.32-1.63,1.63-.86.31-2.04.46-3.55.46h-21.03c-1.45,0-2.52-.26-3.21-.79-.7-.53-.93-1.26-.71-2.21.11-.5.32-.9.63-1.21.3-.31.79-.68,1.46-1.13.83-.5,1.53-1.07,2.09-1.71.56-.64,1.03-1.57,1.42-2.8l3.84-13.02-7.68-21.86c-.56-1.61-1.21-2.85-1.96-3.71-.75-.86-1.63-1.71-2.63-2.54-.61-.44-1.06-.83-1.33-1.17-.28-.33-.42-.72-.42-1.17,0-.67.29-1.21.88-1.63.58-.42,1.43-.63,2.54-.63h22.28c1.95,0,3.28.17,4.01.5.72.33,1.11.92,1.17,1.75,0,.5-.11.93-.33,1.29-.22.36-.56.79-1,1.29-.5.67-.88,1.21-1.13,1.63-.25.42-.38.93-.38,1.54,0,.17.05.53.17,1.08l3.84,14.69,10.6-15.1c2.28-3.23,4.44-5.53,6.47-6.93,2.03-1.39,4.3-2.09,6.8-2.09s4.45.79,6.01,2.38Z"/><path d="M40.34,102.52c2.64.75,5.33,1.93,8.05,3.55l1.92-1.59c1.33-1.06,2.43-1.78,3.29-2.17.86-.39,1.85-.58,2.96-.58,1.33,0,2.39.29,3.17.88s1.17,1.43,1.17,2.54c0,.45-.08.92-.25,1.42l-3.5,11.51c-.39,1.34-.88,2.28-1.46,2.84-.58.56-1.46.83-2.63.83s-2.29-.38-3.21-1.13c-.92-.75-2.35-2.29-4.3-4.63-1.95-2.22-3.71-3.8-5.3-4.71-1.59-.92-3.21-1.38-4.88-1.38-1.22,0-2.25.4-3.09,1.21-.84.81-1.25,1.79-1.25,2.96,0,1.33.67,2.57,2,3.71,1.34,1.14,3.42,2.57,6.26,4.3,2.89,1.72,5.29,3.28,7.18,4.67,1.89,1.39,3.51,3.12,4.84,5.17,1.34,2.06,2,4.42,2,7.09,0,1.72-.28,3.45-.84,5.17-1.33,4.45-3.92,7.83-7.76,10.14-3.84,2.31-8.32,3.46-13.43,3.46-3.84,0-7.06-.44-9.68-1.33-2.62-.89-5.29-2.39-8.01-4.51l-3,2.5c-1.39,1.17-2.53,1.96-3.42,2.38-.89.42-1.89.63-3,.63-1.28,0-2.29-.3-3.05-.92-.75-.61-1.13-1.45-1.13-2.5,0-.56.11-1.14.33-1.75l4.09-12.43c.44-1.45,1.06-2.47,1.84-3.09.78-.61,1.78-.92,3-.92s2.43.45,3.46,1.33c1.03.89,2.38,2.5,4.05,4.84,1.78,2.56,3.44,4.34,4.96,5.34,1.53,1,3.35,1.5,5.47,1.5,1.5,0,2.65-.24,3.46-.71.8-.47,1.38-1.24,1.71-2.29.11-.28.17-.69.17-1.25,0-1.33-.64-2.56-1.92-3.67-1.28-1.11-3.25-2.45-5.92-4-2.84-1.72-5.15-3.27-6.93-4.63-1.78-1.36-3.32-3.07-4.63-5.13-1.31-2.06-1.96-4.48-1.96-7.26,0-1.95.3-3.87.92-5.76,1.17-3.84,3.56-6.93,7.18-9.26,3.62-2.34,7.76-3.5,12.43-3.5,3.11,0,5.99.38,8.63,1.13Z"/><path d="M132.8,102.48c.64.39.96.89.96,1.5,0,.28-.08.64-.25,1.08-.17.39-.4.74-.71,1.04-.31.31-.58.53-.83.67-.25.14-.43.26-.54.38-.89.5-1.61,1.06-2.17,1.67-.56.61-1.03,1.56-1.42,2.84l-10.26,35.96c-.22.72-.33,1.42-.33,2.09s.1,1.2.29,1.58c.19.39.49.89.88,1.5.06.06.21.26.46.63.25.36.38.74.38,1.13,0,.11-.06.39-.17.83-.28.78-.81,1.32-1.58,1.63-.78.31-1.95.46-3.5.46h-19.61c-1.17,0-2.07-.19-2.71-.58-.64-.39-.96-.92-.96-1.59,0-.33.08-.69.25-1.08.22-.45.53-.82.92-1.13.39-.3.78-.57,1.17-.79.89-.5,1.61-1.07,2.17-1.71.56-.64,1.03-1.63,1.42-2.96l4-13.93h-14.77l-4.01,13.93c-.22.72-.33,1.42-.33,2.09s.1,1.2.29,1.58c.19.39.49.89.88,1.5.05.06.21.26.46.63.25.36.38.74.38,1.13,0,.11-.06.39-.17.83-.28.78-.81,1.32-1.58,1.63-.78.31-1.95.46-3.5.46h-19.61c-1.17,0-2.07-.19-2.71-.58-.64-.39-.96-.92-.96-1.59,0-.33.08-.69.25-1.08.22-.45.53-.82.92-1.13.39-.3.78-.57,1.17-.79.89-.5,1.61-1.07,2.17-1.71.56-.64,1.03-1.63,1.42-2.96l10.26-35.96c.22-.72.33-1.42.33-2.09,0-.61-.1-1.13-.29-1.54-.2-.42-.46-.9-.79-1.46-.22-.28-.42-.57-.58-.88-.17-.31-.25-.63-.25-.96,0-.11.05-.39.17-.83.22-.72.72-1.24,1.5-1.54.78-.31,1.95-.46,3.5-.46h19.61c1.17,0,2.07.2,2.71.58.64.39.96.89.96,1.5,0,.28-.08.64-.25,1.08-.17.39-.4.74-.71,1.04-.31.31-.58.53-.83.67-.25.14-.43.26-.54.38-.89.5-1.61,1.06-2.17,1.67-.56.61-1.03,1.56-1.42,2.84l-3.92,13.68h14.77l3.92-13.68c.22-.72.33-1.42.33-2.09,0-.61-.1-1.13-.29-1.54-.2-.42-.46-.9-.79-1.46-.22-.28-.42-.57-.58-.88-.17-.31-.25-.63-.25-.96,0-.11.05-.39.17-.83.22-.72.72-1.24,1.5-1.54.78-.31,1.95-.46,3.5-.46h19.61c1.17,0,2.07.2,2.71.58Z"/><path d="M188.54,103.23c1.14.89,1.71,2.11,1.71,3.67,0,.78-.11,1.53-.33,2.25l-2.17,7.76c-.39,1.5-.96,2.54-1.71,3.13s-1.82.88-3.21.88-2.38-.29-3.13-.88-1.32-1.54-1.71-2.88l-1.33-4.76c-.28-1-.61-1.67-1-2-.39-.33-1.14-.5-2.25-.5h-8.76l-4.17,14.85h3.67c.39,0,.92-.28,1.59-.83l2.84-2.5c.83-.72,1.56-1.25,2.17-1.59.61-.33,1.36-.5,2.25-.5,1,0,1.82.26,2.46.79.64.53.96,1.21.96,2.04,0,.22-.06.56-.17,1l-3.42,11.6c-.33,1.22-.9,2.13-1.71,2.71-.81.58-1.68.88-2.63.88-1.56,0-2.73-.81-3.5-2.42l-1.42-2.92c-.39-.83-1-1.25-1.84-1.25h-3.25l-4.92,17.69h7.34c1.06,0,1.99-.21,2.79-.62.81-.42,1.68-1.15,2.63-2.21l5.01-5.51c.89-.95,1.74-1.63,2.54-2.04s1.79-.63,2.96-.63,2.22.28,3,.83c.78.56,1.17,1.39,1.17,2.5,0,.45-.08.97-.25,1.58l-2.42,8.43c-.61,2.11-1.5,3.59-2.67,4.42-1.17.83-2.87,1.25-5.09,1.25h-39.8c-1.17,0-2.07-.19-2.71-.58-.64-.39-.96-.92-.96-1.59,0-.33.08-.69.25-1.08.22-.61.58-1.08,1.08-1.42.5-.33.81-.53.92-.58.89-.56,1.61-1.13,2.17-1.71.56-.58,1.03-1.54,1.42-2.88l10.26-35.96c.22-.72.33-1.39.33-2,0-.67-.1-1.22-.29-1.67-.2-.44-.49-.92-.88-1.42-.5-.72-.75-1.31-.75-1.75,0-.17.05-.47.17-.92.22-.72.72-1.24,1.5-1.54.78-.31,1.92-.46,3.42-.46h37.05c2.06,0,3.66.45,4.8,1.34Z"/><path d="M243.23,106.69c4.23,3.2,6.34,7.89,6.34,14.06,0,3.06-.56,6.59-1.67,10.6-1.83,6.45-4.31,11.57-7.43,15.35-3.12,3.78-7.22,6.54-12.31,8.26-5.09,1.72-11.61,2.56-19.57,2.5l-22.7-.08c-1.17,0-2.07-.19-2.71-.58-.64-.39-.96-.92-.96-1.58,0-.33.08-.7.25-1.08.17-.5.4-.86.71-1.08.31-.22.77-.53,1.38-.92.89-.5,1.6-1.06,2.13-1.67.53-.61.99-1.59,1.38-2.92l10.18-35.88c.22-.72.33-1.42.33-2.09,0-.61-.1-1.13-.29-1.54-.2-.42-.46-.9-.79-1.46-.5-.72-.75-1.31-.75-1.75,0-.17.05-.47.17-.92.22-.72.71-1.24,1.46-1.54.75-.31,1.9-.46,3.46-.46h22.53c8.34,0,14.63,1.6,18.86,4.8ZM228.71,117.16c0-2.95-.61-4.98-1.83-6.09-1.22-1.11-2.98-1.67-5.26-1.67h-1.84l-11.26,40.55h2c2.56,0,4.71-.54,6.47-1.63,1.75-1.08,3.38-3.09,4.88-6.01,1.5-2.92,3.06-7.19,4.67-12.81,1.45-5.23,2.17-9.34,2.17-12.35Z"/><path d="M305.98,106.69c4.23,3.2,6.34,7.89,6.34,14.06,0,3.06-.56,6.59-1.67,10.6-1.83,6.45-4.31,11.57-7.43,15.35-3.12,3.78-7.22,6.54-12.31,8.26-5.09,1.72-11.61,2.56-19.57,2.5l-22.7-.08c-1.17,0-2.07-.19-2.71-.58-.64-.39-.96-.92-.96-1.58,0-.33.08-.7.25-1.08.17-.5.4-.86.71-1.08.31-.22.77-.53,1.38-.92.89-.5,1.6-1.06,2.13-1.67.53-.61.99-1.59,1.38-2.92l10.18-35.88c.22-.72.33-1.42.33-2.09,0-.61-.1-1.13-.29-1.54-.2-.42-.46-.9-.79-1.46-.5-.72-.75-1.31-.75-1.75,0-.17.05-.47.17-.92.22-.72.71-1.24,1.46-1.54.75-.31,1.9-.46,3.46-.46h22.53c8.34,0,14.63,1.6,18.86,4.8ZM291.46,117.16c0-2.95-.61-4.98-1.83-6.09-1.22-1.11-2.98-1.67-5.26-1.67h-1.84l-11.26,40.55h2c2.56,0,4.71-.54,6.47-1.63,1.75-1.08,3.38-3.09,4.88-6.01,1.5-2.92,3.06-7.19,4.67-12.81,1.45-5.23,2.17-9.34,2.17-12.35Z"/><path d="M375.82,103.94c1.56,1.59,2.34,3.6,2.34,6.05,0,.33-.06.95-.17,1.84-.45,2.67-1.49,4.65-3.13,5.92-1.64,1.28-3.55,1.92-5.72,1.92-1.45,0-2.67-.22-3.67-.67-1-.44-1.95-1.2-2.84-2.25l-13.77,17.94-3.84,12.93c-.11.33-.17.78-.17,1.33,0,.78.19,1.43.58,1.96.39.53.95,1.1,1.67,1.71.61.56,1.06,1.03,1.33,1.42.28.39.33.83.17,1.33-.22.78-.76,1.32-1.63,1.63-.86.31-2.04.46-3.55.46h-21.03c-1.45,0-2.52-.26-3.21-.79-.7-.53-.93-1.26-.71-2.21.11-.5.32-.9.63-1.21s.79-.68,1.46-1.13c.83-.5,1.53-1.07,2.09-1.71.56-.64,1.03-1.57,1.42-2.79l3.84-13.02-7.68-21.86c-.56-1.61-1.21-2.85-1.96-3.71-.75-.86-1.63-1.71-2.63-2.54-.61-.44-1.06-.83-1.33-1.17-.28-.33-.42-.72-.42-1.17,0-.67.29-1.21.88-1.63.58-.42,1.43-.63,2.54-.63h22.28c1.95,0,3.28.17,4.01.5.72.33,1.11.92,1.17,1.75,0,.5-.11.93-.33,1.29-.22.36-.56.79-1,1.29-.5.67-.88,1.21-1.13,1.63-.25.42-.38.93-.38,1.54,0,.17.05.53.17,1.08l3.84,14.69,10.6-15.1c2.28-3.23,4.44-5.53,6.47-6.93,2.03-1.39,4.3-2.09,6.8-2.09s4.45.79,6.01,2.38Z"/><path d="M39.56,3.65c0,.29-.06.65-.19,1.08l-.74,2.5c-.23.76-.5,1.3-.83,1.61-.33.31-.8.46-1.42.46-.51,0-.91-.13-1.19-.4s-.54-.69-.79-1.27l-.53-1.27c-.17-.39-.34-.66-.53-.8-.19-.14-.47-.22-.87-.22h-.71l-3.92,13.81c-.06.27-.09.51-.09.71,0,.25.04.45.11.62.07.17.18.34.32.53.19.29.28.53.28.71,0,.04-.02.14-.06.31-.1.27-.3.46-.6.59-.3.12-.73.19-1.28.19h-7.26c-.43,0-.77-.07-1-.22-.24-.14-.36-.35-.36-.62,0-.12.03-.25.09-.37.08-.19.18-.32.29-.42.11-.09.28-.21.51-.36.31-.19.57-.39.77-.62.21-.23.38-.58.53-1.05l3.89-13.81h-.71c-.45,0-.82.07-1.11.22s-.6.41-.93.8l-1.02,1.27c-.47.56-.93.97-1.38,1.25s-.92.42-1.44.42c-.47,0-.85-.12-1.11-.37-.27-.25-.4-.59-.4-1.02,0-.21.03-.43.09-.68l.8-2.81c.16-.58.35-1.01.56-1.31.21-.3.5-.51.88-.65.38-.13.92-.2,1.62-.2h18.02c1.13,0,1.7.46,1.7,1.39Z"/><path d="M55.51,18.57c-.04.08-.06.21-.06.37,0,.14.04.26.11.34.07.08.17.12.29.12.25,0,.46-.11.63-.32.17-.22.29-.32.36-.32.1,0,.18.07.25.2.06.13.09.29.09.48.02.6-.18,1.18-.59,1.75-.41.57-1.01,1.03-1.81,1.39s-1.75.54-2.86.54c-1.36,0-2.44-.31-3.25-.94-.8-.63-1.22-1.47-1.24-2.52,0-.76.19-1.62.56-2.56l1.7-4.45c.1-.27.16-.48.16-.65,0-.27-.09-.48-.26-.63-.18-.15-.39-.23-.63-.23-.39,0-.79.18-1.19.54-.4.36-.73.94-.97,1.75v-.06l-1.95,6.27c-.06.25-.09.46-.09.65,0,.27.05.48.15.63.1.15.25.3.43.45.14.14.25.26.31.36s.07.21.03.36c-.1.27-.31.46-.62.59-.31.12-.78.19-1.42.19h-7.05c-.54,0-.93-.09-1.17-.26-.25-.17-.33-.41-.25-.7.08-.25.3-.46.65-.65.31-.16.57-.36.77-.59.21-.23.38-.59.53-1.08l4.7-15.42c.06-.19.09-.34.09-.46,0-.23-.06-.41-.17-.56-.11-.14-.26-.29-.45-.43-.21-.16-.36-.31-.45-.43s-.11-.29-.05-.49c.12-.47.77-.89,1.95-1.24,1.17-.35,2.4-.53,3.68-.53,1.19,0,2.08.23,2.64.68.57.45.85,1.07.85,1.85,0,.45-.07.9-.22,1.33l-1.67,5.44c.8-1.05,1.65-1.78,2.55-2.19.9-.41,1.87-.62,2.92-.62,1.26,0,2.27.38,3.04,1.14s1.16,1.75,1.16,2.97c0,.64-.1,1.27-.31,1.88l-1.88,6.09Z"/><path d="M74.67,7.59c1.17.83,1.76,1.9,1.76,3.2,0,.39-.04.75-.12,1.08-.31,1.36-1.17,2.33-2.58,2.92-1.41.59-3.08.88-4.99.88-.97,0-1.88-.06-2.72-.19-.02,1.07.27,1.82.87,2.26s1.43.65,2.5.65c.5,0,.97-.06,1.42-.17.45-.11,1.03-.28,1.73-.51.58-.21.97-.31,1.17-.31.23,0,.34.13.34.4.02.72-.25,1.48-.8,2.27-.56.79-1.38,1.47-2.47,2.02s-2.41.83-3.96.83c-2.29,0-4.16-.58-5.62-1.73s-2.19-2.83-2.19-5.04c0-.62.08-1.34.25-2.16.52-2.53,1.64-4.44,3.38-5.73,1.74-1.29,3.86-1.93,6.35-1.93,2.62,0,4.51.42,5.69,1.25ZM66.57,13.66c.87,0,1.52-.4,1.98-1.21.45-.8.67-1.7.65-2.69-.02-.58-.18-.87-.49-.87-.23,0-.49.18-.8.54-.31.36-.61.9-.91,1.62-.3.72-.55,1.58-.76,2.56.08.02.2.03.34.03Z"/></svg>